<?xml version="1.0" encoding="UTF-8" standalone="no"?>
<!DOCTYPE svg PUBLIC "-//W3C//DTD SVG 1.1//EN"
 "http://www.w3.org/Graphics/SVG/1.1/DTD/svg11.dtd">
<!-- Generated by graphviz version 2.48.0 (0)
 -->
<!-- Pages: 1 -->
<svg width="1959pt" height="1055pt"
 viewBox="0.00 0.00 1959.25 1055.08" xmlns="http://www.w3.org/2000/svg" xmlns:xlink="http://www.w3.org/1999/xlink">
<g id="graph0" class="graph" transform="scale(1 1) rotate(0) translate(4 1051.08)">
<polygon fill="white" stroke="transparent" points="-4,4 -4,-1051.08 1955.25,-1051.08 1955.25,4 -4,4"/>
<!-- pr -->
<g id="node1" class="node">
<title>pr</title>
<polygon fill="none" stroke="black" points="231.23,-973.54 262.77,-973.54 274,-1009.54 220,-1009.54 231.23,-973.54"/>
<text text-anchor="middle" x="247" y="-987.34" font-family="Times,serif" font-size="14.00">pr</text>
</g>
<!-- pd -->
<g id="node2" class="node">
<title>pd</title>
<path fill="none" stroke="black" d="M424,-896.73C424,-898.53 411.9,-900 397,-900 382.1,-900 370,-898.53 370,-896.73 370,-896.73 370,-867.27 370,-867.27 370,-865.47 382.1,-864 397,-864 411.9,-864 424,-865.47 424,-867.27 424,-867.27 424,-896.73 424,-896.73"/>
<path fill="none" stroke="black" d="M424,-896.73C424,-894.92 411.9,-893.45 397,-893.45 382.1,-893.45 370,-894.92 370,-896.73"/>
<text text-anchor="middle" x="397" y="-877.8" font-family="Times,serif" font-size="14.00">pd</text>
</g>
<!-- pr&#45;&gt;pd -->
<g id="edge1" class="edge">
<title>pr&#45;&gt;pd</title>
<path fill="none" stroke="black" d="M263.59,-975.13C287.26,-956.55 330.76,-925.22 361.74,-904.33"/>
<polygon fill="black" stroke="black" points="363.75,-907.19 370.12,-898.73 359.86,-901.37 363.75,-907.19"/>
</g>
<!-- vx -->
<g id="node3" class="node">
<title>vx</title>
<path fill="none" stroke="black" d="M196,-392.73C196,-394.53 183.9,-396 169,-396 154.1,-396 142,-394.53 142,-392.73 142,-392.73 142,-363.27 142,-363.27 142,-361.47 154.1,-360 169,-360 183.9,-360 196,-361.47 196,-363.27 196,-363.27 196,-392.73 196,-392.73"/>
<path fill="none" stroke="black" d="M196,-392.73C196,-390.92 183.9,-389.45 169,-389.45 154.1,-389.45 142,-390.92 142,-392.73"/>
<text text-anchor="middle" x="169" y="-373.8" font-family="Times,serif" font-size="14.00">vx</text>
</g>
<!-- pr&#45;&gt;vx -->
<g id="edge2" class="edge">
<title>pr&#45;&gt;vx</title>
<path fill="none" stroke="black" d="M230.88,-973.78C203.78,-943.75 152,-877.65 152,-811 152,-811 152,-811 152,-521 152,-480.93 158.76,-434.95 163.75,-406.43"/>
<polygon fill="black" stroke="black" points="167.23,-406.87 165.56,-396.41 160.34,-405.63 167.23,-406.87"/>
</g>
<!-- vn -->
<g id="node4" class="node">
<title>vn</title>
<polygon fill="none" stroke="black" points="890.04,-792 923.96,-792 936.03,-828 877.97,-828 890.04,-792"/>
<text text-anchor="middle" x="907" y="-805.8" font-family="Times,serif" font-size="14.00">vn</text>
</g>
<!-- pr&#45;&gt;vn -->
<g id="edge3" class="edge">
<title>pr&#45;&gt;vn</title>
<path fill="none" stroke="black" d="M268.09,-989.97C340.76,-987.4 586.45,-973.43 772,-900 812.28,-884.06 853.05,-855 879.08,-834.43"/>
<polygon fill="black" stroke="black" points="881.39,-837.07 887,-828.08 877.01,-831.61 881.39,-837.07"/>
</g>
<!-- cl -->
<g id="node5" class="node">
<title>cl</title>
<path fill="none" stroke="black" d="M310,-680.73C310,-682.53 297.9,-684 283,-684 268.1,-684 256,-682.53 256,-680.73 256,-680.73 256,-651.27 256,-651.27 256,-649.47 268.1,-648 283,-648 297.9,-648 310,-649.47 310,-651.27 310,-651.27 310,-680.73 310,-680.73"/>
<path fill="none" stroke="black" d="M310,-680.73C310,-678.92 297.9,-677.45 283,-677.45 268.1,-677.45 256,-678.92 256,-680.73"/>
<text text-anchor="middle" x="283" y="-661.8" font-family="Times,serif" font-size="14.00">cl</text>
</g>
<!-- pr&#45;&gt;cl -->
<g id="edge4" class="edge">
<title>pr&#45;&gt;cl</title>
<path fill="none" stroke="black" d="M248.94,-973.14C254.86,-919.91 272.77,-758.94 279.96,-694.3"/>
<polygon fill="black" stroke="black" points="283.47,-694.41 281.1,-684.09 276.51,-693.64 283.47,-694.41"/>
</g>
<!-- hm -->
<g id="node6" class="node">
<title>hm</title>
<path fill="none" stroke="black" d="M291,-608.73C291,-610.53 278.9,-612 264,-612 249.1,-612 237,-610.53 237,-608.73 237,-608.73 237,-579.27 237,-579.27 237,-577.47 249.1,-576 264,-576 278.9,-576 291,-577.47 291,-579.27 291,-579.27 291,-608.73 291,-608.73"/>
<path fill="none" stroke="black" d="M291,-608.73C291,-606.92 278.9,-605.45 264,-605.45 249.1,-605.45 237,-606.92 237,-608.73"/>
<text text-anchor="middle" x="264" y="-589.8" font-family="Times,serif" font-size="14.00">hm</text>
</g>
<!-- pr&#45;&gt;hm -->
<g id="edge5" class="edge">
<title>pr&#45;&gt;hm</title>
<path fill="none" stroke="black" d="M243.99,-973.52C238.63,-941.71 228,-871.02 228,-811 228,-811 228,-811 228,-737 228,-695.78 242.43,-649.83 253.02,-621.66"/>
<polygon fill="black" stroke="black" points="256.36,-622.72 256.71,-612.13 249.84,-620.19 256.36,-622.72"/>
</g>
<!-- pd&#45;&gt;pr -->
<g id="edge6" class="edge">
<title>pd&#45;&gt;pr</title>
<path fill="none" stroke="black" d="M378.6,-899.82C352.2,-920.39 303.95,-954.95 273.66,-974.95"/>
<polygon fill="black" stroke="black" points="271.73,-972.03 265.26,-980.42 275.55,-977.9 271.73,-972.03"/>
</g>
<!-- jp -->
<g id="node7" class="node">
<title>jp</title>
<path fill="none" stroke="black" d="M386,-824.73C386,-826.53 373.9,-828 359,-828 344.1,-828 332,-826.53 332,-824.73 332,-824.73 332,-795.27 332,-795.27 332,-793.47 344.1,-792 359,-792 373.9,-792 386,-793.47 386,-795.27 386,-795.27 386,-824.73 386,-824.73"/>
<path fill="none" stroke="black" d="M386,-824.73C386,-822.92 373.9,-821.45 359,-821.45 344.1,-821.45 332,-822.92 332,-824.73"/>
<text text-anchor="middle" x="359" y="-805.8" font-family="Times,serif" font-size="14.00">jp</text>
</g>
<!-- pd&#45;&gt;jp -->
<g id="edge7" class="edge">
<title>pd&#45;&gt;jp</title>
<path fill="none" stroke="black" d="M387.61,-863.7C383.24,-855.64 377.94,-845.89 373.1,-836.98"/>
<polygon fill="black" stroke="black" points="376.13,-835.22 368.29,-828.1 369.98,-838.56 376.13,-835.22"/>
</g>
<!-- ns -->
<g id="node8" class="node">
<title>ns</title>
<path fill="none" stroke="black" d="M158,-320.73C158,-322.53 145.9,-324 131,-324 116.1,-324 104,-322.53 104,-320.73 104,-320.73 104,-291.27 104,-291.27 104,-289.47 116.1,-288 131,-288 145.9,-288 158,-289.47 158,-291.27 158,-291.27 158,-320.73 158,-320.73"/>
<path fill="none" stroke="black" d="M158,-320.73C158,-318.92 145.9,-317.45 131,-317.45 116.1,-317.45 104,-318.92 104,-320.73"/>
<text text-anchor="middle" x="131" y="-301.8" font-family="Times,serif" font-size="14.00">ns</text>
</g>
<!-- vx&#45;&gt;ns -->
<g id="edge8" class="edge">
<title>vx&#45;&gt;ns</title>
<path fill="none" stroke="black" d="M159.61,-359.7C155.24,-351.64 149.94,-341.89 145.1,-332.98"/>
<polygon fill="black" stroke="black" points="148.13,-331.22 140.29,-324.1 141.98,-334.56 148.13,-331.22"/>
</g>
<!-- kj -->
<g id="node9" class="node">
<title>kj</title>
<polygon fill="none" stroke="black" points="958.23,-504 989.77,-504 1001,-540 947,-540 958.23,-504"/>
<text text-anchor="middle" x="974" y="-517.8" font-family="Times,serif" font-size="14.00">kj</text>
</g>
<!-- vn&#45;&gt;kj -->
<g id="edge9" class="edge">
<title>vn&#45;&gt;kj</title>
<path fill="none" stroke="black" d="M910.99,-791.97C922.18,-744.19 953.94,-608.62 967.61,-550.27"/>
<polygon fill="black" stroke="black" points="971.07,-550.84 969.95,-540.31 964.26,-549.24 971.07,-550.84"/>
</g>
<!-- cl&#45;&gt;hm -->
<g id="edge10" class="edge">
<title>cl&#45;&gt;hm</title>
<path fill="none" stroke="black" d="M278.3,-647.7C276.19,-639.9 273.64,-630.51 271.28,-621.83"/>
<polygon fill="black" stroke="black" points="274.64,-620.84 268.64,-612.1 267.88,-622.67 274.64,-620.84"/>
</g>
<!-- qb -->
<g id="node10" class="node">
<title>qb</title>
<path fill="none" stroke="black" d="M291,-536.73C291,-538.53 278.9,-540 264,-540 249.1,-540 237,-538.53 237,-536.73 237,-536.73 237,-507.27 237,-507.27 237,-505.47 249.1,-504 264,-504 278.9,-504 291,-505.47 291,-507.27 291,-507.27 291,-536.73 291,-536.73"/>
<path fill="none" stroke="black" d="M291,-536.73C291,-534.92 278.9,-533.45 264,-533.45 249.1,-533.45 237,-534.92 237,-536.73"/>
<text text-anchor="middle" x="264" y="-517.8" font-family="Times,serif" font-size="14.00">qb</text>
</g>
<!-- hm&#45;&gt;qb -->
<g id="edge11" class="edge">
<title>hm&#45;&gt;qb</title>
<path fill="none" stroke="black" d="M264,-575.7C264,-567.98 264,-558.71 264,-550.11"/>
<polygon fill="black" stroke="black" points="267.5,-550.1 264,-540.1 260.5,-550.1 267.5,-550.1"/>
</g>
<!-- jp&#45;&gt;pr -->
<g id="edge83" class="edge">
<title>jp&#45;&gt;pr</title>
<path fill="none" stroke="black" d="M352.42,-828.33C345.12,-846.73 332.46,-876.34 318,-900 303.68,-923.44 284.26,-947.82 269.35,-965.37"/>
<polygon fill="black" stroke="black" points="266.31,-963.54 262.44,-973.4 271.61,-968.1 266.31,-963.54"/>
</g>
<!-- mx -->
<g id="node56" class="node">
<title>mx</title>
<path fill="none" stroke="black" d="M348,-752.73C348,-754.53 335.9,-756 321,-756 306.1,-756 294,-754.53 294,-752.73 294,-752.73 294,-723.27 294,-723.27 294,-721.47 306.1,-720 321,-720 335.9,-720 348,-721.47 348,-723.27 348,-723.27 348,-752.73 348,-752.73"/>
<path fill="none" stroke="black" d="M348,-752.73C348,-750.92 335.9,-749.45 321,-749.45 306.1,-749.45 294,-750.92 294,-752.73"/>
<text text-anchor="middle" x="321" y="-733.8" font-family="Times,serif" font-size="14.00">mx</text>
</g>
<!-- jp&#45;&gt;mx -->
<g id="edge84" class="edge">
<title>jp&#45;&gt;mx</title>
<path fill="none" stroke="black" d="M349.61,-791.7C345.24,-783.64 339.94,-773.89 335.1,-764.98"/>
<polygon fill="black" stroke="black" points="338.13,-763.22 330.29,-756.1 331.98,-766.56 338.13,-763.22"/>
</g>
<!-- ns&#45;&gt;pr -->
<g id="edge79" class="edge">
<title>ns&#45;&gt;pr</title>
<path fill="none" stroke="black" d="M127.56,-324.41C122.59,-351.1 114,-403.81 114,-449 114,-811 114,-811 114,-811 114,-882.22 182.42,-943.64 221.11,-972.68"/>
<polygon fill="black" stroke="black" points="219.2,-975.62 229.34,-978.7 223.34,-969.97 219.2,-975.62"/>
</g>
<!-- pn -->
<g id="node54" class="node">
<title>pn</title>
<path fill="none" stroke="black" d="M120,-248.73C120,-250.53 107.9,-252 93,-252 78.1,-252 66,-250.53 66,-248.73 66,-248.73 66,-219.27 66,-219.27 66,-217.47 78.1,-216 93,-216 107.9,-216 120,-217.47 120,-219.27 120,-219.27 120,-248.73 120,-248.73"/>
<path fill="none" stroke="black" d="M120,-248.73C120,-246.92 107.9,-245.45 93,-245.45 78.1,-245.45 66,-246.92 66,-248.73"/>
<text text-anchor="middle" x="93" y="-229.8" font-family="Times,serif" font-size="14.00">pn</text>
</g>
<!-- ns&#45;&gt;pn -->
<g id="edge80" class="edge">
<title>ns&#45;&gt;pn</title>
<path fill="none" stroke="black" d="M121.61,-287.7C117.24,-279.64 111.94,-269.89 107.1,-260.98"/>
<polygon fill="black" stroke="black" points="110.13,-259.22 102.29,-252.1 103.98,-262.56 110.13,-259.22"/>
</g>
<!-- rx -->
<g id="node34" class="node">
<title>rx</title>
<polygon fill="none" stroke="black" points="1001.98,-468 957.47,-468 946.02,-432 990.53,-432 1001.98,-468"/>
<text text-anchor="middle" x="974" y="-445.8" font-family="Times,serif" font-size="14.00">rx</text>
</g>
<!-- kj&#45;&gt;rx -->
<g id="edge40" class="edge">
<title>kj&#45;&gt;rx</title>
<path fill="none" stroke="black" d="M974,-503.7C974,-495.98 974,-486.71 974,-478.11"/>
<polygon fill="black" stroke="black" points="977.5,-478.1 974,-468.1 970.5,-478.1 977.5,-478.1"/>
</g>
<!-- qb&#45;&gt;pr -->
<g id="edge12" class="edge">
<title>qb&#45;&gt;pr</title>
<path fill="none" stroke="black" d="M291.34,-529.87C343.48,-544.81 452,-585.44 452,-665 452,-811 452,-811 452,-811 452,-851.45 457.93,-868.15 433,-900 393.52,-950.45 318.75,-974.55 277.04,-984.53"/>
<polygon fill="black" stroke="black" points="276.16,-981.14 267.19,-986.77 277.71,-987.96 276.16,-981.14"/>
</g>
<!-- bf -->
<g id="node11" class="node">
<title>bf</title>
<path fill="none" stroke="black" d="M234,-464.73C234,-466.53 221.9,-468 207,-468 192.1,-468 180,-466.53 180,-464.73 180,-464.73 180,-435.27 180,-435.27 180,-433.47 192.1,-432 207,-432 221.9,-432 234,-433.47 234,-435.27 234,-435.27 234,-464.73 234,-464.73"/>
<path fill="none" stroke="black" d="M234,-464.73C234,-462.92 221.9,-461.45 207,-461.45 192.1,-461.45 180,-462.92 180,-464.73"/>
<text text-anchor="middle" x="207" y="-445.8" font-family="Times,serif" font-size="14.00">bf</text>
</g>
<!-- qb&#45;&gt;bf -->
<g id="edge13" class="edge">
<title>qb&#45;&gt;bf</title>
<path fill="none" stroke="black" d="M249.91,-503.7C243.08,-495.3 234.74,-485.07 227.24,-475.86"/>
<polygon fill="black" stroke="black" points="229.96,-473.65 220.93,-468.1 224.53,-478.07 229.96,-473.65"/>
</g>
<!-- bf&#45;&gt;pr -->
<g id="edge69" class="edge">
<title>bf&#45;&gt;pr</title>
<path fill="none" stroke="black" d="M203.56,-468.41C198.59,-495.1 190,-547.81 190,-593 190,-811 190,-811 190,-811 190,-867.55 216.01,-929.63 232.89,-963.96"/>
<polygon fill="black" stroke="black" points="229.96,-965.93 237.59,-973.28 236.21,-962.78 229.96,-965.93"/>
</g>
<!-- bf&#45;&gt;vx -->
<g id="edge70" class="edge">
<title>bf&#45;&gt;vx</title>
<path fill="none" stroke="black" d="M197.61,-431.7C193.24,-423.64 187.94,-413.89 183.1,-404.98"/>
<polygon fill="black" stroke="black" points="186.13,-403.22 178.29,-396.1 179.98,-406.56 186.13,-403.22"/>
</g>
<!-- nm -->
<g id="node12" class="node">
<title>nm</title>
<path fill="none" stroke="black" d="M1731,-320.73C1731,-322.53 1718.9,-324 1704,-324 1689.1,-324 1677,-322.53 1677,-320.73 1677,-320.73 1677,-291.27 1677,-291.27 1677,-289.47 1689.1,-288 1704,-288 1718.9,-288 1731,-289.47 1731,-291.27 1731,-291.27 1731,-320.73 1731,-320.73"/>
<path fill="none" stroke="black" d="M1731,-320.73C1731,-318.92 1718.9,-317.45 1704,-317.45 1689.1,-317.45 1677,-318.92 1677,-320.73"/>
<text text-anchor="middle" x="1704" y="-301.8" font-family="Times,serif" font-size="14.00">nm</text>
</g>
<!-- dh -->
<g id="node13" class="node">
<title>dh</title>
<path fill="none" stroke="black" d="M1712,-248.73C1712,-250.53 1699.9,-252 1685,-252 1670.1,-252 1658,-250.53 1658,-248.73 1658,-248.73 1658,-219.27 1658,-219.27 1658,-217.47 1670.1,-216 1685,-216 1699.9,-216 1712,-217.47 1712,-219.27 1712,-219.27 1712,-248.73 1712,-248.73"/>
<path fill="none" stroke="black" d="M1712,-248.73C1712,-246.92 1699.9,-245.45 1685,-245.45 1670.1,-245.45 1658,-246.92 1658,-248.73"/>
<text text-anchor="middle" x="1685" y="-229.8" font-family="Times,serif" font-size="14.00">dh</text>
</g>
<!-- nm&#45;&gt;dh -->
<g id="edge14" class="edge">
<title>nm&#45;&gt;dh</title>
<path fill="none" stroke="black" d="M1699.3,-287.7C1697.19,-279.9 1694.64,-270.51 1692.28,-261.83"/>
<polygon fill="black" stroke="black" points="1695.64,-260.84 1689.64,-252.1 1688.88,-262.67 1695.64,-260.84"/>
</g>
<!-- jv -->
<g id="node14" class="node">
<title>jv</title>
<polygon fill="none" stroke="black" points="1709.23,-720 1740.77,-720 1752,-756 1698,-756 1709.23,-720"/>
<text text-anchor="middle" x="1725" y="-733.8" font-family="Times,serif" font-size="14.00">jv</text>
</g>
<!-- nm&#45;&gt;jv -->
<g id="edge15" class="edge">
<title>nm&#45;&gt;jv</title>
<path fill="none" stroke="black" d="M1700.56,-324.41C1695.59,-351.1 1687,-403.81 1687,-449 1687,-595 1687,-595 1687,-595 1687,-636.37 1702.23,-682.28 1713.41,-710.39"/>
<polygon fill="black" stroke="black" points="1710.28,-711.98 1717.31,-719.91 1716.76,-709.33 1710.28,-711.98"/>
</g>
<!-- dh&#45;&gt;jv -->
<g id="edge16" class="edge">
<title>dh&#45;&gt;jv</title>
<path fill="none" stroke="black" d="M1677.71,-252.13C1667.2,-278.47 1649,-330.71 1649,-377 1649,-595 1649,-595 1649,-595 1649,-640.61 1679.86,-685.75 1702.25,-712.5"/>
<polygon fill="black" stroke="black" points="1699.7,-714.91 1708.88,-720.19 1705,-710.33 1699.7,-714.91"/>
</g>
<!-- mc -->
<g id="node15" class="node">
<title>mc</title>
<path fill="none" stroke="black" d="M1712,-176.73C1712,-178.53 1699.9,-180 1685,-180 1670.1,-180 1658,-178.53 1658,-176.73 1658,-176.73 1658,-147.27 1658,-147.27 1658,-145.47 1670.1,-144 1685,-144 1699.9,-144 1712,-145.47 1712,-147.27 1712,-147.27 1712,-176.73 1712,-176.73"/>
<path fill="none" stroke="black" d="M1712,-176.73C1712,-174.92 1699.9,-173.45 1685,-173.45 1670.1,-173.45 1658,-174.92 1658,-176.73"/>
<text text-anchor="middle" x="1685" y="-157.8" font-family="Times,serif" font-size="14.00">mc</text>
</g>
<!-- dh&#45;&gt;mc -->
<g id="edge17" class="edge">
<title>dh&#45;&gt;mc</title>
<path fill="none" stroke="black" d="M1685,-215.7C1685,-207.98 1685,-198.71 1685,-190.11"/>
<polygon fill="black" stroke="black" points="1688.5,-190.1 1685,-180.1 1681.5,-190.1 1688.5,-190.1"/>
</g>
<!-- hj -->
<g id="node16" class="node">
<title>hj</title>
<path fill="none" stroke="black" d="M1826,-536.73C1826,-538.53 1813.9,-540 1799,-540 1784.1,-540 1772,-538.53 1772,-536.73 1772,-536.73 1772,-507.27 1772,-507.27 1772,-505.47 1784.1,-504 1799,-504 1813.9,-504 1826,-505.47 1826,-507.27 1826,-507.27 1826,-536.73 1826,-536.73"/>
<path fill="none" stroke="black" d="M1826,-536.73C1826,-534.92 1813.9,-533.45 1799,-533.45 1784.1,-533.45 1772,-534.92 1772,-536.73"/>
<text text-anchor="middle" x="1799" y="-517.8" font-family="Times,serif" font-size="14.00">hj</text>
</g>
<!-- jv&#45;&gt;hj -->
<g id="edge18" class="edge">
<title>jv&#45;&gt;hj</title>
<path fill="none" stroke="black" d="M1730.93,-719.85C1743.79,-682.68 1774.3,-594.44 1789.73,-549.82"/>
<polygon fill="black" stroke="black" points="1793.08,-550.83 1793.04,-540.23 1786.47,-548.54 1793.08,-550.83"/>
</g>
<!-- rc -->
<g id="node17" class="node">
<title>rc</title>
<path fill="none" stroke="black" d="M1845,-608.73C1845,-610.53 1832.9,-612 1818,-612 1803.1,-612 1791,-610.53 1791,-608.73 1791,-608.73 1791,-579.27 1791,-579.27 1791,-577.47 1803.1,-576 1818,-576 1832.9,-576 1845,-577.47 1845,-579.27 1845,-579.27 1845,-608.73 1845,-608.73"/>
<path fill="none" stroke="black" d="M1845,-608.73C1845,-606.92 1832.9,-605.45 1818,-605.45 1803.1,-605.45 1791,-606.92 1791,-608.73"/>
<text text-anchor="middle" x="1818" y="-589.8" font-family="Times,serif" font-size="14.00">rc</text>
</g>
<!-- jv&#45;&gt;rc -->
<g id="edge19" class="edge">
<title>jv&#45;&gt;rc</title>
<path fill="none" stroke="black" d="M1742,-722.49C1752.99,-712.49 1767.05,-698.43 1777,-684 1790.37,-664.62 1801.26,-640.19 1808.45,-621.83"/>
<polygon fill="black" stroke="black" points="1811.78,-622.91 1812.06,-612.32 1805.24,-620.43 1811.78,-622.91"/>
</g>
<!-- kt -->
<g id="node18" class="node">
<title>kt</title>
<path fill="none" stroke="black" d="M1752,-896.73C1752,-898.53 1739.9,-900 1725,-900 1710.1,-900 1698,-898.53 1698,-896.73 1698,-896.73 1698,-867.27 1698,-867.27 1698,-865.47 1710.1,-864 1725,-864 1739.9,-864 1752,-865.47 1752,-867.27 1752,-867.27 1752,-896.73 1752,-896.73"/>
<path fill="none" stroke="black" d="M1752,-896.73C1752,-894.92 1739.9,-893.45 1725,-893.45 1710.1,-893.45 1698,-894.92 1698,-896.73"/>
<text text-anchor="middle" x="1725" y="-877.8" font-family="Times,serif" font-size="14.00">kt</text>
</g>
<!-- jv&#45;&gt;kt -->
<g id="edge20" class="edge">
<title>jv&#45;&gt;kt</title>
<path fill="none" stroke="black" d="M1729.59,-756.19C1732.15,-780.42 1732.43,-824.89 1730.45,-853.68"/>
<polygon fill="black" stroke="black" points="1726.95,-853.61 1729.58,-863.87 1733.92,-854.21 1726.95,-853.61"/>
</g>
<!-- ln -->
<g id="node19" class="node">
<title>ln</title>
<polygon fill="none" stroke="black" points="1502.23,-648 1533.77,-648 1545,-684 1491,-684 1502.23,-648"/>
<text text-anchor="middle" x="1518" y="-661.8" font-family="Times,serif" font-size="14.00">ln</text>
</g>
<!-- jv&#45;&gt;ln -->
<g id="edge21" class="edge">
<title>jv&#45;&gt;ln</title>
<path fill="none" stroke="black" d="M1705.65,-731.4C1674.5,-722.25 1611.41,-703.19 1559,-684 1557.1,-683.3 1555.16,-682.57 1553.21,-681.82"/>
<polygon fill="black" stroke="black" points="1554.04,-678.39 1543.46,-677.94 1551.46,-684.89 1554.04,-678.39"/>
</g>
<!-- zp -->
<g id="node20" class="node">
<title>zp</title>
<path fill="none" stroke="black" d="M1921,-680.73C1921,-682.53 1908.9,-684 1894,-684 1879.1,-684 1867,-682.53 1867,-680.73 1867,-680.73 1867,-651.27 1867,-651.27 1867,-649.47 1879.1,-648 1894,-648 1908.9,-648 1921,-649.47 1921,-651.27 1921,-651.27 1921,-680.73 1921,-680.73"/>
<path fill="none" stroke="black" d="M1921,-680.73C1921,-678.92 1908.9,-677.45 1894,-677.45 1879.1,-677.45 1867,-678.92 1867,-680.73"/>
<text text-anchor="middle" x="1894" y="-661.8" font-family="Times,serif" font-size="14.00">zp</text>
</g>
<!-- jv&#45;&gt;zp -->
<g id="edge22" class="edge">
<title>jv&#45;&gt;zp</title>
<path fill="none" stroke="black" d="M1744.08,-729.1C1769.1,-718.75 1814.34,-700.02 1853,-684 1854.38,-683.43 1855.78,-682.85 1857.2,-682.26"/>
<polygon fill="black" stroke="black" points="1858.76,-685.4 1866.65,-678.34 1856.08,-678.94 1858.76,-685.4"/>
</g>
<!-- hf -->
<g id="node21" class="node">
<title>hf</title>
<path fill="none" stroke="black" d="M1769,-392.73C1769,-394.53 1756.9,-396 1742,-396 1727.1,-396 1715,-394.53 1715,-392.73 1715,-392.73 1715,-363.27 1715,-363.27 1715,-361.47 1727.1,-360 1742,-360 1756.9,-360 1769,-361.47 1769,-363.27 1769,-363.27 1769,-392.73 1769,-392.73"/>
<path fill="none" stroke="black" d="M1769,-392.73C1769,-390.92 1756.9,-389.45 1742,-389.45 1727.1,-389.45 1715,-390.92 1715,-392.73"/>
<text text-anchor="middle" x="1742" y="-373.8" font-family="Times,serif" font-size="14.00">hf</text>
</g>
<!-- jv&#45;&gt;hf -->
<g id="edge23" class="edge">
<title>jv&#45;&gt;hf</title>
<path fill="none" stroke="black" d="M1725,-719.95C1725,-693.29 1725,-640.11 1725,-595 1725,-595 1725,-595 1725,-521 1725,-480.93 1731.76,-434.95 1736.75,-406.43"/>
<polygon fill="black" stroke="black" points="1740.23,-406.87 1738.56,-396.41 1733.34,-405.63 1740.23,-406.87"/>
</g>
<!-- mc&#45;&gt;jv -->
<g id="edge56" class="edge">
<title>mc&#45;&gt;jv</title>
<path fill="none" stroke="black" d="M1712.26,-164.96C1779.71,-171.43 1949,-198.31 1949,-305 1949,-595 1949,-595 1949,-595 1949,-635.45 1957.98,-654.8 1930,-684 1906.08,-708.97 1806.62,-725.86 1755.55,-733.06"/>
<polygon fill="black" stroke="black" points="1754.86,-729.62 1745.43,-734.45 1755.82,-736.56 1754.86,-729.62"/>
</g>
<!-- lv -->
<g id="node22" class="node">
<title>lv</title>
<path fill="none" stroke="black" d="M1655,-104.73C1655,-106.53 1642.9,-108 1628,-108 1613.1,-108 1601,-106.53 1601,-104.73 1601,-104.73 1601,-75.27 1601,-75.27 1601,-73.47 1613.1,-72 1628,-72 1642.9,-72 1655,-73.47 1655,-75.27 1655,-75.27 1655,-104.73 1655,-104.73"/>
<path fill="none" stroke="black" d="M1655,-104.73C1655,-102.92 1642.9,-101.45 1628,-101.45 1613.1,-101.45 1601,-102.92 1601,-104.73"/>
<text text-anchor="middle" x="1628" y="-85.8" font-family="Times,serif" font-size="14.00">lv</text>
</g>
<!-- mc&#45;&gt;lv -->
<g id="edge57" class="edge">
<title>mc&#45;&gt;lv</title>
<path fill="none" stroke="black" d="M1670.91,-143.7C1664.08,-135.3 1655.74,-125.07 1648.24,-115.86"/>
<polygon fill="black" stroke="black" points="1650.96,-113.65 1641.93,-108.1 1645.53,-118.07 1650.96,-113.65"/>
</g>
<!-- vc -->
<g id="node57" class="node">
<title>vc</title>
<path fill="none" stroke="black" d="M1826,-464.73C1826,-466.53 1813.9,-468 1799,-468 1784.1,-468 1772,-466.53 1772,-464.73 1772,-464.73 1772,-435.27 1772,-435.27 1772,-433.47 1784.1,-432 1799,-432 1813.9,-432 1826,-433.47 1826,-435.27 1826,-435.27 1826,-464.73 1826,-464.73"/>
<path fill="none" stroke="black" d="M1826,-464.73C1826,-462.92 1813.9,-461.45 1799,-461.45 1784.1,-461.45 1772,-462.92 1772,-464.73"/>
<text text-anchor="middle" x="1799" y="-445.8" font-family="Times,serif" font-size="14.00">vc</text>
</g>
<!-- hj&#45;&gt;vc -->
<g id="edge90" class="edge">
<title>hj&#45;&gt;vc</title>
<path fill="none" stroke="black" d="M1799,-503.7C1799,-495.98 1799,-486.71 1799,-478.11"/>
<polygon fill="black" stroke="black" points="1802.5,-478.1 1799,-468.1 1795.5,-478.1 1802.5,-478.1"/>
</g>
<!-- rc&#45;&gt;hj -->
<g id="edge91" class="edge">
<title>rc&#45;&gt;hj</title>
<path fill="none" stroke="black" d="M1813.3,-575.7C1811.19,-567.9 1808.64,-558.51 1806.28,-549.83"/>
<polygon fill="black" stroke="black" points="1809.64,-548.84 1803.64,-540.1 1802.88,-550.67 1809.64,-548.84"/>
</g>
<!-- kt&#45;&gt;jv -->
<g id="edge60" class="edge">
<title>kt&#45;&gt;jv</title>
<path fill="none" stroke="black" d="M1720.42,-863.87C1717.86,-839.67 1717.57,-795.21 1719.54,-766.39"/>
<polygon fill="black" stroke="black" points="1723.05,-766.45 1720.41,-756.19 1716.07,-765.86 1723.05,-766.45"/>
</g>
<!-- mt -->
<g id="node33" class="node">
<title>mt</title>
<path fill="none" stroke="black" d="M1816,-824.73C1816,-826.53 1803.9,-828 1789,-828 1774.1,-828 1762,-826.53 1762,-824.73 1762,-824.73 1762,-795.27 1762,-795.27 1762,-793.47 1774.1,-792 1789,-792 1803.9,-792 1816,-793.47 1816,-795.27 1816,-795.27 1816,-824.73 1816,-824.73"/>
<path fill="none" stroke="black" d="M1816,-824.73C1816,-822.92 1803.9,-821.45 1789,-821.45 1774.1,-821.45 1762,-822.92 1762,-824.73"/>
<text text-anchor="middle" x="1789" y="-805.8" font-family="Times,serif" font-size="14.00">mt</text>
</g>
<!-- kt&#45;&gt;mt -->
<g id="edge61" class="edge">
<title>kt&#45;&gt;mt</title>
<path fill="none" stroke="black" d="M1740.49,-864.05C1748.24,-855.58 1757.76,-845.17 1766.31,-835.82"/>
<polygon fill="black" stroke="black" points="1769.04,-838.02 1773.21,-828.28 1763.87,-833.29 1769.04,-838.02"/>
</g>
<!-- ln&#45;&gt;kj -->
<g id="edge39" class="edge">
<title>ln&#45;&gt;kj</title>
<path fill="none" stroke="black" d="M1500.17,-652.93C1470.31,-633.35 1407.69,-594.97 1349,-576 1226.62,-536.45 1072.31,-526.4 1006.33,-523.85"/>
<polygon fill="black" stroke="black" points="1006.27,-520.35 996.15,-523.5 1006.02,-527.35 1006.27,-520.35"/>
</g>
<!-- zp&#45;&gt;rc -->
<g id="edge38" class="edge">
<title>zp&#45;&gt;rc</title>
<path fill="none" stroke="black" d="M1875.6,-648.05C1866.08,-639.28 1854.3,-628.43 1843.87,-618.83"/>
<polygon fill="black" stroke="black" points="1845.95,-615.99 1836.23,-611.79 1841.21,-621.14 1845.95,-615.99"/>
</g>
<!-- hf&#45;&gt;nm -->
<g id="edge87" class="edge">
<title>hf&#45;&gt;nm</title>
<path fill="none" stroke="black" d="M1732.61,-359.7C1728.24,-351.64 1722.94,-341.89 1718.1,-332.98"/>
<polygon fill="black" stroke="black" points="1721.13,-331.22 1713.29,-324.1 1714.98,-334.56 1721.13,-331.22"/>
</g>
<!-- lv&#45;&gt;jv -->
<g id="edge24" class="edge">
<title>lv&#45;&gt;jv</title>
<path fill="none" stroke="black" d="M1624.56,-108.41C1619.59,-135.1 1611,-187.81 1611,-233 1611,-595 1611,-595 1611,-595 1611,-650.72 1665.04,-697.02 1698.7,-720.47"/>
<polygon fill="black" stroke="black" points="1696.94,-723.5 1707.19,-726.19 1700.86,-717.7 1696.94,-723.5"/>
</g>
<!-- tg -->
<g id="node23" class="node">
<title>tg</title>
<path fill="none" stroke="black" d="M1627,-32.73C1627,-34.53 1614.9,-36 1600,-36 1585.1,-36 1573,-34.53 1573,-32.73 1573,-32.73 1573,-3.27 1573,-3.27 1573,-1.47 1585.1,0 1600,0 1614.9,0 1627,-1.47 1627,-3.27 1627,-3.27 1627,-32.73 1627,-32.73"/>
<path fill="none" stroke="black" d="M1627,-32.73C1627,-30.92 1614.9,-29.45 1600,-29.45 1585.1,-29.45 1573,-30.92 1573,-32.73"/>
<text text-anchor="middle" x="1600" y="-13.8" font-family="Times,serif" font-size="14.00">tg</text>
</g>
<!-- lv&#45;&gt;tg -->
<g id="edge25" class="edge">
<title>lv&#45;&gt;tg</title>
<path fill="none" stroke="black" d="M1621.08,-71.7C1617.93,-63.81 1614.12,-54.3 1610.62,-45.55"/>
<polygon fill="black" stroke="black" points="1613.81,-44.09 1606.84,-36.1 1607.31,-46.69 1613.81,-44.09"/>
</g>
<!-- tg&#45;&gt;jv -->
<g id="edge26" class="edge">
<title>tg&#45;&gt;jv</title>
<path fill="none" stroke="black" d="M1594.54,-36.29C1586.65,-62.82 1573,-115.33 1573,-161 1573,-595 1573,-595 1573,-595 1573,-640.37 1590.4,-652.45 1623,-684 1643.89,-704.22 1674.04,-718.59 1696.14,-727.22"/>
<polygon fill="black" stroke="black" points="1695.08,-730.56 1705.67,-730.78 1697.53,-724 1695.08,-730.56"/>
</g>
<!-- dg -->
<g id="node24" class="node">
<title>dg</title>
<path fill="none" stroke="black" d="M1359,-680.73C1359,-682.53 1346.9,-684 1332,-684 1317.1,-684 1305,-682.53 1305,-680.73 1305,-680.73 1305,-651.27 1305,-651.27 1305,-649.47 1317.1,-648 1332,-648 1346.9,-648 1359,-649.47 1359,-651.27 1359,-651.27 1359,-680.73 1359,-680.73"/>
<path fill="none" stroke="black" d="M1359,-680.73C1359,-678.92 1346.9,-677.45 1332,-677.45 1317.1,-677.45 1305,-678.92 1305,-680.73"/>
<text text-anchor="middle" x="1332" y="-661.8" font-family="Times,serif" font-size="14.00">dg</text>
</g>
<!-- tm -->
<g id="node25" class="node">
<title>tm</title>
<path fill="none" stroke="black" d="M1340,-608.73C1340,-610.53 1327.9,-612 1313,-612 1298.1,-612 1286,-610.53 1286,-608.73 1286,-608.73 1286,-579.27 1286,-579.27 1286,-577.47 1298.1,-576 1313,-576 1327.9,-576 1340,-577.47 1340,-579.27 1340,-579.27 1340,-608.73 1340,-608.73"/>
<path fill="none" stroke="black" d="M1340,-608.73C1340,-606.92 1327.9,-605.45 1313,-605.45 1298.1,-605.45 1286,-606.92 1286,-608.73"/>
<text text-anchor="middle" x="1313" y="-589.8" font-family="Times,serif" font-size="14.00">tm</text>
</g>
<!-- dg&#45;&gt;tm -->
<g id="edge27" class="edge">
<title>dg&#45;&gt;tm</title>
<path fill="none" stroke="black" d="M1327.3,-647.7C1325.19,-639.9 1322.64,-630.51 1320.28,-621.83"/>
<polygon fill="black" stroke="black" points="1323.64,-620.84 1317.64,-612.1 1316.88,-622.67 1323.64,-620.84"/>
</g>
<!-- jm -->
<g id="node26" class="node">
<title>jm</title>
<polygon fill="none" stroke="black" points="1202.45,-792 1237.55,-792 1250.05,-828 1189.95,-828 1202.45,-792"/>
<text text-anchor="middle" x="1220" y="-805.8" font-family="Times,serif" font-size="14.00">jm</text>
</g>
<!-- dg&#45;&gt;jm -->
<g id="edge28" class="edge">
<title>dg&#45;&gt;jm</title>
<path fill="none" stroke="black" d="M1326.95,-684.13C1320.73,-703.15 1308.77,-734.05 1291,-756 1279.22,-770.55 1262.59,-783.25 1248.38,-792.57"/>
<polygon fill="black" stroke="black" points="1246.5,-789.61 1239.92,-797.91 1250.24,-795.53 1246.5,-789.61"/>
</g>
<!-- mh -->
<g id="node27" class="node">
<title>mh</title>
<path fill="none" stroke="black" d="M1340,-536.73C1340,-538.53 1327.9,-540 1313,-540 1298.1,-540 1286,-538.53 1286,-536.73 1286,-536.73 1286,-507.27 1286,-507.27 1286,-505.47 1298.1,-504 1313,-504 1327.9,-504 1340,-505.47 1340,-507.27 1340,-507.27 1340,-536.73 1340,-536.73"/>
<path fill="none" stroke="black" d="M1340,-536.73C1340,-534.92 1327.9,-533.45 1313,-533.45 1298.1,-533.45 1286,-534.92 1286,-536.73"/>
<text text-anchor="middle" x="1313" y="-517.8" font-family="Times,serif" font-size="14.00">mh</text>
</g>
<!-- tm&#45;&gt;mh -->
<g id="edge29" class="edge">
<title>tm&#45;&gt;mh</title>
<path fill="none" stroke="black" d="M1313,-575.7C1313,-567.98 1313,-558.71 1313,-550.11"/>
<polygon fill="black" stroke="black" points="1316.5,-550.1 1313,-540.1 1309.5,-550.1 1316.5,-550.1"/>
</g>
<!-- jm&#45;&gt;tm -->
<g id="edge30" class="edge">
<title>jm&#45;&gt;tm</title>
<path fill="none" stroke="black" d="M1231.91,-791.84C1238.63,-781.7 1246.88,-768.45 1253,-756 1264.93,-731.73 1290.05,-661.09 1303.7,-621.93"/>
<polygon fill="black" stroke="black" points="1307.09,-622.83 1307.07,-612.24 1300.48,-620.54 1307.09,-622.83"/>
</g>
<!-- pb -->
<g id="node28" class="node">
<title>pb</title>
<path fill="none" stroke="black" d="M1245,-392.73C1245,-394.53 1232.9,-396 1218,-396 1203.1,-396 1191,-394.53 1191,-392.73 1191,-392.73 1191,-363.27 1191,-363.27 1191,-361.47 1203.1,-360 1218,-360 1232.9,-360 1245,-361.47 1245,-363.27 1245,-363.27 1245,-392.73 1245,-392.73"/>
<path fill="none" stroke="black" d="M1245,-392.73C1245,-390.92 1232.9,-389.45 1218,-389.45 1203.1,-389.45 1191,-390.92 1191,-392.73"/>
<text text-anchor="middle" x="1218" y="-373.8" font-family="Times,serif" font-size="14.00">pb</text>
</g>
<!-- jm&#45;&gt;pb -->
<g id="edge31" class="edge">
<title>jm&#45;&gt;pb</title>
<path fill="none" stroke="black" d="M1216.16,-791.61C1210.6,-764.94 1201,-712.27 1201,-667 1201,-667 1201,-667 1201,-521 1201,-480.93 1207.76,-434.95 1212.75,-406.43"/>
<polygon fill="black" stroke="black" points="1216.23,-406.87 1214.56,-396.41 1209.34,-405.63 1216.23,-406.87"/>
</g>
<!-- zx -->
<g id="node29" class="node">
<title>zx</title>
<polygon fill="none" stroke="black" points="976.36,-720 1009.64,-720 1021.5,-756 964.5,-756 976.36,-720"/>
<text text-anchor="middle" x="993" y="-733.8" font-family="Times,serif" font-size="14.00">zx</text>
</g>
<!-- jm&#45;&gt;zx -->
<g id="edge32" class="edge">
<title>jm&#45;&gt;zx</title>
<path fill="none" stroke="black" d="M1198.41,-803.61C1163.65,-794.75 1093.28,-776.08 1035,-756 1033.16,-755.37 1031.28,-754.7 1029.39,-754"/>
<polygon fill="black" stroke="black" points="1030.54,-750.69 1019.95,-750.4 1028.05,-757.23 1030.54,-750.69"/>
</g>
<!-- mk -->
<g id="node30" class="node">
<title>mk</title>
<path fill="none" stroke="black" d="M1283,-464.73C1283,-466.53 1270.9,-468 1256,-468 1241.1,-468 1229,-466.53 1229,-464.73 1229,-464.73 1229,-435.27 1229,-435.27 1229,-433.47 1241.1,-432 1256,-432 1270.9,-432 1283,-433.47 1283,-435.27 1283,-435.27 1283,-464.73 1283,-464.73"/>
<path fill="none" stroke="black" d="M1283,-464.73C1283,-462.92 1270.9,-461.45 1256,-461.45 1241.1,-461.45 1229,-462.92 1229,-464.73"/>
<text text-anchor="middle" x="1256" y="-445.8" font-family="Times,serif" font-size="14.00">mk</text>
</g>
<!-- jm&#45;&gt;mk -->
<g id="edge33" class="edge">
<title>jm&#45;&gt;mk</title>
<path fill="none" stroke="black" d="M1223.84,-791.61C1229.4,-764.94 1239,-712.27 1239,-667 1239,-667 1239,-667 1239,-593 1239,-552.93 1245.76,-506.95 1250.75,-478.43"/>
<polygon fill="black" stroke="black" points="1254.23,-478.87 1252.56,-468.41 1247.34,-477.63 1254.23,-478.87"/>
</g>
<!-- xv -->
<g id="node31" class="node">
<title>xv</title>
<path fill="none" stroke="black" d="M1247,-896.73C1247,-898.53 1234.9,-900 1220,-900 1205.1,-900 1193,-898.53 1193,-896.73 1193,-896.73 1193,-867.27 1193,-867.27 1193,-865.47 1205.1,-864 1220,-864 1234.9,-864 1247,-865.47 1247,-867.27 1247,-867.27 1247,-896.73 1247,-896.73"/>
<path fill="none" stroke="black" d="M1247,-896.73C1247,-894.92 1234.9,-893.45 1220,-893.45 1205.1,-893.45 1193,-894.92 1193,-896.73"/>
<text text-anchor="middle" x="1220" y="-877.8" font-family="Times,serif" font-size="14.00">xv</text>
</g>
<!-- jm&#45;&gt;xv -->
<g id="edge34" class="edge">
<title>jm&#45;&gt;xv</title>
<path fill="none" stroke="black" d="M1225.9,-828.1C1226.7,-835.79 1226.94,-845.05 1226.6,-853.67"/>
<polygon fill="black" stroke="black" points="1223.11,-853.48 1225.92,-863.7 1230.09,-853.96 1223.11,-853.48"/>
</g>
<!-- nd -->
<g id="node32" class="node">
<title>nd</title>
<path fill="none" stroke="black" d="M1435,-752.73C1435,-754.53 1422.9,-756 1408,-756 1393.1,-756 1381,-754.53 1381,-752.73 1381,-752.73 1381,-723.27 1381,-723.27 1381,-721.47 1393.1,-720 1408,-720 1422.9,-720 1435,-721.47 1435,-723.27 1435,-723.27 1435,-752.73 1435,-752.73"/>
<path fill="none" stroke="black" d="M1435,-752.73C1435,-750.92 1422.9,-749.45 1408,-749.45 1393.1,-749.45 1381,-750.92 1381,-752.73"/>
<text text-anchor="middle" x="1408" y="-733.8" font-family="Times,serif" font-size="14.00">nd</text>
</g>
<!-- jm&#45;&gt;nd -->
<g id="edge35" class="edge">
<title>jm&#45;&gt;nd</title>
<path fill="none" stroke="black" d="M1241.05,-801.76C1269.69,-791.83 1322.48,-773.25 1367,-756 1368.39,-755.46 1369.81,-754.91 1371.24,-754.34"/>
<polygon fill="black" stroke="black" points="1372.76,-757.5 1380.72,-750.52 1370.14,-751.01 1372.76,-757.5"/>
</g>
<!-- mh&#45;&gt;jm -->
<g id="edge108" class="edge">
<title>mh&#45;&gt;jm</title>
<path fill="none" stroke="black" d="M1326.59,-540.35C1347.94,-569.8 1385.23,-631.52 1368,-684 1355.6,-721.75 1344.81,-729.72 1315,-756 1295.64,-773.07 1269.88,-787.01 1250.07,-796.31"/>
<polygon fill="black" stroke="black" points="1248.53,-793.16 1240.88,-800.49 1251.43,-799.54 1248.53,-793.16"/>
</g>
<!-- mh&#45;&gt;mk -->
<g id="edge109" class="edge">
<title>mh&#45;&gt;mk</title>
<path fill="none" stroke="black" d="M1298.91,-503.7C1292.08,-495.3 1283.74,-485.07 1276.24,-475.86"/>
<polygon fill="black" stroke="black" points="1278.96,-473.65 1269.93,-468.1 1273.53,-478.07 1278.96,-473.65"/>
</g>
<!-- tp -->
<g id="node49" class="node">
<title>tp</title>
<path fill="none" stroke="black" d="M1226,-320.73C1226,-322.53 1213.9,-324 1199,-324 1184.1,-324 1172,-322.53 1172,-320.73 1172,-320.73 1172,-291.27 1172,-291.27 1172,-289.47 1184.1,-288 1199,-288 1213.9,-288 1226,-289.47 1226,-291.27 1226,-291.27 1226,-320.73 1226,-320.73"/>
<path fill="none" stroke="black" d="M1226,-320.73C1226,-318.92 1213.9,-317.45 1199,-317.45 1184.1,-317.45 1172,-318.92 1172,-320.73"/>
<text text-anchor="middle" x="1199" y="-301.8" font-family="Times,serif" font-size="14.00">tp</text>
</g>
<!-- pb&#45;&gt;tp -->
<g id="edge100" class="edge">
<title>pb&#45;&gt;tp</title>
<path fill="none" stroke="black" d="M1213.3,-359.7C1211.19,-351.9 1208.64,-342.51 1206.28,-333.83"/>
<polygon fill="black" stroke="black" points="1209.64,-332.84 1203.64,-324.1 1202.88,-334.67 1209.64,-332.84"/>
</g>
<!-- zx&#45;&gt;kj -->
<g id="edge96" class="edge">
<title>zx&#45;&gt;kj</title>
<path fill="none" stroke="black" d="M991.48,-719.85C988.19,-682.83 980.41,-595.18 976.43,-550.39"/>
<polygon fill="black" stroke="black" points="979.9,-549.88 975.53,-540.23 972.93,-550.5 979.9,-549.88"/>
</g>
<!-- mk&#45;&gt;pb -->
<g id="edge105" class="edge">
<title>mk&#45;&gt;pb</title>
<path fill="none" stroke="black" d="M1246.61,-431.7C1242.24,-423.64 1236.94,-413.89 1232.1,-404.98"/>
<polygon fill="black" stroke="black" points="1235.13,-403.22 1227.29,-396.1 1228.98,-406.56 1235.13,-403.22"/>
</g>
<!-- xv&#45;&gt;jm -->
<g id="edge85" class="edge">
<title>xv&#45;&gt;jm</title>
<path fill="none" stroke="black" d="M1214.08,-863.7C1213.29,-855.98 1213.06,-846.71 1213.4,-838.11"/>
<polygon fill="black" stroke="black" points="1216.9,-838.32 1214.1,-828.1 1209.92,-837.84 1216.9,-838.32"/>
</g>
<!-- xv&#45;&gt;nd -->
<g id="edge86" class="edge">
<title>xv&#45;&gt;nd</title>
<path fill="none" stroke="black" d="M1241.57,-864.71C1275.19,-839.31 1340.19,-790.22 1378.25,-761.47"/>
<polygon fill="black" stroke="black" points="1380.53,-764.14 1386.4,-755.32 1376.31,-758.55 1380.53,-764.14"/>
</g>
<!-- nd&#45;&gt;dg -->
<g id="edge78" class="edge">
<title>nd&#45;&gt;dg</title>
<path fill="none" stroke="black" d="M1389.6,-720.05C1380.08,-711.28 1368.3,-700.43 1357.87,-690.83"/>
<polygon fill="black" stroke="black" points="1359.95,-687.99 1350.23,-683.79 1355.21,-693.14 1359.95,-687.99"/>
</g>
<!-- mt&#45;&gt;jv -->
<g id="edge36" class="edge">
<title>mt&#45;&gt;jv</title>
<path fill="none" stroke="black" d="M1773.51,-792.05C1765.76,-783.58 1756.24,-773.17 1747.69,-763.82"/>
<polygon fill="black" stroke="black" points="1750.13,-761.29 1740.79,-756.28 1744.96,-766.02 1750.13,-761.29"/>
</g>
<!-- mt&#45;&gt;zp -->
<g id="edge37" class="edge">
<title>mt&#45;&gt;zp</title>
<path fill="none" stroke="black" d="M1801.67,-791.87C1819.95,-767.14 1853.89,-721.24 1875.14,-692.51"/>
<polygon fill="black" stroke="black" points="1878.16,-694.31 1881.29,-684.19 1872.53,-690.15 1878.16,-694.31"/>
</g>
<!-- dr -->
<g id="node35" class="node">
<title>dr</title>
<polygon fill="none" stroke="black" points="884.23,-576 915.77,-576 927,-612 873,-612 884.23,-576"/>
<text text-anchor="middle" x="900" y="-589.8" font-family="Times,serif" font-size="14.00">dr</text>
</g>
<!-- dr&#45;&gt;kj -->
<g id="edge41" class="edge">
<title>dr&#45;&gt;kj</title>
<path fill="none" stroke="black" d="M916.42,-577.46C925.81,-568.58 937.79,-557.25 948.39,-547.23"/>
<polygon fill="black" stroke="black" points="950.95,-549.63 955.81,-540.21 946.14,-544.54 950.95,-549.63"/>
</g>
<!-- dx -->
<g id="node36" class="node">
<title>dx</title>
<path fill="none" stroke="black" d="M667,-320.73C667,-322.53 654.9,-324 640,-324 625.1,-324 613,-322.53 613,-320.73 613,-320.73 613,-291.27 613,-291.27 613,-289.47 625.1,-288 640,-288 654.9,-288 667,-289.47 667,-291.27 667,-291.27 667,-320.73 667,-320.73"/>
<path fill="none" stroke="black" d="M667,-320.73C667,-318.92 654.9,-317.45 640,-317.45 625.1,-317.45 613,-318.92 613,-320.73"/>
<text text-anchor="middle" x="640" y="-301.8" font-family="Times,serif" font-size="14.00">dx</text>
</g>
<!-- ts -->
<g id="node37" class="node">
<title>ts</title>
<path fill="none" stroke="black" d="M667,-248.73C667,-250.53 654.9,-252 640,-252 625.1,-252 613,-250.53 613,-248.73 613,-248.73 613,-219.27 613,-219.27 613,-217.47 625.1,-216 640,-216 654.9,-216 667,-217.47 667,-219.27 667,-219.27 667,-248.73 667,-248.73"/>
<path fill="none" stroke="black" d="M667,-248.73C667,-246.92 654.9,-245.45 640,-245.45 625.1,-245.45 613,-246.92 613,-248.73"/>
<text text-anchor="middle" x="640" y="-229.8" font-family="Times,serif" font-size="14.00">ts</text>
</g>
<!-- dx&#45;&gt;ts -->
<g id="edge42" class="edge">
<title>dx&#45;&gt;ts</title>
<path fill="none" stroke="black" d="M640,-287.7C640,-279.98 640,-270.71 640,-262.11"/>
<polygon fill="black" stroke="black" points="643.5,-262.1 640,-252.1 636.5,-262.1 643.5,-262.1"/>
</g>
<!-- ng -->
<g id="node38" class="node">
<title>ng</title>
<path fill="none" stroke="black" d="M610,-176.73C610,-178.53 597.9,-180 583,-180 568.1,-180 556,-178.53 556,-176.73 556,-176.73 556,-147.27 556,-147.27 556,-145.47 568.1,-144 583,-144 597.9,-144 610,-145.47 610,-147.27 610,-147.27 610,-176.73 610,-176.73"/>
<path fill="none" stroke="black" d="M610,-176.73C610,-174.92 597.9,-173.45 583,-173.45 568.1,-173.45 556,-174.92 556,-176.73"/>
<text text-anchor="middle" x="583" y="-157.8" font-family="Times,serif" font-size="14.00">ng</text>
</g>
<!-- ts&#45;&gt;ng -->
<g id="edge43" class="edge">
<title>ts&#45;&gt;ng</title>
<path fill="none" stroke="black" d="M625.91,-215.7C619.08,-207.3 610.74,-197.07 603.24,-187.86"/>
<polygon fill="black" stroke="black" points="605.96,-185.65 596.93,-180.1 600.53,-190.07 605.96,-185.65"/>
</g>
<!-- qs -->
<g id="node39" class="node">
<title>qs</title>
<polygon fill="none" stroke="black" points="687.65,-648 720.35,-648 732,-684 676,-684 687.65,-648"/>
<text text-anchor="middle" x="704" y="-661.8" font-family="Times,serif" font-size="14.00">qs</text>
</g>
<!-- ts&#45;&gt;qs -->
<g id="edge44" class="edge">
<title>ts&#45;&gt;qs</title>
<path fill="none" stroke="black" d="M667.16,-245.93C710.39,-265.32 790,-310.12 790,-377 790,-451 790,-451 790,-451 790,-526.06 771.32,-544.26 739,-612 734.56,-621.31 728.69,-630.89 723.03,-639.3"/>
<polygon fill="black" stroke="black" points="720.11,-637.37 717.28,-647.58 725.86,-641.36 720.11,-637.37"/>
</g>
<!-- ng&#45;&gt;qs -->
<g id="edge73" class="edge">
<title>ng&#45;&gt;qs</title>
<path fill="none" stroke="black" d="M579.56,-180.41C574.59,-207.1 566,-259.81 566,-305 566,-523 566,-523 566,-523 566,-585.38 635.33,-630.67 675.71,-651.76"/>
<polygon fill="black" stroke="black" points="674.31,-654.97 684.81,-656.36 677.47,-648.72 674.31,-654.97"/>
</g>
<!-- lh -->
<g id="node47" class="node">
<title>lh</title>
<path fill="none" stroke="black" d="M572,-104.73C572,-106.53 559.9,-108 545,-108 530.1,-108 518,-106.53 518,-104.73 518,-104.73 518,-75.27 518,-75.27 518,-73.47 530.1,-72 545,-72 559.9,-72 572,-73.47 572,-75.27 572,-75.27 572,-104.73 572,-104.73"/>
<path fill="none" stroke="black" d="M572,-104.73C572,-102.92 559.9,-101.45 545,-101.45 530.1,-101.45 518,-102.92 518,-104.73"/>
<text text-anchor="middle" x="545" y="-85.8" font-family="Times,serif" font-size="14.00">lh</text>
</g>
<!-- ng&#45;&gt;lh -->
<g id="edge74" class="edge">
<title>ng&#45;&gt;lh</title>
<path fill="none" stroke="black" d="M573.61,-143.7C569.24,-135.64 563.94,-125.89 559.1,-116.98"/>
<polygon fill="black" stroke="black" points="562.13,-115.22 554.29,-108.1 555.98,-118.56 562.13,-115.22"/>
</g>
<!-- qs&#45;&gt;dr -->
<g id="edge45" class="edge">
<title>qs&#45;&gt;dr</title>
<path fill="none" stroke="black" d="M724.24,-659.16C754.87,-650.12 814.69,-631.73 864,-612 864.31,-611.87 864.63,-611.75 864.94,-611.62"/>
<polygon fill="black" stroke="black" points="866.4,-614.8 874.21,-607.64 863.64,-608.37 866.4,-614.8"/>
</g>
<!-- qs&#45;&gt;dx -->
<g id="edge46" class="edge">
<title>qs&#45;&gt;dx</title>
<path fill="none" stroke="black" d="M686.12,-651.9C657.36,-629.16 604,-579.39 604,-523 604,-523 604,-523 604,-449 604,-407.78 618.43,-361.83 629.02,-333.66"/>
<polygon fill="black" stroke="black" points="632.36,-334.72 632.71,-324.13 625.84,-332.19 632.36,-334.72"/>
</g>
<!-- kf -->
<g id="node40" class="node">
<title>kf</title>
<path fill="none" stroke="black" d="M705,-392.73C705,-394.53 692.9,-396 678,-396 663.1,-396 651,-394.53 651,-392.73 651,-392.73 651,-363.27 651,-363.27 651,-361.47 663.1,-360 678,-360 692.9,-360 705,-361.47 705,-363.27 705,-363.27 705,-392.73 705,-392.73"/>
<path fill="none" stroke="black" d="M705,-392.73C705,-390.92 692.9,-389.45 678,-389.45 663.1,-389.45 651,-390.92 651,-392.73"/>
<text text-anchor="middle" x="678" y="-373.8" font-family="Times,serif" font-size="14.00">kf</text>
</g>
<!-- qs&#45;&gt;kf -->
<g id="edge47" class="edge">
<title>qs&#45;&gt;kf</title>
<path fill="none" stroke="black" d="M710.67,-647.7C721.21,-618.3 739.83,-556.67 733,-504 728.74,-471.18 727.72,-462.12 714,-432 709.69,-422.53 703.72,-412.91 697.89,-404.51"/>
<polygon fill="black" stroke="black" points="700.62,-402.31 691.93,-396.25 694.94,-406.41 700.62,-402.31"/>
</g>
<!-- sc -->
<g id="node41" class="node">
<title>sc</title>
<path fill="none" stroke="black" d="M855,-608.73C855,-610.53 842.9,-612 828,-612 813.1,-612 801,-610.53 801,-608.73 801,-608.73 801,-579.27 801,-579.27 801,-577.47 813.1,-576 828,-576 842.9,-576 855,-577.47 855,-579.27 855,-579.27 855,-608.73 855,-608.73"/>
<path fill="none" stroke="black" d="M855,-608.73C855,-606.92 842.9,-605.45 828,-605.45 813.1,-605.45 801,-606.92 801,-608.73"/>
<text text-anchor="middle" x="828" y="-589.8" font-family="Times,serif" font-size="14.00">sc</text>
</g>
<!-- qs&#45;&gt;sc -->
<g id="edge48" class="edge">
<title>qs&#45;&gt;sc</title>
<path fill="none" stroke="black" d="M722.56,-654.52C740.73,-644.26 768.91,-628.36 791.56,-615.57"/>
<polygon fill="black" stroke="black" points="793.58,-618.45 800.57,-610.48 790.14,-612.35 793.58,-618.45"/>
</g>
<!-- rg -->
<g id="node42" class="node">
<title>rg</title>
<path fill="none" stroke="black" d="M763,-896.73C763,-898.53 750.9,-900 736,-900 721.1,-900 709,-898.53 709,-896.73 709,-896.73 709,-867.27 709,-867.27 709,-865.47 721.1,-864 736,-864 750.9,-864 763,-865.47 763,-867.27 763,-867.27 763,-896.73 763,-896.73"/>
<path fill="none" stroke="black" d="M763,-896.73C763,-894.92 750.9,-893.45 736,-893.45 721.1,-893.45 709,-894.92 709,-896.73"/>
<text text-anchor="middle" x="736" y="-877.8" font-family="Times,serif" font-size="14.00">rg</text>
</g>
<!-- qs&#45;&gt;rg -->
<g id="edge49" class="edge">
<title>qs&#45;&gt;rg</title>
<path fill="none" stroke="black" d="M710.46,-684.23C719.54,-721.32 732.91,-808.98 736.61,-853.71"/>
<polygon fill="black" stroke="black" points="733.12,-854.12 737.31,-863.85 740.11,-853.63 733.12,-854.12"/>
</g>
<!-- gl -->
<g id="node43" class="node">
<title>gl</title>
<path fill="none" stroke="black" d="M705,-464.73C705,-466.53 692.9,-468 678,-468 663.1,-468 651,-466.53 651,-464.73 651,-464.73 651,-435.27 651,-435.27 651,-433.47 663.1,-432 678,-432 692.9,-432 705,-433.47 705,-435.27 705,-435.27 705,-464.73 705,-464.73"/>
<path fill="none" stroke="black" d="M705,-464.73C705,-462.92 692.9,-461.45 678,-461.45 663.1,-461.45 651,-462.92 651,-464.73"/>
<text text-anchor="middle" x="678" y="-445.8" font-family="Times,serif" font-size="14.00">gl</text>
</g>
<!-- qs&#45;&gt;gl -->
<g id="edge50" class="edge">
<title>qs&#45;&gt;gl</title>
<path fill="none" stroke="black" d="M694.49,-647.87C679.44,-618.72 652.64,-557.45 661,-504 662.36,-495.31 664.9,-486.1 667.61,-477.84"/>
<polygon fill="black" stroke="black" points="670.94,-478.93 670.93,-468.33 664.33,-476.62 670.94,-478.93"/>
</g>
<!-- kf&#45;&gt;dx -->
<g id="edge51" class="edge">
<title>kf&#45;&gt;dx</title>
<path fill="none" stroke="black" d="M668.61,-359.7C664.24,-351.64 658.94,-341.89 654.1,-332.98"/>
<polygon fill="black" stroke="black" points="657.13,-331.22 649.29,-324.1 650.98,-334.56 657.13,-331.22"/>
</g>
<!-- mv -->
<g id="node44" class="node">
<title>mv</title>
<path fill="none" stroke="black" d="M724,-536.73C724,-538.53 711.9,-540 697,-540 682.1,-540 670,-538.53 670,-536.73 670,-536.73 670,-507.27 670,-507.27 670,-505.47 682.1,-504 697,-504 711.9,-504 724,-505.47 724,-507.27 724,-507.27 724,-536.73 724,-536.73"/>
<path fill="none" stroke="black" d="M724,-536.73C724,-534.92 711.9,-533.45 697,-533.45 682.1,-533.45 670,-534.92 670,-536.73"/>
<text text-anchor="middle" x="697" y="-517.8" font-family="Times,serif" font-size="14.00">mv</text>
</g>
<!-- sc&#45;&gt;mv -->
<g id="edge52" class="edge">
<title>sc&#45;&gt;mv</title>
<path fill="none" stroke="black" d="M800.86,-578.5C781.18,-567.98 754.38,-553.66 732.94,-542.2"/>
<polygon fill="black" stroke="black" points="734.58,-539.11 724.11,-537.49 731.28,-545.29 734.58,-539.11"/>
</g>
<!-- rg&#45;&gt;qs -->
<g id="edge53" class="edge">
<title>rg&#45;&gt;qs</title>
<path fill="none" stroke="black" d="M729.56,-863.85C720.49,-826.83 707.11,-739.18 703.4,-694.39"/>
<polygon fill="black" stroke="black" points="706.88,-693.96 702.69,-684.23 699.9,-694.45 706.88,-693.96"/>
</g>
<!-- vq -->
<g id="node45" class="node">
<title>vq</title>
<path fill="none" stroke="black" d="M795,-824.73C795,-826.53 782.9,-828 768,-828 753.1,-828 741,-826.53 741,-824.73 741,-824.73 741,-795.27 741,-795.27 741,-793.47 753.1,-792 768,-792 782.9,-792 795,-793.47 795,-795.27 795,-795.27 795,-824.73 795,-824.73"/>
<path fill="none" stroke="black" d="M795,-824.73C795,-822.92 782.9,-821.45 768,-821.45 753.1,-821.45 741,-822.92 741,-824.73"/>
<text text-anchor="middle" x="768" y="-805.8" font-family="Times,serif" font-size="14.00">vq</text>
</g>
<!-- rg&#45;&gt;vq -->
<g id="edge54" class="edge">
<title>rg&#45;&gt;vq</title>
<path fill="none" stroke="black" d="M743.91,-863.7C747.55,-855.73 751.95,-846.1 755.99,-837.26"/>
<polygon fill="black" stroke="black" points="759.21,-838.65 760.18,-828.1 752.84,-835.74 759.21,-838.65"/>
</g>
<!-- gl&#45;&gt;kf -->
<g id="edge55" class="edge">
<title>gl&#45;&gt;kf</title>
<path fill="none" stroke="black" d="M678,-431.7C678,-423.98 678,-414.71 678,-406.11"/>
<polygon fill="black" stroke="black" points="681.5,-406.1 678,-396.1 674.5,-406.1 681.5,-406.1"/>
</g>
<!-- mv&#45;&gt;qs -->
<g id="edge71" class="edge">
<title>mv&#45;&gt;qs</title>
<path fill="none" stroke="black" d="M697.85,-540.19C699.04,-564.42 701.23,-608.89 702.65,-637.68"/>
<polygon fill="black" stroke="black" points="699.17,-638.06 703.16,-647.87 706.16,-637.71 699.17,-638.06"/>
</g>
<!-- mv&#45;&gt;gl -->
<g id="edge72" class="edge">
<title>mv&#45;&gt;gl</title>
<path fill="none" stroke="black" d="M692.3,-503.7C690.19,-495.9 687.64,-486.51 685.28,-477.83"/>
<polygon fill="black" stroke="black" points="688.64,-476.84 682.64,-468.1 681.88,-478.67 688.64,-476.84"/>
</g>
<!-- vq&#45;&gt;qs -->
<g id="edge58" class="edge">
<title>vq&#45;&gt;qs</title>
<path fill="none" stroke="black" d="M760.28,-791.87C749.28,-767.46 728.98,-722.43 716,-693.64"/>
<polygon fill="black" stroke="black" points="719.05,-691.87 711.75,-684.19 712.67,-694.74 719.05,-691.87"/>
</g>
<!-- bs -->
<g id="node46" class="node">
<title>bs</title>
<path fill="none" stroke="black" d="M833,-752.73C833,-754.53 820.9,-756 806,-756 791.1,-756 779,-754.53 779,-752.73 779,-752.73 779,-723.27 779,-723.27 779,-721.47 791.1,-720 806,-720 820.9,-720 833,-721.47 833,-723.27 833,-723.27 833,-752.73 833,-752.73"/>
<path fill="none" stroke="black" d="M833,-752.73C833,-750.92 820.9,-749.45 806,-749.45 791.1,-749.45 779,-750.92 779,-752.73"/>
<text text-anchor="middle" x="806" y="-733.8" font-family="Times,serif" font-size="14.00">bs</text>
</g>
<!-- vq&#45;&gt;bs -->
<g id="edge59" class="edge">
<title>vq&#45;&gt;bs</title>
<path fill="none" stroke="black" d="M777.39,-791.7C781.76,-783.64 787.06,-773.89 791.9,-764.98"/>
<polygon fill="black" stroke="black" points="795.02,-766.56 796.71,-756.1 788.87,-763.22 795.02,-766.56"/>
</g>
<!-- bs&#45;&gt;qs -->
<g id="edge88" class="edge">
<title>bs&#45;&gt;qs</title>
<path fill="none" stroke="black" d="M782.6,-720.94C769.23,-711.76 752.23,-700.1 737.47,-689.97"/>
<polygon fill="black" stroke="black" points="739.3,-686.98 729.07,-684.21 735.34,-692.75 739.3,-686.98"/>
</g>
<!-- bs&#45;&gt;sc -->
<g id="edge89" class="edge">
<title>bs&#45;&gt;sc</title>
<path fill="none" stroke="black" d="M808.65,-719.87C812.4,-695.67 819.29,-651.21 823.76,-622.39"/>
<polygon fill="black" stroke="black" points="827.26,-622.61 825.34,-612.19 820.35,-621.54 827.26,-622.61"/>
</g>
<!-- lh&#45;&gt;qs -->
<g id="edge62" class="edge">
<title>lh&#45;&gt;qs</title>
<path fill="none" stroke="black" d="M541.56,-108.41C536.59,-135.1 528,-187.81 528,-233 528,-523 528,-523 528,-523 528,-569.27 547.14,-581.57 582,-612 608.57,-635.19 646.86,-649.58 673.43,-657.41"/>
<polygon fill="black" stroke="black" points="672.76,-660.85 683.33,-660.18 674.65,-654.11 672.76,-660.85"/>
</g>
<!-- dl -->
<g id="node48" class="node">
<title>dl</title>
<path fill="none" stroke="black" d="M545,-32.73C545,-34.53 532.9,-36 518,-36 503.1,-36 491,-34.53 491,-32.73 491,-32.73 491,-3.27 491,-3.27 491,-1.47 503.1,0 518,0 532.9,0 545,-1.47 545,-3.27 545,-3.27 545,-32.73 545,-32.73"/>
<path fill="none" stroke="black" d="M545,-32.73C545,-30.92 532.9,-29.45 518,-29.45 503.1,-29.45 491,-30.92 491,-32.73"/>
<text text-anchor="middle" x="518" y="-13.8" font-family="Times,serif" font-size="14.00">dl</text>
</g>
<!-- lh&#45;&gt;dl -->
<g id="edge63" class="edge">
<title>lh&#45;&gt;dl</title>
<path fill="none" stroke="black" d="M538.33,-71.7C535.29,-63.81 531.62,-54.3 528.24,-45.55"/>
<polygon fill="black" stroke="black" points="531.46,-44.17 524.6,-36.1 524.93,-46.69 531.46,-44.17"/>
</g>
<!-- dl&#45;&gt;qs -->
<g id="edge64" class="edge">
<title>dl&#45;&gt;qs</title>
<path fill="none" stroke="black" d="M512.33,-36.27C504.15,-62.79 490,-115.27 490,-161 490,-523 490,-523 490,-523 490,-568.59 505.62,-583.25 541,-612 579.51,-643.29 637.01,-656.31 672.42,-661.58"/>
<polygon fill="black" stroke="black" points="672.27,-665.09 682.66,-662.98 673.22,-658.15 672.27,-665.09"/>
</g>
<!-- tp&#45;&gt;jm -->
<g id="edge65" class="edge">
<title>tp&#45;&gt;jm</title>
<path fill="none" stroke="black" d="M1191.71,-324.13C1181.2,-350.47 1163,-402.71 1163,-449 1163,-667 1163,-667 1163,-667 1163,-710.2 1186,-755.81 1202.78,-783.34"/>
<polygon fill="black" stroke="black" points="1199.91,-785.35 1208.19,-791.96 1205.83,-781.63 1199.91,-785.35"/>
</g>
<!-- pf -->
<g id="node50" class="node">
<title>pf</title>
<path fill="none" stroke="black" d="M1226,-248.73C1226,-250.53 1213.9,-252 1199,-252 1184.1,-252 1172,-250.53 1172,-248.73 1172,-248.73 1172,-219.27 1172,-219.27 1172,-217.47 1184.1,-216 1199,-216 1213.9,-216 1226,-217.47 1226,-219.27 1226,-219.27 1226,-248.73 1226,-248.73"/>
<path fill="none" stroke="black" d="M1226,-248.73C1226,-246.92 1213.9,-245.45 1199,-245.45 1184.1,-245.45 1172,-246.92 1172,-248.73"/>
<text text-anchor="middle" x="1199" y="-229.8" font-family="Times,serif" font-size="14.00">pf</text>
</g>
<!-- tp&#45;&gt;pf -->
<g id="edge66" class="edge">
<title>tp&#45;&gt;pf</title>
<path fill="none" stroke="black" d="M1199,-287.7C1199,-279.98 1199,-270.71 1199,-262.11"/>
<polygon fill="black" stroke="black" points="1202.5,-262.1 1199,-252.1 1195.5,-262.1 1202.5,-262.1"/>
</g>
<!-- pf&#45;&gt;jm -->
<g id="edge67" class="edge">
<title>pf&#45;&gt;jm</title>
<path fill="none" stroke="black" d="M1226.26,-236.96C1293.71,-243.43 1463,-270.31 1463,-377 1463,-667 1463,-667 1463,-667 1463,-707.45 1472.28,-727.09 1444,-756 1417.62,-782.97 1308.28,-798.99 1252.72,-805.54"/>
<polygon fill="black" stroke="black" points="1252.22,-802.07 1242.69,-806.69 1253.02,-809.03 1252.22,-802.07"/>
</g>
<!-- mf -->
<g id="node51" class="node">
<title>mf</title>
<path fill="none" stroke="black" d="M1169,-176.73C1169,-178.53 1156.9,-180 1142,-180 1127.1,-180 1115,-178.53 1115,-176.73 1115,-176.73 1115,-147.27 1115,-147.27 1115,-145.47 1127.1,-144 1142,-144 1156.9,-144 1169,-145.47 1169,-147.27 1169,-147.27 1169,-176.73 1169,-176.73"/>
<path fill="none" stroke="black" d="M1169,-176.73C1169,-174.92 1156.9,-173.45 1142,-173.45 1127.1,-173.45 1115,-174.92 1115,-176.73"/>
<text text-anchor="middle" x="1142" y="-157.8" font-family="Times,serif" font-size="14.00">mf</text>
</g>
<!-- pf&#45;&gt;mf -->
<g id="edge68" class="edge">
<title>pf&#45;&gt;mf</title>
<path fill="none" stroke="black" d="M1184.91,-215.7C1178.08,-207.3 1169.74,-197.07 1162.24,-187.86"/>
<polygon fill="black" stroke="black" points="1164.96,-185.65 1155.93,-180.1 1159.53,-190.07 1164.96,-185.65"/>
</g>
<!-- mf&#45;&gt;jm -->
<g id="edge94" class="edge">
<title>mf&#45;&gt;jm</title>
<path fill="none" stroke="black" d="M1138.56,-180.41C1133.59,-207.1 1125,-259.81 1125,-305 1125,-667 1125,-667 1125,-667 1125,-716.62 1165.56,-762.02 1193.68,-787.53"/>
<polygon fill="black" stroke="black" points="1191.41,-790.2 1201.23,-794.19 1196.04,-784.95 1191.41,-790.2"/>
</g>
<!-- gv -->
<g id="node52" class="node">
<title>gv</title>
<path fill="none" stroke="black" d="M1131,-104.73C1131,-106.53 1118.9,-108 1104,-108 1089.1,-108 1077,-106.53 1077,-104.73 1077,-104.73 1077,-75.27 1077,-75.27 1077,-73.47 1089.1,-72 1104,-72 1118.9,-72 1131,-73.47 1131,-75.27 1131,-75.27 1131,-104.73 1131,-104.73"/>
<path fill="none" stroke="black" d="M1131,-104.73C1131,-102.92 1118.9,-101.45 1104,-101.45 1089.1,-101.45 1077,-102.92 1077,-104.73"/>
<text text-anchor="middle" x="1104" y="-85.8" font-family="Times,serif" font-size="14.00">gv</text>
</g>
<!-- mf&#45;&gt;gv -->
<g id="edge95" class="edge">
<title>mf&#45;&gt;gv</title>
<path fill="none" stroke="black" d="M1132.61,-143.7C1128.24,-135.64 1122.94,-125.89 1118.1,-116.98"/>
<polygon fill="black" stroke="black" points="1121.13,-115.22 1113.29,-108.1 1114.98,-118.56 1121.13,-115.22"/>
</g>
<!-- gv&#45;&gt;jm -->
<g id="edge75" class="edge">
<title>gv&#45;&gt;jm</title>
<path fill="none" stroke="black" d="M1100.56,-108.41C1095.59,-135.1 1087,-187.81 1087,-233 1087,-667 1087,-667 1087,-667 1087,-727.35 1151.79,-772.63 1190.93,-794.48"/>
<polygon fill="black" stroke="black" points="1189.34,-797.6 1199.8,-799.28 1192.67,-791.44 1189.34,-797.6"/>
</g>
<!-- km -->
<g id="node53" class="node">
<title>km</title>
<path fill="none" stroke="black" d="M1103,-32.73C1103,-34.53 1090.9,-36 1076,-36 1061.1,-36 1049,-34.53 1049,-32.73 1049,-32.73 1049,-3.27 1049,-3.27 1049,-1.47 1061.1,0 1076,0 1090.9,0 1103,-1.47 1103,-3.27 1103,-3.27 1103,-32.73 1103,-32.73"/>
<path fill="none" stroke="black" d="M1103,-32.73C1103,-30.92 1090.9,-29.45 1076,-29.45 1061.1,-29.45 1049,-30.92 1049,-32.73"/>
<text text-anchor="middle" x="1076" y="-13.8" font-family="Times,serif" font-size="14.00">km</text>
</g>
<!-- gv&#45;&gt;km -->
<g id="edge76" class="edge">
<title>gv&#45;&gt;km</title>
<path fill="none" stroke="black" d="M1097.08,-71.7C1093.93,-63.81 1090.12,-54.3 1086.62,-45.55"/>
<polygon fill="black" stroke="black" points="1089.81,-44.09 1082.84,-36.1 1083.31,-46.69 1089.81,-44.09"/>
</g>
<!-- km&#45;&gt;jm -->
<g id="edge77" class="edge">
<title>km&#45;&gt;jm</title>
<path fill="none" stroke="black" d="M1070.54,-36.29C1062.65,-62.82 1049,-115.33 1049,-161 1049,-667 1049,-667 1049,-667 1049,-713.04 1067.63,-725.37 1102,-756 1127.01,-778.29 1162.95,-792.6 1188.58,-800.66"/>
<polygon fill="black" stroke="black" points="1187.61,-804.03 1198.2,-803.55 1189.62,-797.32 1187.61,-804.03"/>
</g>
<!-- pn&#45;&gt;pr -->
<g id="edge81" class="edge">
<title>pn&#45;&gt;pr</title>
<path fill="none" stroke="black" d="M89.56,-252.41C84.59,-279.1 76,-331.81 76,-377 76,-811 76,-811 76,-811 76,-893.12 170.97,-952.56 219.36,-977.51"/>
<polygon fill="black" stroke="black" points="217.87,-980.67 228.37,-982.03 221.01,-974.42 217.87,-980.67"/>
</g>
<!-- cb -->
<g id="node55" class="node">
<title>cb</title>
<path fill="none" stroke="black" d="M82,-176.73C82,-178.53 69.9,-180 55,-180 40.1,-180 28,-178.53 28,-176.73 28,-176.73 28,-147.27 28,-147.27 28,-145.47 40.1,-144 55,-144 69.9,-144 82,-145.47 82,-147.27 82,-147.27 82,-176.73 82,-176.73"/>
<path fill="none" stroke="black" d="M82,-176.73C82,-174.92 69.9,-173.45 55,-173.45 40.1,-173.45 28,-174.92 28,-176.73"/>
<text text-anchor="middle" x="55" y="-157.8" font-family="Times,serif" font-size="14.00">cb</text>
</g>
<!-- pn&#45;&gt;cb -->
<g id="edge82" class="edge">
<title>pn&#45;&gt;cb</title>
<path fill="none" stroke="black" d="M83.61,-215.7C79.24,-207.64 73.94,-197.89 69.1,-188.98"/>
<polygon fill="black" stroke="black" points="72.13,-187.22 64.29,-180.1 65.98,-190.56 72.13,-187.22"/>
</g>
<!-- cb&#45;&gt;pr -->
<g id="edge98" class="edge">
<title>cb&#45;&gt;pr</title>
<path fill="none" stroke="black" d="M51.56,-180.41C46.59,-207.1 38,-259.81 38,-305 38,-811 38,-811 38,-811 38,-904.86 160.79,-960.31 218.13,-981.09"/>
<polygon fill="black" stroke="black" points="217.12,-984.45 227.71,-984.46 219.44,-977.84 217.12,-984.45"/>
</g>
<!-- tk -->
<g id="node58" class="node">
<title>tk</title>
<path fill="none" stroke="black" d="M55,-104.73C55,-106.53 42.9,-108 28,-108 13.1,-108 1,-106.53 1,-104.73 1,-104.73 1,-75.27 1,-75.27 1,-73.47 13.1,-72 28,-72 42.9,-72 55,-73.47 55,-75.27 55,-75.27 55,-104.73 55,-104.73"/>
<path fill="none" stroke="black" d="M55,-104.73C55,-102.92 42.9,-101.45 28,-101.45 13.1,-101.45 1,-102.92 1,-104.73"/>
<text text-anchor="middle" x="28" y="-85.8" font-family="Times,serif" font-size="14.00">tk</text>
</g>
<!-- cb&#45;&gt;tk -->
<g id="edge99" class="edge">
<title>cb&#45;&gt;tk</title>
<path fill="none" stroke="black" d="M48.33,-143.7C45.29,-135.81 41.62,-126.3 38.24,-117.55"/>
<polygon fill="black" stroke="black" points="41.46,-116.17 34.6,-108.1 34.93,-118.69 41.46,-116.17"/>
</g>
<!-- mx&#45;&gt;pr -->
<g id="edge92" class="edge">
<title>mx&#45;&gt;pr</title>
<path fill="none" stroke="black" d="M317.24,-756.08C310.61,-785.65 296,-848.19 280,-900 273.29,-921.75 264.39,-945.95 257.52,-963.86"/>
<polygon fill="black" stroke="black" points="254.19,-962.77 253.85,-973.36 260.72,-965.29 254.19,-962.77"/>
</g>
<!-- mx&#45;&gt;cl -->
<g id="edge93" class="edge">
<title>mx&#45;&gt;cl</title>
<path fill="none" stroke="black" d="M311.61,-719.7C307.24,-711.64 301.94,-701.89 297.1,-692.98"/>
<polygon fill="black" stroke="black" points="300.13,-691.22 292.29,-684.1 293.98,-694.56 300.13,-691.22"/>
</g>
<!-- vc&#45;&gt;jv -->
<g id="edge106" class="edge">
<title>vc&#45;&gt;jv</title>
<path fill="none" stroke="black" d="M1812.64,-468.36C1834.07,-497.85 1871.47,-559.6 1854,-612 1836.96,-663.11 1784.17,-702.16 1751.64,-722.16"/>
<polygon fill="black" stroke="black" points="1749.85,-719.15 1743.05,-727.29 1753.43,-725.17 1749.85,-719.15"/>
</g>
<!-- vc&#45;&gt;hf -->
<g id="edge107" class="edge">
<title>vc&#45;&gt;hf</title>
<path fill="none" stroke="black" d="M1784.91,-431.7C1778.08,-423.3 1769.74,-413.07 1762.24,-403.86"/>
<polygon fill="black" stroke="black" points="1764.96,-401.65 1755.93,-396.1 1759.53,-406.07 1764.96,-401.65"/>
</g>
<!-- tk&#45;&gt;pr -->
<g id="edge97" class="edge">
<title>tk&#45;&gt;pr</title>
<path fill="none" stroke="black" d="M22.33,-108.27C14.15,-134.79 0,-187.27 0,-233 0,-811 0,-811 0,-811 0,-917.43 151.9,-967.35 217.46,-983.93"/>
<polygon fill="black" stroke="black" points="216.66,-987.34 227.2,-986.31 218.32,-980.54 216.66,-987.34"/>
</g>
<!-- broadcaster -->
<g id="node59" class="node">
<title>broadcaster</title>
<ellipse fill="none" stroke="green" cx="972" cy="-991.54" rx="55.58" ry="55.58"/>
<text text-anchor="middle" x="972" y="-987.34" font-family="Times,serif" font-size="14.00">broadcaster</text>
</g>
<!-- broadcaster&#45;&gt;pd -->
<g id="edge101" class="edge">
<title>broadcaster&#45;&gt;pd</title>
<path fill="none" stroke="black" d="M917.39,-980.32C801.35,-958.62 532.82,-908.4 434.2,-889.96"/>
<polygon fill="black" stroke="black" points="434.58,-886.47 424.11,-888.07 433.3,-893.35 434.58,-886.47"/>
</g>
<!-- broadcaster&#45;&gt;kt -->
<g id="edge102" class="edge">
<title>broadcaster&#45;&gt;kt</title>
<path fill="none" stroke="black" d="M1027.06,-982.67C1172.68,-961.88 1565.1,-905.84 1687.8,-888.31"/>
<polygon fill="black" stroke="black" points="1688.43,-891.76 1697.83,-886.88 1687.44,-884.83 1688.43,-891.76"/>
</g>
<!-- broadcaster&#45;&gt;xv -->
<g id="edge103" class="edge">
<title>broadcaster&#45;&gt;xv</title>
<path fill="none" stroke="black" d="M1022.78,-968.52C1070.51,-947.82 1140.77,-917.35 1183.28,-898.92"/>
<polygon fill="black" stroke="black" points="1184.9,-902.03 1192.68,-894.84 1182.12,-895.61 1184.9,-902.03"/>
</g>
<!-- broadcaster&#45;&gt;rg -->
<g id="edge104" class="edge">
<title>broadcaster&#45;&gt;rg</title>
<path fill="none" stroke="black" d="M921.66,-967.6C876.8,-947.16 812.22,-917.73 772.25,-899.52"/>
<polygon fill="black" stroke="black" points="773.68,-896.33 763.13,-895.36 770.78,-902.69 773.68,-896.33"/>
</g>
</g>
</svg>
