<?xml version="1.0" encoding="UTF-8" standalone="no"?>
<!DOCTYPE svg PUBLIC "-//W3C//DTD SVG 1.1//EN"
 "http://www.w3.org/Graphics/SVG/1.1/DTD/svg11.dtd">
<!-- Generated by graphviz version 2.48.0 (0)
 -->
<!-- Pages: 1 -->
<svg width="508pt" height="491pt"
 viewBox="0.00 0.00 507.50 491.03" xmlns="http://www.w3.org/2000/svg" xmlns:xlink="http://www.w3.org/1999/xlink">
<g id="graph0" class="graph" transform="scale(1 1) rotate(0) translate(4 487.03)">
<polygon fill="white" stroke="transparent" points="-4,4 -4,-487.03 503.5,-487.03 503.5,4 -4,4"/>
<!-- jqt -->
<g id="node1" class="node">
<title>jqt</title>
<ellipse fill="none" stroke="green" cx="60" cy="-457.51" rx="21.47" ry="21.47"/>
<text text-anchor="middle" x="60" y="-453.31" font-family="Times,serif" font-size="14.00">jqt</text>
</g>
<!-- rhn -->
<g id="node2" class="node">
<title>rhn</title>
<ellipse fill="none" stroke="green" cx="113" cy="-368.32" rx="23.82" ry="23.82"/>
<text text-anchor="middle" x="113" y="-364.12" font-family="Times,serif" font-size="14.00">rhn</text>
</g>
<!-- jqt&#45;&#45;rhn -->
<g id="edge1" class="edge">
<title>jqt&#45;&#45;rhn</title>
<path fill="none" stroke="black" d="M70.73,-438.86C79.5,-424.43 91.89,-404.04 101,-389.07"/>
</g>
<!-- xhk -->
<g id="node3" class="node">
<title>xhk</title>
<ellipse fill="none" stroke="green" cx="60" cy="-279.14" rx="25.54" ry="25.54"/>
<text text-anchor="middle" x="60" y="-274.94" font-family="Times,serif" font-size="14.00">xhk</text>
</g>
<!-- jqt&#45;&#45;xhk -->
<g id="edge2" class="edge">
<title>jqt&#45;&#45;xhk</title>
<path fill="none" stroke="black" d="M60,-435.93C60,-403.31 60,-339.84 60,-304.82"/>
</g>
<!-- ntq -->
<g id="node4" class="node">
<title>ntq</title>
<ellipse fill="none" stroke="green" cx="65" cy="-23.38" rx="23.25" ry="23.25"/>
<text text-anchor="middle" x="65" y="-19.18" font-family="Times,serif" font-size="14.00">ntq</text>
</g>
<!-- jqt&#45;&#45;ntq -->
<g id="edge3" class="edge">
<title>jqt&#45;&#45;ntq</title>
<path fill="none" stroke="black" d="M49.55,-438.66C32.36,-407.56 0,-340.94 0,-280.14 0,-280.14 0,-280.14 0,-192.71 0,-135.06 33.58,-73.32 52.47,-43.15"/>
</g>
<!-- rhn&#45;&#45;xhk -->
<g id="edge4" class="edge">
<title>rhn&#45;&#45;xhk</title>
<path fill="none" stroke="black" d="M100.97,-347.54C92.61,-333.77 81.46,-315.44 72.9,-301.37"/>
</g>
<!-- bvb -->
<g id="node5" class="node">
<title>bvb</title>
<ellipse fill="none" stroke="green" cx="102" cy="-108.28" rx="25.54" ry="25.54"/>
<text text-anchor="middle" x="102" y="-104.08" font-family="Times,serif" font-size="14.00">bvb</text>
</g>
<!-- rhn&#45;&#45;bvb -->
<g id="edge5" class="edge">
<title>rhn&#45;&#45;bvb</title>
<path fill="none" stroke="black" d="M112.02,-344.42C109.96,-296.07 105.18,-183.92 103.05,-134"/>
</g>
<!-- hfx -->
<g id="node6" class="node">
<title>hfx</title>
<ellipse fill="none" stroke="green" cx="166" cy="-193.71" rx="23.82" ry="23.82"/>
<text text-anchor="middle" x="166" y="-189.51" font-family="Times,serif" font-size="14.00">hfx</text>
</g>
<!-- rhn&#45;&#45;hfx -->
<g id="edge6" class="edge">
<title>rhn&#45;&#45;hfx</title>
<path fill="none" stroke="black" d="M119.82,-345.11C130,-311.96 149.04,-249.93 159.21,-216.83"/>
</g>
<!-- xhk&#45;&#45;ntq -->
<g id="edge9" class="edge">
<title>xhk&#45;&#45;ntq</title>
<path fill="none" stroke="black" d="M60.49,-253.34C61.46,-204.08 63.62,-94.55 64.55,-47.06"/>
</g>
<!-- xhk&#45;&#45;bvb -->
<g id="edge8" class="edge">
<title>xhk&#45;&#45;bvb</title>
<path fill="none" stroke="black" d="M65.93,-254.3C73.91,-222.21 88.03,-165.43 96.03,-133.26"/>
</g>
<!-- xhk&#45;&#45;hfx -->
<g id="edge7" class="edge">
<title>xhk&#45;&#45;hfx</title>
<path fill="none" stroke="black" d="M79.94,-262.44C99.37,-247.15 128.67,-224.09 147.57,-209.21"/>
</g>
<!-- bvb&#45;&#45;ntq -->
<g id="edge30" class="edge">
<title>bvb&#45;&#45;ntq</title>
<path fill="none" stroke="black" d="M91.89,-84.62C86.37,-72.26 79.58,-57.05 74.21,-45.02"/>
</g>
<!-- hfx&#45;&#45;ntq -->
<g id="edge25" class="edge">
<title>hfx&#45;&#45;ntq</title>
<path fill="none" stroke="black" d="M164.11,-169.55C161.27,-146.06 154.25,-109.45 137,-82.75 123.9,-62.48 101.43,-45.92 85.07,-35.69"/>
</g>
<!-- hfx&#45;&#45;bvb -->
<g id="edge24" class="edge">
<title>hfx&#45;&#45;bvb</title>
<path fill="none" stroke="black" d="M151.8,-174.19C141.49,-160.75 127.56,-142.59 117.06,-128.9"/>
</g>
<!-- nvd -->
<g id="node7" class="node">
<title>nvd</title>
<ellipse fill="none" stroke="red" cx="425" cy="-457.51" rx="25.54" ry="25.54"/>
<text text-anchor="middle" x="425" y="-453.31" font-family="Times,serif" font-size="14.00">nvd</text>
</g>
<!-- cmg -->
<g id="node8" class="node">
<title>cmg</title>
<ellipse fill="none" stroke="red" cx="453" cy="-368.32" rx="27.83" ry="27.83"/>
<text text-anchor="middle" x="453" y="-364.12" font-family="Times,serif" font-size="14.00">cmg</text>
</g>
<!-- nvd&#45;&#45;cmg -->
<g id="edge10" class="edge">
<title>nvd&#45;&#45;cmg</title>
<path fill="none" stroke="black" d="M432.65,-432.68C436.41,-420.99 440.94,-406.88 444.77,-394.95"/>
</g>
<!-- pzl -->
<g id="node9" class="node">
<title>pzl</title>
<ellipse fill="none" stroke="red" cx="286" cy="-368.32" rx="22.67" ry="22.67"/>
<text text-anchor="middle" x="286" y="-364.12" font-family="Times,serif" font-size="14.00">pzl</text>
</g>
<!-- nvd&#45;&#45;pzl -->
<g id="edge11" class="edge">
<title>nvd&#45;&#45;pzl</title>
<path fill="none" stroke="black" d="M402.16,-445.12C380,-433.72 345.74,-415.16 318,-395.99 312.88,-392.45 307.59,-388.28 302.82,-384.3"/>
</g>
<!-- qnr -->
<g id="node10" class="node">
<title>qnr</title>
<ellipse fill="none" stroke="red" cx="387" cy="-279.14" rx="23.82" ry="23.82"/>
<text text-anchor="middle" x="387" y="-274.94" font-family="Times,serif" font-size="14.00">qnr</text>
</g>
<!-- nvd&#45;&#45;qnr -->
<g id="edge12" class="edge">
<title>nvd&#45;&#45;qnr</title>
<path fill="none" stroke="black" d="M419.8,-432.35C412.42,-398.11 399.02,-335.91 391.84,-302.61"/>
</g>
<!-- lhk -->
<g id="node11" class="node">
<title>lhk</title>
<ellipse fill="none" stroke="red" cx="445" cy="-193.71" rx="23.25" ry="23.25"/>
<text text-anchor="middle" x="445" y="-189.51" font-family="Times,serif" font-size="14.00">lhk</text>
</g>
<!-- nvd&#45;&#45;lhk -->
<g id="edge13" class="edge">
<title>nvd&#45;&#45;lhk</title>
<path fill="none" stroke="black" d="M446.67,-443.36C461.95,-432.72 481.2,-416.2 490,-395.99 517.51,-332.78 478.2,-250.82 457.01,-214.05"/>
</g>
<!-- cmg&#45;&#45;qnr -->
<g id="edge26" class="edge">
<title>cmg&#45;&#45;qnr</title>
<path fill="none" stroke="black" d="M436.69,-345.77C425.77,-331.35 411.54,-312.56 401.11,-298.78"/>
</g>
<!-- cmg&#45;&#45;lhk -->
<g id="edge27" class="edge">
<title>cmg&#45;&#45;lhk</title>
<path fill="none" stroke="black" d="M454.01,-340.64C454.65,-317.57 455.01,-283.36 453,-253.61 452.18,-241.46 450.41,-228 448.75,-217.01"/>
</g>
<!-- rzs -->
<g id="node15" class="node">
<title>rzs</title>
<ellipse fill="none" stroke="red" cx="318" cy="-193.71" rx="22.09" ry="22.09"/>
<text text-anchor="middle" x="318" y="-189.51" font-family="Times,serif" font-size="14.00">rzs</text>
</g>
<!-- cmg&#45;&#45;rzs -->
<g id="edge28" class="edge">
<title>cmg&#45;&#45;rzs</title>
<path fill="none" stroke="black" d="M450.88,-340.38C447.71,-315.56 439.78,-278.85 420,-253.61 399.06,-226.9 362.39,-210.06 339.19,-201.52"/>
</g>
<!-- lsr -->
<g id="node14" class="node">
<title>lsr</title>
<ellipse fill="none" stroke="red" cx="286" cy="-279.14" rx="20.88" ry="20.88"/>
<text text-anchor="middle" x="286" y="-274.94" font-family="Times,serif" font-size="14.00">lsr</text>
</g>
<!-- pzl&#45;&#45;lsr -->
<g id="edge21" class="edge">
<title>pzl&#45;&#45;lsr</title>
<path fill="none" stroke="black" d="M286,-345.32C286,-331.4 286,-313.54 286,-300.04"/>
</g>
<!-- qnr&#45;&#45;rzs -->
<g id="edge29" class="edge">
<title>qnr&#45;&#45;rzs</title>
<path fill="none" stroke="black" d="M372.03,-260.03C360.06,-245.56 343.41,-225.43 331.77,-211.36"/>
</g>
<!-- rsh -->
<g id="node12" class="node">
<title>rsh</title>
<ellipse fill="none" stroke="red" cx="260" cy="-457.51" rx="22.67" ry="22.67"/>
<text text-anchor="middle" x="260" y="-453.31" font-family="Times,serif" font-size="14.00">rsh</text>
</g>
<!-- rsh&#45;&#45;pzl -->
<g id="edge15" class="edge">
<title>rsh&#45;&#45;pzl</title>
<path fill="none" stroke="black" d="M266.29,-435.4C270.35,-421.8 275.61,-404.16 279.67,-390.54"/>
</g>
<!-- frs -->
<g id="node13" class="node">
<title>frs</title>
<ellipse fill="none" stroke="red" cx="348" cy="-368.32" rx="21.45" ry="21.45"/>
<text text-anchor="middle" x="348" y="-364.12" font-family="Times,serif" font-size="14.00">frs</text>
</g>
<!-- rsh&#45;&#45;frs -->
<g id="edge14" class="edge">
<title>rsh&#45;&#45;frs</title>
<path fill="none" stroke="black" d="M275.73,-440.92C292.05,-424.76 317.35,-399.69 333.28,-383.9"/>
</g>
<!-- rsh&#45;&#45;lsr -->
<g id="edge16" class="edge">
<title>rsh&#45;&#45;lsr</title>
<path fill="none" stroke="black" d="M255.15,-434.8C250.75,-411.24 246.05,-372.72 254,-340.66 257.98,-324.62 267.07,-308.16 274.55,-296.46"/>
</g>
<!-- rsh&#45;&#45;rzs -->
<g id="edge17" class="edge">
<title>rsh&#45;&#45;rzs</title>
<path fill="none" stroke="black" d="M253.48,-435.52C242.8,-397.05 225.62,-313.66 256,-253.61 265.99,-233.87 285.35,-217.16 299.79,-206.63"/>
</g>
<!-- frs&#45;&#45;qnr -->
<g id="edge18" class="edge">
<title>frs&#45;&#45;qnr</title>
<path fill="none" stroke="black" d="M356.46,-348.4C362.69,-334.48 371.16,-315.55 377.6,-301.16"/>
</g>
<!-- frs&#45;&#45;lhk -->
<g id="edge19" class="edge">
<title>frs&#45;&#45;lhk</title>
<path fill="none" stroke="black" d="M343.88,-347.3C340.05,-323.3 337.17,-282.7 354,-253.61 369.17,-227.39 401.25,-210.85 422.97,-202.19"/>
</g>
<!-- frs&#45;&#45;lsr -->
<g id="edge20" class="edge">
<title>frs&#45;&#45;lsr</title>
<path fill="none" stroke="black" d="M336.05,-350.51C325,-334.97 308.68,-312.03 297.71,-296.6"/>
</g>
<!-- lsr&#45;&#45;lhk -->
<g id="edge22" class="edge">
<title>lsr&#45;&#45;lhk</title>
<path fill="none" stroke="black" d="M302.36,-265.83C308.12,-261.72 314.72,-257.27 321,-253.61 355.6,-233.47 398.19,-214.39 423.38,-203.66"/>
</g>
<!-- lsr&#45;&#45;rzs -->
<g id="edge23" class="edge">
<title>lsr&#45;&#45;rzs</title>
<path fill="none" stroke="black" d="M293.1,-259.62C298.18,-246.37 305.02,-228.54 310.25,-214.92"/>
</g>
</g>
</svg>
