<?xml version="1.0" encoding="UTF-8" standalone="no"?>
<!DOCTYPE svg PUBLIC "-//W3C//DTD SVG 1.1//EN"
 "http://www.w3.org/Graphics/SVG/1.1/DTD/svg11.dtd">
<!-- Generated by graphviz version 2.48.0 (0)
 -->
<!-- Pages: 1 -->
<svg width="459pt" height="1207pt"
 viewBox="0.00 0.00 459.39 1206.99" xmlns="http://www.w3.org/2000/svg" xmlns:xlink="http://www.w3.org/1999/xlink">
<g id="graph0" class="graph" transform="scale(1 1) rotate(0) translate(4 1202.99)">
<polygon fill="white" stroke="transparent" points="-4,4 -4,-1202.99 455.39,-1202.99 455.39,4 -4,4"/>
<!-- S -->
<g id="node1" class="node">
<title>S</title>
<ellipse fill="none" stroke="green" cx="208.39" cy="-1180.99" rx="18" ry="18"/>
<text text-anchor="middle" x="208.39" y="-1176.79" font-family="Times,serif" font-size="14.00">S</text>
</g>
<!-- i11j37 -->
<g id="node2" class="node">
<title>i11j37</title>
<polygon fill="none" stroke="black" points="201.17,-1110.08 149.61,-1110.08 149.61,-1058.52 201.17,-1058.52 201.17,-1110.08"/>
<text text-anchor="middle" x="175.39" y="-1080.1" font-family="Times,serif" font-size="14.00">i11j37</text>
</g>
<!-- S&#45;&gt;i11j37 -->
<g id="edge1" class="edge">
<title>S&#45;&gt;i11j37</title>
<path fill="none" stroke="black" d="M200.71,-1164.52C197.88,-1158.51 194.79,-1151.51 192.39,-1144.99 189.45,-1137.01 186.71,-1128.28 184.32,-1120.02"/>
<polygon fill="black" stroke="black" points="187.65,-1118.95 181.59,-1110.26 180.91,-1120.83 187.65,-1118.95"/>
<text text-anchor="middle" x="202.89" y="-1132.39" font-family="Times,serif" font-size="14.00">339</text>
</g>
<!-- i33j5 -->
<g id="node3" class="node">
<title>i33j5</title>
<polygon fill="none" stroke="black" points="263.67,-1106.58 219.11,-1106.58 219.11,-1062.02 263.67,-1062.02 263.67,-1106.58"/>
<text text-anchor="middle" x="241.39" y="-1080.1" font-family="Times,serif" font-size="14.00">i33j5</text>
</g>
<!-- S&#45;&gt;i33j5 -->
<g id="edge2" class="edge">
<title>S&#45;&gt;i33j5</title>
<path fill="none" stroke="black" d="M214.14,-1163.5C218.65,-1150.55 225.07,-1132.14 230.54,-1116.43"/>
<polygon fill="black" stroke="black" points="233.99,-1117.18 233.97,-1106.59 227.38,-1114.88 233.99,-1117.18"/>
<text text-anchor="middle" x="235.89" y="-1132.39" font-family="Times,serif" font-size="14.00">169</text>
</g>
<!-- i9j61 -->
<g id="node5" class="node">
<title>i9j61</title>
<polygon fill="none" stroke="black" points="164.67,-1002 120.11,-1002 120.11,-957.44 164.67,-957.44 164.67,-1002"/>
<text text-anchor="middle" x="142.39" y="-975.52" font-family="Times,serif" font-size="14.00">i9j61</text>
</g>
<!-- i11j37&#45;&gt;i9j61 -->
<g id="edge3" class="edge">
<title>i11j37&#45;&gt;i9j61</title>
<path fill="none" stroke="black" d="M152.91,-1058.49C149.03,-1052.9 145.55,-1046.74 143.39,-1040.41 140.37,-1031.57 139.36,-1021.56 139.31,-1012.3"/>
<polygon fill="black" stroke="black" points="142.81,-1012.36 139.6,-1002.26 135.81,-1012.16 142.81,-1012.36"/>
<text text-anchor="middle" x="153.89" y="-1027.81" font-family="Times,serif" font-size="14.00">286</text>
</g>
<!-- i39j33 -->
<g id="node6" class="node">
<title>i39j33</title>
<polygon fill="none" stroke="black" points="234.17,-1005.5 182.61,-1005.5 182.61,-953.94 234.17,-953.94 234.17,-1005.5"/>
<text text-anchor="middle" x="208.39" y="-975.52" font-family="Times,serif" font-size="14.00">i39j33</text>
</g>
<!-- i11j37&#45;&gt;i39j33 -->
<g id="edge4" class="edge">
<title>i11j37&#45;&gt;i39j33</title>
<path fill="none" stroke="black" d="M178.95,-1058.24C180.87,-1047.42 183.62,-1034.72 187.39,-1023.61 188.37,-1020.72 189.5,-1017.78 190.72,-1014.85"/>
<polygon fill="black" stroke="black" points="193.94,-1016.22 194.84,-1005.67 187.56,-1013.36 193.94,-1016.22"/>
<text text-anchor="middle" x="197.89" y="-1027.81" font-family="Times,serif" font-size="14.00">144</text>
</g>
<!-- i33j5&#45;&gt;i39j33 -->
<g id="edge12" class="edge">
<title>i33j5&#45;&gt;i39j33</title>
<path fill="none" stroke="black" d="M234.39,-1061.55C230.08,-1048.14 224.45,-1030.64 219.53,-1015.35"/>
<polygon fill="black" stroke="black" points="222.82,-1014.14 216.42,-1005.69 216.15,-1016.28 222.82,-1014.14"/>
<text text-anchor="middle" x="236.89" y="-1027.81" font-family="Times,serif" font-size="14.00">154</text>
</g>
<!-- i57j7 -->
<g id="node13" class="node">
<title>i57j7</title>
<polygon fill="none" stroke="black" points="296.67,-1002 252.11,-1002 252.11,-957.44 296.67,-957.44 296.67,-1002"/>
<text text-anchor="middle" x="274.39" y="-975.52" font-family="Times,serif" font-size="14.00">i57j7</text>
</g>
<!-- i33j5&#45;&gt;i57j7 -->
<g id="edge13" class="edge">
<title>i33j5&#45;&gt;i57j7</title>
<path fill="none" stroke="black" d="M248.39,-1061.55C253.06,-1047.03 259.27,-1027.73 264.45,-1011.63"/>
<polygon fill="black" stroke="black" points="267.78,-1012.68 267.52,-1002.09 261.12,-1010.54 267.78,-1012.68"/>
<text text-anchor="middle" x="269.89" y="-1027.81" font-family="Times,serif" font-size="14.00">138</text>
</g>
<!-- E -->
<g id="node4" class="node">
<title>E</title>
<ellipse fill="none" stroke="red" cx="213.39" cy="-18" rx="18" ry="18"/>
<text text-anchor="middle" x="213.39" y="-13.8" font-family="Times,serif" font-size="14.00">E</text>
</g>
<!-- i15j83 -->
<g id="node7" class="node">
<title>i15j83</title>
<polygon fill="none" stroke="black" points="128.17,-900.92 76.61,-900.92 76.61,-849.36 128.17,-849.36 128.17,-900.92"/>
<text text-anchor="middle" x="102.39" y="-870.94" font-family="Times,serif" font-size="14.00">i15j83</text>
</g>
<!-- i9j61&#45;&gt;i15j83 -->
<g id="edge5" class="edge">
<title>i9j61&#45;&gt;i15j83</title>
<path fill="none" stroke="black" d="M129.76,-957.34C126.1,-950.6 122.31,-943.04 119.39,-935.83 116.17,-927.88 113.31,-919.1 110.89,-910.78"/>
<polygon fill="black" stroke="black" points="114.21,-909.64 108.18,-900.93 107.46,-911.51 114.21,-909.64"/>
<text text-anchor="middle" x="129.89" y="-923.23" font-family="Times,serif" font-size="14.00">144</text>
</g>
<!-- i43j67 -->
<g id="node8" class="node">
<title>i43j67</title>
<polygon fill="none" stroke="black" points="200.17,-900.92 148.61,-900.92 148.61,-849.36 200.17,-849.36 200.17,-900.92"/>
<text text-anchor="middle" x="174.39" y="-870.94" font-family="Times,serif" font-size="14.00">i43j67</text>
</g>
<!-- i9j61&#45;&gt;i43j67 -->
<g id="edge6" class="edge">
<title>i9j61&#45;&gt;i43j67</title>
<path fill="none" stroke="black" d="M141.75,-957.23C142,-945.65 143.3,-931.26 147.39,-919.03 148.42,-915.94 149.72,-912.85 151.19,-909.82"/>
<polygon fill="black" stroke="black" points="154.29,-911.45 155.99,-900.99 148.14,-908.1 154.29,-911.45"/>
<text text-anchor="middle" x="157.89" y="-923.23" font-family="Times,serif" font-size="14.00">196</text>
</g>
<!-- i39j33&#45;&gt;i43j67 -->
<g id="edge15" class="edge">
<title>i39j33&#45;&gt;i43j67</title>
<path fill="none" stroke="black" d="M198.08,-953.93C195.76,-948.04 193.4,-941.75 191.39,-935.83 188.66,-927.78 185.99,-919.02 183.61,-910.75"/>
<polygon fill="black" stroke="black" points="186.95,-909.68 180.87,-901 180.21,-911.57 186.95,-909.68"/>
<text text-anchor="middle" x="201.89" y="-923.23" font-family="Times,serif" font-size="14.00">242</text>
</g>
<!-- i53j39 -->
<g id="node14" class="node">
<title>i53j39</title>
<polygon fill="none" stroke="black" points="273.17,-900.92 221.61,-900.92 221.61,-849.36 273.17,-849.36 273.17,-900.92"/>
<text text-anchor="middle" x="247.39" y="-870.94" font-family="Times,serif" font-size="14.00">i53j39</text>
</g>
<!-- i39j33&#45;&gt;i53j39 -->
<g id="edge14" class="edge">
<title>i39j33&#45;&gt;i53j39</title>
<path fill="none" stroke="black" d="M217.83,-953.89C222.78,-940.88 228.91,-924.75 234.31,-910.55"/>
<polygon fill="black" stroke="black" points="237.62,-911.69 237.9,-901.1 231.08,-909.2 237.62,-911.69"/>
<text text-anchor="middle" x="236.39" y="-923.23" font-family="Times,serif" font-size="14.00">48</text>
</g>
<!-- i11j103 -->
<g id="node9" class="node">
<title>i11j103</title>
<polygon fill="none" stroke="black" points="91.67,-796.34 33.11,-796.34 33.11,-737.78 91.67,-737.78 91.67,-796.34"/>
<text text-anchor="middle" x="62.39" y="-762.86" font-family="Times,serif" font-size="14.00">i11j103</text>
</g>
<!-- i15j83&#45;&gt;i11j103 -->
<g id="edge7" class="edge">
<title>i15j83&#45;&gt;i11j103</title>
<path fill="none" stroke="black" d="M76.24,-851.36C71.03,-845.38 66.28,-838.55 63.39,-831.25 60.38,-823.65 59.04,-815.11 58.65,-806.84"/>
<polygon fill="black" stroke="black" points="62.15,-806.57 58.61,-796.58 55.15,-806.59 62.15,-806.57"/>
<text text-anchor="middle" x="73.89" y="-818.65" font-family="Times,serif" font-size="14.00">176</text>
</g>
<!-- i35j79 -->
<g id="node10" class="node">
<title>i35j79</title>
<polygon fill="none" stroke="black" points="169.17,-792.84 117.61,-792.84 117.61,-741.28 169.17,-741.28 169.17,-792.84"/>
<text text-anchor="middle" x="143.39" y="-762.86" font-family="Times,serif" font-size="14.00">i35j79</text>
</g>
<!-- i15j83&#45;&gt;i35j79 -->
<g id="edge8" class="edge">
<title>i15j83&#45;&gt;i35j79</title>
<path fill="none" stroke="black" d="M112,-849.27C117.36,-835.4 124.12,-817.92 129.99,-802.73"/>
<polygon fill="black" stroke="black" points="133.36,-803.73 133.7,-793.14 126.83,-801.21 133.36,-803.73"/>
<text text-anchor="middle" x="132.39" y="-818.65" font-family="Times,serif" font-size="14.00">84</text>
</g>
<!-- i43j67&#45;&gt;i35j79 -->
<g id="edge16" class="edge">
<title>i43j67&#45;&gt;i35j79</title>
<path fill="none" stroke="black" d="M155.89,-849.32C152.49,-843.64 149.39,-837.45 147.39,-831.25 144.52,-822.36 143.11,-812.4 142.51,-803.07"/>
<polygon fill="black" stroke="black" points="146.01,-802.76 142.15,-792.89 139.01,-803.01 146.01,-802.76"/>
<text text-anchor="middle" x="154.39" y="-818.65" font-family="Times,serif" font-size="14.00">48</text>
</g>
<!-- i55j59 -->
<g id="node15" class="node">
<title>i55j59</title>
<polygon fill="none" stroke="black" points="239.17,-792.84 187.61,-792.84 187.61,-741.28 239.17,-741.28 239.17,-792.84"/>
<text text-anchor="middle" x="213.39" y="-762.86" font-family="Times,serif" font-size="14.00">i55j59</text>
</g>
<!-- i43j67&#45;&gt;i55j59 -->
<g id="edge17" class="edge">
<title>i43j67&#45;&gt;i55j59</title>
<path fill="none" stroke="black" d="M183.53,-849.27C188.63,-835.4 195.06,-817.92 200.64,-802.73"/>
<polygon fill="black" stroke="black" points="204,-803.74 204.17,-793.14 197.43,-801.32 204,-803.74"/>
<text text-anchor="middle" x="202.39" y="-818.65" font-family="Times,serif" font-size="14.00">36</text>
</g>
<!-- i43j129 -->
<g id="node11" class="node">
<title>i43j129</title>
<polygon fill="none" stroke="black" points="58.67,-573.18 0.11,-573.18 0.11,-514.61 58.67,-514.61 58.67,-573.18"/>
<text text-anchor="middle" x="29.39" y="-539.7" font-family="Times,serif" font-size="14.00">i43j129</text>
</g>
<!-- i11j103&#45;&gt;i43j129 -->
<g id="edge9" class="edge">
<title>i11j103&#45;&gt;i43j129</title>
<path fill="none" stroke="black" d="M54.79,-737.69C50.89,-722.18 46.34,-702.58 43.39,-684.87 37.72,-650.8 34.05,-611.65 31.89,-583.43"/>
<polygon fill="black" stroke="black" points="35.36,-582.91 31.13,-573.19 28.38,-583.42 35.36,-582.91"/>
<text text-anchor="middle" x="53.89" y="-651.28" font-family="Times,serif" font-size="14.00">602</text>
</g>
<!-- i43j105 -->
<g id="node12" class="node">
<title>i43j105</title>
<polygon fill="none" stroke="black" points="131.67,-684.76 73.11,-684.76 73.11,-626.2 131.67,-626.2 131.67,-684.76"/>
<text text-anchor="middle" x="102.39" y="-651.28" font-family="Times,serif" font-size="14.00">i43j105</text>
</g>
<!-- i11j103&#45;&gt;i43j105 -->
<g id="edge10" class="edge">
<title>i11j103&#45;&gt;i43j105</title>
<path fill="none" stroke="black" d="M58.83,-737.62C58.45,-726.47 59.32,-713.76 63.39,-702.87 64.61,-699.62 66.16,-696.43 67.93,-693.35"/>
<polygon fill="black" stroke="black" points="70.87,-695.25 73.46,-684.97 65.03,-691.39 70.87,-695.25"/>
<text text-anchor="middle" x="73.89" y="-707.07" font-family="Times,serif" font-size="14.00">198</text>
</g>
<!-- i35j79&#45;&gt;i43j105 -->
<g id="edge18" class="edge">
<title>i35j79&#45;&gt;i43j105</title>
<path fill="none" stroke="black" d="M131.51,-741.25C128.37,-734.33 125.11,-726.77 122.39,-719.67 119.35,-711.72 116.39,-703.1 113.73,-694.84"/>
<polygon fill="black" stroke="black" points="116.98,-693.52 110.64,-685.04 110.31,-695.63 116.98,-693.52"/>
<text text-anchor="middle" x="132.89" y="-707.07" font-family="Times,serif" font-size="14.00">230</text>
</g>
<!-- i57j75 -->
<g id="node16" class="node">
<title>i57j75</title>
<polygon fill="none" stroke="black" points="204.17,-681.26 152.61,-681.26 152.61,-629.7 204.17,-629.7 204.17,-681.26"/>
<text text-anchor="middle" x="178.39" y="-651.28" font-family="Times,serif" font-size="14.00">i57j75</text>
</g>
<!-- i35j79&#45;&gt;i57j75 -->
<g id="edge19" class="edge">
<title>i35j79&#45;&gt;i57j75</title>
<path fill="none" stroke="black" d="M144.23,-741.24C145.21,-729.38 147.24,-715.12 151.39,-702.87 152.77,-698.8 154.53,-694.69 156.48,-690.68"/>
<polygon fill="black" stroke="black" points="159.71,-692.08 161.32,-681.61 153.53,-688.79 159.71,-692.08"/>
<text text-anchor="middle" x="161.89" y="-707.07" font-family="Times,serif" font-size="14.00">106</text>
</g>
<!-- i43j129&#45;&gt;E -->
<g id="edge11" class="edge">
<title>i43j129&#45;&gt;E</title>
<path fill="none" stroke="black" d="M19.22,-514.46C12.3,-492.57 4.39,-461.41 4.39,-433.32 4.39,-433.32 4.39,-433.32 4.39,-120.69 4.39,-41.27 127.92,-23.86 185.04,-20.06"/>
<polygon fill="black" stroke="black" points="185.42,-23.54 195.21,-19.48 185.03,-16.55 185.42,-23.54"/>
<text text-anchor="middle" x="14.89" y="-274.55" font-family="Times,serif" font-size="14.00">823</text>
</g>
<!-- i43j105&#45;&gt;i43j129 -->
<g id="edge20" class="edge">
<title>i43j105&#45;&gt;i43j129</title>
<path fill="none" stroke="black" d="M83.4,-625.97C74.45,-612.53 63.65,-596.32 54.07,-581.94"/>
<polygon fill="black" stroke="black" points="56.74,-579.64 48.28,-573.26 50.92,-583.52 56.74,-579.64"/>
<text text-anchor="middle" x="80.89" y="-595.49" font-family="Times,serif" font-size="14.00">136</text>
</g>
<!-- i67j101 -->
<g id="node17" class="node">
<title>i67j101</title>
<polygon fill="none" stroke="black" points="150.67,-573.18 92.11,-573.18 92.11,-514.61 150.67,-514.61 150.67,-573.18"/>
<text text-anchor="middle" x="121.39" y="-539.7" font-family="Times,serif" font-size="14.00">i67j101</text>
</g>
<!-- i43j105&#45;&gt;i67j101 -->
<g id="edge21" class="edge">
<title>i43j105&#45;&gt;i67j101</title>
<path fill="none" stroke="black" d="M103.35,-626C104.05,-615.07 105.27,-602.53 107.39,-591.29 107.88,-588.66 108.47,-585.98 109.12,-583.29"/>
<polygon fill="black" stroke="black" points="112.5,-584.18 111.68,-573.61 105.74,-582.38 112.5,-584.18"/>
<text text-anchor="middle" x="117.89" y="-595.49" font-family="Times,serif" font-size="14.00">148</text>
</g>
<!-- i57j7&#45;&gt;i53j39 -->
<g id="edge23" class="edge">
<title>i57j7&#45;&gt;i53j39</title>
<path fill="none" stroke="black" d="M268.66,-956.97C265.17,-943.68 260.62,-926.39 256.62,-911.21"/>
<polygon fill="black" stroke="black" points="259.89,-909.89 253.96,-901.11 253.12,-911.67 259.89,-909.89"/>
<text text-anchor="middle" x="272.89" y="-923.23" font-family="Times,serif" font-size="14.00">208</text>
</g>
<!-- i77j7 -->
<g id="node19" class="node">
<title>i77j7</title>
<polygon fill="none" stroke="black" points="337.67,-897.42 293.11,-897.42 293.11,-852.86 337.67,-852.86 337.67,-897.42"/>
<text text-anchor="middle" x="315.39" y="-870.94" font-family="Times,serif" font-size="14.00">i77j7</text>
</g>
<!-- i57j7&#45;&gt;i77j7 -->
<g id="edge24" class="edge">
<title>i57j7&#45;&gt;i77j7</title>
<path fill="none" stroke="black" d="M283.09,-956.97C288.89,-942.45 296.6,-923.15 303.04,-907.05"/>
<polygon fill="black" stroke="black" points="306.39,-908.1 306.85,-897.51 299.89,-905.5 306.39,-908.1"/>
<text text-anchor="middle" x="306.89" y="-923.23" font-family="Times,serif" font-size="14.00">140</text>
</g>
<!-- i53j39&#45;&gt;i55j59 -->
<g id="edge26" class="edge">
<title>i53j39&#45;&gt;i55j59</title>
<path fill="none" stroke="black" d="M232.38,-849.35C229.36,-843.57 226.49,-837.32 224.39,-831.25 221.33,-822.38 219.09,-812.5 217.47,-803.24"/>
<polygon fill="black" stroke="black" points="220.89,-802.47 215.88,-793.13 213.97,-803.55 220.89,-802.47"/>
<text text-anchor="middle" x="234.89" y="-818.65" font-family="Times,serif" font-size="14.00">118</text>
</g>
<!-- i85j35 -->
<g id="node20" class="node">
<title>i85j35</title>
<polygon fill="none" stroke="black" points="309.17,-792.84 257.61,-792.84 257.61,-741.28 309.17,-741.28 309.17,-792.84"/>
<text text-anchor="middle" x="283.39" y="-762.86" font-family="Times,serif" font-size="14.00">i85j35</text>
</g>
<!-- i53j39&#45;&gt;i85j35 -->
<g id="edge25" class="edge">
<title>i53j39&#45;&gt;i85j35</title>
<path fill="none" stroke="black" d="M255.83,-849.27C260.54,-835.4 266.47,-817.92 271.62,-802.73"/>
<polygon fill="black" stroke="black" points="274.98,-803.74 274.88,-793.14 268.35,-801.49 274.98,-803.74"/>
<text text-anchor="middle" x="277.89" y="-818.65" font-family="Times,serif" font-size="14.00">164</text>
</g>
<!-- i55j59&#45;&gt;i57j75 -->
<g id="edge27" class="edge">
<title>i55j59&#45;&gt;i57j75</title>
<path fill="none" stroke="black" d="M203.18,-741.2C200.49,-734.28 197.7,-726.73 195.39,-719.67 192.38,-710.47 189.49,-700.4 186.97,-691.05"/>
<polygon fill="black" stroke="black" points="190.33,-690.05 184.4,-681.27 183.56,-691.83 190.33,-690.05"/>
<text text-anchor="middle" x="202.39" y="-707.07" font-family="Times,serif" font-size="14.00">46</text>
</g>
<!-- i75j63 -->
<g id="node21" class="node">
<title>i75j63</title>
<polygon fill="none" stroke="black" points="275.17,-681.26 223.61,-681.26 223.61,-629.7 275.17,-629.7 275.17,-681.26"/>
<text text-anchor="middle" x="249.39" y="-651.28" font-family="Times,serif" font-size="14.00">i75j63</text>
</g>
<!-- i55j59&#45;&gt;i75j63 -->
<g id="edge28" class="edge">
<title>i55j59&#45;&gt;i75j63</title>
<path fill="none" stroke="black" d="M221.56,-741.19C226.4,-726.45 232.62,-707.53 237.95,-691.31"/>
<polygon fill="black" stroke="black" points="241.33,-692.22 241.13,-681.62 234.68,-690.03 241.33,-692.22"/>
<text text-anchor="middle" x="243.89" y="-707.07" font-family="Times,serif" font-size="14.00">116</text>
</g>
<!-- i57j75&#45;&gt;i67j101 -->
<g id="edge29" class="edge">
<title>i57j75&#45;&gt;i67j101</title>
<path fill="none" stroke="black" d="M165.46,-629.61C158.21,-615.68 149.02,-598.02 140.91,-582.43"/>
<polygon fill="black" stroke="black" points="144.01,-580.79 136.29,-573.54 137.8,-584.02 144.01,-580.79"/>
<text text-anchor="middle" x="162.89" y="-595.49" font-family="Times,serif" font-size="14.00">152</text>
</g>
<!-- i83j75 -->
<g id="node22" class="node">
<title>i83j75</title>
<polygon fill="none" stroke="black" points="227.17,-569.68 175.61,-569.68 175.61,-518.11 227.17,-518.11 227.17,-569.68"/>
<text text-anchor="middle" x="201.39" y="-539.7" font-family="Times,serif" font-size="14.00">i83j75</text>
</g>
<!-- i57j75&#45;&gt;i83j75 -->
<g id="edge30" class="edge">
<title>i57j75&#45;&gt;i83j75</title>
<path fill="none" stroke="black" d="M183.61,-629.61C186.68,-615 190.6,-596.3 193.98,-580.19"/>
<polygon fill="black" stroke="black" points="197.48,-580.55 196.11,-570.04 190.63,-579.11 197.48,-580.55"/>
<text text-anchor="middle" x="200.89" y="-595.49" font-family="Times,serif" font-size="14.00">102</text>
</g>
<!-- i55j135 -->
<g id="node18" class="node">
<title>i55j135</title>
<polygon fill="none" stroke="black" points="86.67,-384.82 28.11,-384.82 28.11,-326.25 86.67,-326.25 86.67,-384.82"/>
<text text-anchor="middle" x="57.39" y="-351.33" font-family="Times,serif" font-size="14.00">i55j135</text>
</g>
<!-- i67j101&#45;&gt;i55j135 -->
<g id="edge32" class="edge">
<title>i67j101&#45;&gt;i55j135</title>
<path fill="none" stroke="black" d="M111.67,-514.59C100.68,-482.57 82.71,-430.27 70.49,-394.67"/>
<polygon fill="black" stroke="black" points="73.76,-393.43 67.2,-385.11 67.14,-395.7 73.76,-393.43"/>
<text text-anchor="middle" x="115.89" y="-483.91" font-family="Times,serif" font-size="14.00">154</text>
</g>
<!-- i79j101 -->
<g id="node23" class="node">
<title>i79j101</title>
<polygon fill="none" stroke="black" points="193.67,-461.6 135.11,-461.6 135.11,-403.03 193.67,-403.03 193.67,-461.6"/>
<text text-anchor="middle" x="164.39" y="-428.12" font-family="Times,serif" font-size="14.00">i79j101</text>
</g>
<!-- i67j101&#45;&gt;i79j101 -->
<g id="edge31" class="edge">
<title>i67j101&#45;&gt;i79j101</title>
<path fill="none" stroke="black" d="M132.58,-514.39C137.75,-501.2 143.97,-485.35 149.54,-471.17"/>
<polygon fill="black" stroke="black" points="152.87,-472.27 153.26,-461.68 146.35,-469.71 152.87,-472.27"/>
<text text-anchor="middle" x="152.39" y="-483.91" font-family="Times,serif" font-size="14.00">32</text>
</g>
<!-- i55j135&#45;&gt;E -->
<g id="edge22" class="edge">
<title>i55j135&#45;&gt;E</title>
<path fill="none" stroke="black" d="M54.21,-326.09C50.95,-289.94 47.85,-225.84 59.39,-172.58 68.01,-132.8 76.88,-124.52 96.39,-88.8 105.28,-72.53 104.88,-65.54 119.39,-54 138.89,-38.5 165.95,-29.39 186.04,-24.37"/>
<polygon fill="black" stroke="black" points="186.87,-27.77 195.82,-22.11 185.29,-20.95 186.87,-27.77"/>
<text text-anchor="middle" x="69.89" y="-197.77" font-family="Times,serif" font-size="14.00">717</text>
</g>
<!-- i77j7&#45;&gt;i85j35 -->
<g id="edge35" class="edge">
<title>i77j7&#45;&gt;i85j35</title>
<path fill="none" stroke="black" d="M308.91,-852.67C304.59,-838.33 298.8,-819.16 293.83,-802.68"/>
<polygon fill="black" stroke="black" points="297.11,-801.41 290.87,-792.84 290.4,-803.43 297.11,-801.41"/>
<text text-anchor="middle" x="311.89" y="-818.65" font-family="Times,serif" font-size="14.00">200</text>
</g>
<!-- i111j11 -->
<g id="node25" class="node">
<title>i111j11</title>
<polygon fill="none" stroke="black" points="385.67,-796.34 327.11,-796.34 327.11,-737.78 385.67,-737.78 385.67,-796.34"/>
<text text-anchor="middle" x="356.39" y="-762.86" font-family="Times,serif" font-size="14.00">i111j11</text>
</g>
<!-- i77j7&#45;&gt;i111j11 -->
<g id="edge34" class="edge">
<title>i77j7&#45;&gt;i111j11</title>
<path fill="none" stroke="black" d="M323.69,-852.67C328.84,-839.34 335.61,-821.81 341.66,-806.18"/>
<polygon fill="black" stroke="black" points="344.97,-807.32 345.31,-796.74 338.44,-804.8 344.97,-807.32"/>
<text text-anchor="middle" x="347.89" y="-818.65" font-family="Times,serif" font-size="14.00">226</text>
</g>
<!-- i85j35&#45;&gt;i75j63 -->
<g id="edge36" class="edge">
<title>i85j35&#45;&gt;i75j63</title>
<path fill="none" stroke="black" d="M275.68,-741.19C271.1,-726.45 265.23,-707.53 260.2,-691.31"/>
<polygon fill="black" stroke="black" points="263.5,-690.14 257.19,-681.62 256.81,-692.21 263.5,-690.14"/>
<text text-anchor="middle" x="278.89" y="-707.07" font-family="Times,serif" font-size="14.00">210</text>
</g>
<!-- i101j37 -->
<g id="node26" class="node">
<title>i101j37</title>
<polygon fill="none" stroke="black" points="352.67,-684.76 294.11,-684.76 294.11,-626.2 352.67,-626.2 352.67,-684.76"/>
<text text-anchor="middle" x="323.39" y="-651.28" font-family="Times,serif" font-size="14.00">i101j37</text>
</g>
<!-- i85j35&#45;&gt;i101j37 -->
<g id="edge37" class="edge">
<title>i85j35&#45;&gt;i101j37</title>
<path fill="none" stroke="black" d="M292.47,-741.19C297.46,-727.52 303.76,-710.26 309.37,-694.89"/>
<polygon fill="black" stroke="black" points="312.8,-695.71 312.94,-685.12 306.22,-693.31 312.8,-695.71"/>
<text text-anchor="middle" x="312.39" y="-707.07" font-family="Times,serif" font-size="14.00">58</text>
</g>
<!-- i75j63&#45;&gt;i83j75 -->
<g id="edge38" class="edge">
<title>i75j63&#45;&gt;i83j75</title>
<path fill="none" stroke="black" d="M238.5,-629.61C231.98,-614.73 223.6,-595.59 216.45,-579.27"/>
<polygon fill="black" stroke="black" points="219.62,-577.8 212.41,-570.04 213.21,-580.61 219.62,-577.8"/>
<text text-anchor="middle" x="234.39" y="-595.49" font-family="Times,serif" font-size="14.00">48</text>
</g>
<!-- i99j63 -->
<g id="node27" class="node">
<title>i99j63</title>
<polygon fill="none" stroke="black" points="344.17,-569.68 292.61,-569.68 292.61,-518.11 344.17,-518.11 344.17,-569.68"/>
<text text-anchor="middle" x="318.39" y="-539.7" font-family="Times,serif" font-size="14.00">i99j63</text>
</g>
<!-- i75j63&#45;&gt;i99j63 -->
<g id="edge39" class="edge">
<title>i75j63&#45;&gt;i99j63</title>
<path fill="none" stroke="black" d="M265.05,-629.61C274.51,-614.59 286.7,-595.23 297.03,-578.81"/>
<polygon fill="black" stroke="black" points="300.19,-580.37 302.56,-570.04 294.27,-576.64 300.19,-580.37"/>
<text text-anchor="middle" x="297.89" y="-595.49" font-family="Times,serif" font-size="14.00">148</text>
</g>
<!-- i83j75&#45;&gt;i79j101 -->
<g id="edge40" class="edge">
<title>i83j75&#45;&gt;i79j101</title>
<path fill="none" stroke="black" d="M192.99,-518.03C188.38,-504.36 182.55,-487.09 177.36,-471.72"/>
<polygon fill="black" stroke="black" points="180.58,-470.31 174.06,-461.95 173.94,-472.55 180.58,-470.31"/>
<text text-anchor="middle" x="194.89" y="-483.91" font-family="Times,serif" font-size="14.00">118</text>
</g>
<!-- i101j87 -->
<g id="node28" class="node">
<title>i101j87</title>
<polygon fill="none" stroke="black" points="289.67,-461.6 231.11,-461.6 231.11,-403.03 289.67,-403.03 289.67,-461.6"/>
<text text-anchor="middle" x="260.39" y="-428.12" font-family="Times,serif" font-size="14.00">i101j87</text>
</g>
<!-- i83j75&#45;&gt;i101j87 -->
<g id="edge41" class="edge">
<title>i83j75&#45;&gt;i101j87</title>
<path fill="none" stroke="black" d="M214.78,-518.03C222.28,-504.1 231.79,-486.43 240.18,-470.85"/>
<polygon fill="black" stroke="black" points="243.31,-472.42 244.97,-461.95 237.15,-469.1 243.31,-472.42"/>
<text text-anchor="middle" x="244.89" y="-483.91" font-family="Times,serif" font-size="14.00">118</text>
</g>
<!-- i77j125 -->
<g id="node24" class="node">
<title>i77j125</title>
<polygon fill="none" stroke="black" points="147.67,-231.25 89.11,-231.25 89.11,-172.69 147.67,-172.69 147.67,-231.25"/>
<text text-anchor="middle" x="118.39" y="-197.77" font-family="Times,serif" font-size="14.00">i77j125</text>
</g>
<!-- i79j101&#45;&gt;i77j125 -->
<g id="edge42" class="edge">
<title>i79j101&#45;&gt;i77j125</title>
<path fill="none" stroke="black" d="M155.26,-403C153.51,-397.07 151.79,-390.82 150.39,-384.92 138.77,-336.08 129.39,-278.93 123.86,-241.9"/>
<polygon fill="black" stroke="black" points="127.26,-240.93 122.34,-231.55 120.33,-241.95 127.26,-240.93"/>
<text text-anchor="middle" x="160.89" y="-351.33" font-family="Times,serif" font-size="14.00">134</text>
</g>
<!-- i99j99 -->
<g id="node29" class="node">
<title>i99j99</title>
<polygon fill="none" stroke="black" points="226.17,-304.53 174.61,-304.53 174.61,-252.97 226.17,-252.97 226.17,-304.53"/>
<text text-anchor="middle" x="200.39" y="-274.55" font-family="Times,serif" font-size="14.00">i99j99</text>
</g>
<!-- i79j101&#45;&gt;i99j99 -->
<g id="edge43" class="edge">
<title>i79j101&#45;&gt;i99j99</title>
<path fill="none" stroke="black" d="M171.16,-402.81C177.12,-377.72 185.82,-341.11 192.17,-314.35"/>
<polygon fill="black" stroke="black" points="195.58,-315.16 194.48,-304.62 188.77,-313.54 195.58,-315.16"/>
<text text-anchor="middle" x="198.89" y="-351.33" font-family="Times,serif" font-size="14.00">150</text>
</g>
<!-- i77j125&#45;&gt;E -->
<g id="edge33" class="edge">
<title>i77j125&#45;&gt;E</title>
<path fill="none" stroke="black" d="M107.54,-172.5C100.35,-148.72 94.54,-114.65 108.39,-88.8 124.92,-57.97 161.72,-38.43 187.05,-28.1"/>
<polygon fill="black" stroke="black" points="188.39,-31.34 196.45,-24.47 185.86,-24.81 188.39,-31.34"/>
<text text-anchor="middle" x="118.89" y="-117.49" font-family="Times,serif" font-size="14.00">597</text>
</g>
<!-- i111j11&#45;&gt;i101j37 -->
<g id="edge45" class="edge">
<title>i111j11&#45;&gt;i101j37</title>
<path fill="none" stroke="black" d="M347.81,-737.55C343.87,-724.49 339.15,-708.81 334.91,-694.74"/>
<polygon fill="black" stroke="black" points="338.17,-693.41 331.93,-684.84 331.46,-695.42 338.17,-693.41"/>
<text text-anchor="middle" x="351.89" y="-707.07" font-family="Times,serif" font-size="14.00">184</text>
</g>
<!-- i127j39 -->
<g id="node31" class="node">
<title>i127j39</title>
<polygon fill="none" stroke="black" points="421.67,-573.18 363.11,-573.18 363.11,-514.61 421.67,-514.61 421.67,-573.18"/>
<text text-anchor="middle" x="392.39" y="-539.7" font-family="Times,serif" font-size="14.00">i127j39</text>
</g>
<!-- i111j11&#45;&gt;i127j39 -->
<g id="edge46" class="edge">
<title>i111j11&#45;&gt;i127j39</title>
<path fill="none" stroke="black" d="M362.82,-737.66C364.07,-731.73 365.33,-725.5 366.39,-719.67 374.89,-672.97 382.61,-618.88 387.39,-583.39"/>
<polygon fill="black" stroke="black" points="390.87,-583.82 388.72,-573.45 383.93,-582.89 390.87,-583.82"/>
<text text-anchor="middle" x="390.89" y="-651.28" font-family="Times,serif" font-size="14.00">468</text>
</g>
<!-- i101j37&#45;&gt;i99j63 -->
<g id="edge47" class="edge">
<title>i101j37&#45;&gt;i99j63</title>
<path fill="none" stroke="black" d="M321.4,-626.03C321.03,-620.1 320.67,-613.89 320.39,-608.09 319.95,-598.93 319.58,-589.01 319.29,-579.82"/>
<polygon fill="black" stroke="black" points="322.79,-579.7 318.99,-569.81 315.79,-579.92 322.79,-579.7"/>
<text text-anchor="middle" x="327.39" y="-595.49" font-family="Times,serif" font-size="14.00">96</text>
</g>
<!-- i101j37&#45;&gt;i127j39 -->
<g id="edge48" class="edge">
<title>i101j37&#45;&gt;i127j39</title>
<path fill="none" stroke="black" d="M337.56,-625.95C343.34,-614.91 350.33,-602.3 357.39,-591.29 359.42,-588.13 361.59,-584.91 363.83,-581.71"/>
<polygon fill="black" stroke="black" points="366.84,-583.52 369.85,-573.36 361.16,-579.43 366.84,-583.52"/>
<text text-anchor="middle" x="367.89" y="-595.49" font-family="Times,serif" font-size="14.00">156</text>
</g>
<!-- i99j63&#45;&gt;i101j87 -->
<g id="edge49" class="edge">
<title>i99j63&#45;&gt;i101j87</title>
<path fill="none" stroke="black" d="M305.23,-518.03C297.85,-504.1 288.51,-486.43 280.26,-470.85"/>
<polygon fill="black" stroke="black" points="283.32,-469.16 275.55,-461.95 277.13,-472.43 283.32,-469.16"/>
<text text-anchor="middle" x="299.39" y="-483.91" font-family="Times,serif" font-size="14.00">82</text>
</g>
<!-- i133j59 -->
<g id="node32" class="node">
<title>i133j59</title>
<polygon fill="none" stroke="black" points="404.67,-231.25 346.11,-231.25 346.11,-172.69 404.67,-172.69 404.67,-231.25"/>
<text text-anchor="middle" x="375.39" y="-197.77" font-family="Times,serif" font-size="14.00">i133j59</text>
</g>
<!-- i99j63&#45;&gt;i133j59 -->
<g id="edge50" class="edge">
<title>i99j63&#45;&gt;i133j59</title>
<path fill="none" stroke="black" d="M322.58,-517.9C332.44,-459.13 357.14,-311.84 368.93,-241.51"/>
<polygon fill="black" stroke="black" points="372.44,-241.75 370.64,-231.31 365.53,-240.6 372.44,-241.75"/>
<text text-anchor="middle" x="351.89" y="-428.12" font-family="Times,serif" font-size="14.00">278</text>
</g>
<!-- i101j87&#45;&gt;i99j99 -->
<g id="edge51" class="edge">
<title>i101j87&#45;&gt;i99j99</title>
<path fill="none" stroke="black" d="M249.11,-402.81C239.13,-377.61 224.55,-340.79 213.95,-314"/>
<polygon fill="black" stroke="black" points="217.17,-312.63 210.23,-304.62 210.66,-315.2 217.17,-312.63"/>
<text text-anchor="middle" x="247.39" y="-351.33" font-family="Times,serif" font-size="14.00">50</text>
</g>
<!-- i125j89 -->
<g id="node33" class="node">
<title>i125j89</title>
<polygon fill="none" stroke="black" points="322.67,-308.03 264.11,-308.03 264.11,-249.47 322.67,-249.47 322.67,-308.03"/>
<text text-anchor="middle" x="293.39" y="-274.55" font-family="Times,serif" font-size="14.00">i125j89</text>
</g>
<!-- i101j87&#45;&gt;i125j89 -->
<g id="edge52" class="edge">
<title>i101j87&#45;&gt;i125j89</title>
<path fill="none" stroke="black" d="M266.6,-402.81C271.81,-378.89 279.29,-344.5 285.03,-318.16"/>
<polygon fill="black" stroke="black" points="288.5,-318.65 287.21,-308.13 281.66,-317.16 288.5,-318.65"/>
<text text-anchor="middle" x="292.89" y="-351.33" font-family="Times,serif" font-size="14.00">166</text>
</g>
<!-- i101j129 -->
<g id="node30" class="node">
<title>i101j129</title>
<polygon fill="none" stroke="black" points="204.17,-154.47 138.61,-154.47 138.61,-88.91 204.17,-88.91 204.17,-154.47"/>
<text text-anchor="middle" x="171.39" y="-117.49" font-family="Times,serif" font-size="14.00">i101j129</text>
</g>
<!-- i99j99&#45;&gt;i101j129 -->
<g id="edge53" class="edge">
<title>i99j99&#45;&gt;i101j129</title>
<path fill="none" stroke="black" d="M195.73,-252.84C191.28,-229.05 184.49,-192.75 179.21,-164.52"/>
<polygon fill="black" stroke="black" points="182.62,-163.71 177.34,-154.53 175.74,-165 182.62,-163.71"/>
<text text-anchor="middle" x="200.89" y="-197.77" font-family="Times,serif" font-size="14.00">180</text>
</g>
<!-- i127j103 -->
<g id="node34" class="node">
<title>i127j103</title>
<polygon fill="none" stroke="black" points="288.17,-154.47 222.61,-154.47 222.61,-88.91 288.17,-88.91 288.17,-154.47"/>
<text text-anchor="middle" x="255.39" y="-117.49" font-family="Times,serif" font-size="14.00">i127j103</text>
</g>
<!-- i99j99&#45;&gt;i127j103 -->
<g id="edge54" class="edge">
<title>i99j99&#45;&gt;i127j103</title>
<path fill="none" stroke="black" d="M209.23,-252.84C217.7,-228.95 230.65,-192.43 240.68,-164.15"/>
<polygon fill="black" stroke="black" points="244.05,-165.12 244.1,-154.53 237.46,-162.78 244.05,-165.12"/>
<text text-anchor="middle" x="247.89" y="-197.77" font-family="Times,serif" font-size="14.00">184</text>
</g>
<!-- i101j129&#45;&gt;E -->
<g id="edge44" class="edge">
<title>i101j129&#45;&gt;E</title>
<path fill="none" stroke="black" d="M179.83,-88.57C183.2,-77.42 187.46,-64.96 192.39,-54 194.16,-50.07 196.27,-46.04 198.46,-42.17"/>
<polygon fill="black" stroke="black" points="201.47,-43.95 203.6,-33.57 195.46,-40.36 201.47,-43.95"/>
<text text-anchor="middle" x="202.89" y="-58.2" font-family="Times,serif" font-size="14.00">361</text>
</g>
<!-- i127j39&#45;&gt;E -->
<g id="edge55" class="edge">
<title>i127j39&#45;&gt;E</title>
<path fill="none" stroke="black" d="M408.07,-514.52C418.53,-492.93 430.39,-462.11 430.39,-433.32 430.39,-433.32 430.39,-433.32 430.39,-120.69 430.39,-38.24 300.36,-22.5 241.61,-19.6"/>
<polygon fill="black" stroke="black" points="241.65,-16.1 231.52,-19.2 241.37,-23.09 241.65,-16.1"/>
<text text-anchor="middle" x="440.89" y="-274.55" font-family="Times,serif" font-size="14.00">701</text>
</g>
<!-- i133j59&#45;&gt;E -->
<g id="edge56" class="edge">
<title>i133j59&#45;&gt;E</title>
<path fill="none" stroke="black" d="M376.55,-172.59C376.27,-139.39 370.45,-85.01 338.39,-54 312.39,-28.85 269.86,-21.48 241.75,-19.48"/>
<polygon fill="black" stroke="black" points="241.91,-15.98 231.74,-18.95 241.54,-22.97 241.91,-15.98"/>
<text text-anchor="middle" x="385.89" y="-117.49" font-family="Times,serif" font-size="14.00">591</text>
</g>
<!-- i125j89&#45;&gt;E -->
<g id="edge57" class="edge">
<title>i125j89&#45;&gt;E</title>
<path fill="none" stroke="black" d="M301.13,-249.41C310.04,-211.14 320.66,-141.65 297.39,-88.8 285.86,-62.61 258.74,-43.05 238.41,-31.39"/>
<polygon fill="black" stroke="black" points="240.09,-28.32 229.63,-26.6 236.73,-34.47 240.09,-28.32"/>
<text text-anchor="middle" x="320.89" y="-117.49" font-family="Times,serif" font-size="14.00">357</text>
</g>
<!-- i127j103&#45;&gt;E -->
<g id="edge58" class="edge">
<title>i127j103&#45;&gt;E</title>
<path fill="none" stroke="black" d="M242.22,-88.79C236.31,-74.5 229.44,-57.87 223.89,-44.43"/>
<polygon fill="black" stroke="black" points="227,-42.77 219.94,-34.87 220.53,-45.45 227,-42.77"/>
<text text-anchor="middle" x="244.89" y="-58.2" font-family="Times,serif" font-size="14.00">245</text>
</g>
</g>
</svg>
