<?xml version="1.0" encoding="UTF-8" standalone="no"?>
<!DOCTYPE svg PUBLIC "-//W3C//DTD SVG 1.1//EN"
 "http://www.w3.org/Graphics/SVG/1.1/DTD/svg11.dtd">
<!-- Generated by graphviz version 2.48.0 (0)
 -->
<!-- Pages: 1 -->
<svg width="160pt" height="837pt"
 viewBox="0.00 0.00 160.28 836.87" xmlns="http://www.w3.org/2000/svg" xmlns:xlink="http://www.w3.org/1999/xlink">
<g id="graph0" class="graph" transform="scale(1 1) rotate(0) translate(4 832.87)">
<polygon fill="white" stroke="transparent" points="-4,4 -4,-832.87 156.28,-832.87 156.28,4 -4,4"/>
<!-- S -->
<g id="node1" class="node">
<title>S</title>
<ellipse fill="none" stroke="green" cx="112.89" cy="-810.87" rx="18" ry="18"/>
<text text-anchor="middle" x="112.89" y="-806.67" font-family="Times,serif" font-size="14.00">S</text>
</g>
<!-- i5j3 -->
<g id="node2" class="node">
<title>i5j3</title>
<polygon fill="none" stroke="black" points="131.67,-739.96 94.11,-739.96 94.11,-702.4 131.67,-702.4 131.67,-739.96"/>
<text text-anchor="middle" x="112.89" y="-716.98" font-family="Times,serif" font-size="14.00">i5j3</text>
</g>
<!-- S&#45;&gt;i5j3 -->
<g id="edge1" class="edge">
<title>S&#45;&gt;i5j3</title>
<path fill="none" stroke="black" d="M112.89,-792.54C112.89,-780.45 112.89,-764.05 112.89,-750.12"/>
<polygon fill="black" stroke="black" points="116.39,-750.07 112.89,-740.07 109.39,-750.07 116.39,-750.07"/>
<text text-anchor="middle" x="119.89" y="-762.27" font-family="Times,serif" font-size="14.00">15</text>
</g>
<!-- i3j11 -->
<g id="node4" class="node">
<title>i3j11</title>
<polygon fill="none" stroke="black" points="110.17,-649.38 65.61,-649.38 65.61,-604.81 110.17,-604.81 110.17,-649.38"/>
<text text-anchor="middle" x="87.89" y="-622.9" font-family="Times,serif" font-size="14.00">i3j11</text>
</g>
<!-- i5j3&#45;&gt;i3j11 -->
<g id="edge2" class="edge">
<title>i5j3&#45;&gt;i3j11</title>
<path fill="none" stroke="black" d="M107.95,-701.99C104.65,-689.84 100.23,-673.55 96.38,-659.36"/>
<polygon fill="black" stroke="black" points="99.69,-658.22 93.7,-649.48 92.94,-660.05 99.69,-658.22"/>
<text text-anchor="middle" x="109.89" y="-671.69" font-family="Times,serif" font-size="14.00">22</text>
</g>
<!-- i13j5 -->
<g id="node5" class="node">
<title>i13j5</title>
<polygon fill="none" stroke="black" points="152.17,-342.63 107.61,-342.63 107.61,-298.07 152.17,-298.07 152.17,-342.63"/>
<text text-anchor="middle" x="129.89" y="-316.15" font-family="Times,serif" font-size="14.00">i13j5</text>
</g>
<!-- i5j3&#45;&gt;i13j5 -->
<g id="edge3" class="edge">
<title>i5j3&#45;&gt;i13j5</title>
<path fill="none" stroke="black" d="M120.8,-702.22C128.12,-683.94 137.89,-654.6 137.89,-628.1 137.89,-628.1 137.89,-628.1 137.89,-420.43 137.89,-397.86 135.8,-372.5 133.76,-353.08"/>
<polygon fill="black" stroke="black" points="137.22,-352.52 132.64,-342.96 130.26,-353.28 137.22,-352.52"/>
<text text-anchor="middle" x="144.89" y="-521.82" font-family="Times,serif" font-size="14.00">22</text>
</g>
<!-- E -->
<g id="node3" class="node">
<title>E</title>
<ellipse fill="none" stroke="red" cx="41.89" cy="-18" rx="18" ry="18"/>
<text text-anchor="middle" x="41.89" y="-13.8" font-family="Times,serif" font-size="14.00">E</text>
</g>
<!-- i11j21 -->
<g id="node6" class="node">
<title>i11j21</title>
<polygon fill="none" stroke="black" points="51.67,-551.8 0.11,-551.8 0.11,-500.23 51.67,-500.23 51.67,-551.8"/>
<text text-anchor="middle" x="25.89" y="-521.82" font-family="Times,serif" font-size="14.00">i11j21</text>
</g>
<!-- i3j11&#45;&gt;i11j21 -->
<g id="edge4" class="edge">
<title>i3j11&#45;&gt;i11j21</title>
<path fill="none" stroke="black" d="M72.09,-604.69C68,-598.93 63.68,-592.65 59.89,-586.71 54.66,-578.51 49.32,-569.48 44.46,-560.98"/>
<polygon fill="black" stroke="black" points="47.37,-559.02 39.4,-552.03 41.27,-562.46 47.37,-559.02"/>
<text text-anchor="middle" x="66.89" y="-574.11" font-family="Times,serif" font-size="14.00">30</text>
</g>
<!-- i13j13 -->
<g id="node7" class="node">
<title>i13j13</title>
<polygon fill="none" stroke="black" points="107.67,-447.22 56.11,-447.22 56.11,-395.65 107.67,-395.65 107.67,-447.22"/>
<text text-anchor="middle" x="81.89" y="-417.23" font-family="Times,serif" font-size="14.00">i13j13</text>
</g>
<!-- i3j11&#45;&gt;i13j13 -->
<g id="edge5" class="edge">
<title>i3j11&#45;&gt;i13j13</title>
<path fill="none" stroke="black" d="M87.26,-604.69C86.23,-569.66 84.17,-499.79 82.92,-457.47"/>
<polygon fill="black" stroke="black" points="86.42,-457.23 82.62,-447.34 79.42,-457.44 86.42,-457.23"/>
<text text-anchor="middle" x="92.89" y="-521.82" font-family="Times,serif" font-size="14.00">24</text>
</g>
<!-- i19j13 -->
<g id="node9" class="node">
<title>i19j13</title>
<polygon fill="none" stroke="black" points="105.67,-245.05 54.11,-245.05 54.11,-193.49 105.67,-193.49 105.67,-245.05"/>
<text text-anchor="middle" x="79.89" y="-215.07" font-family="Times,serif" font-size="14.00">i19j13</text>
</g>
<!-- i13j5&#45;&gt;i19j13 -->
<g id="edge10" class="edge">
<title>i13j5&#45;&gt;i19j13</title>
<path fill="none" stroke="black" d="M119.04,-297.85C112.63,-285.15 104.37,-268.79 97.1,-254.37"/>
<polygon fill="black" stroke="black" points="100.11,-252.58 92.48,-245.23 93.86,-255.73 100.11,-252.58"/>
<text text-anchor="middle" x="116.89" y="-267.36" font-family="Times,serif" font-size="14.00">38</text>
</g>
<!-- i11j21&#45;&gt;i13j13 -->
<g id="edge6" class="edge">
<title>i11j21&#45;&gt;i13j13</title>
<path fill="none" stroke="black" d="M39.45,-500.18C46.62,-487.05 55.53,-470.73 63.33,-456.44"/>
<polygon fill="black" stroke="black" points="66.55,-457.85 68.27,-447.39 60.4,-454.49 66.55,-457.85"/>
<text text-anchor="middle" x="64.89" y="-469.52" font-family="Times,serif" font-size="14.00">18</text>
</g>
<!-- i19j19 -->
<g id="node8" class="node">
<title>i19j19</title>
<polygon fill="none" stroke="black" points="67.67,-140.47 16.11,-140.47 16.11,-88.91 67.67,-88.91 67.67,-140.47"/>
<text text-anchor="middle" x="41.89" y="-110.49" font-family="Times,serif" font-size="14.00">i19j19</text>
</g>
<!-- i11j21&#45;&gt;i19j19 -->
<g id="edge7" class="edge">
<title>i11j21&#45;&gt;i19j19</title>
<path fill="none" stroke="black" d="M25.89,-500.14C25.89,-479.37 25.89,-448.97 25.89,-422.43 25.89,-422.43 25.89,-422.43 25.89,-218.27 25.89,-195.66 29.73,-170.57 33.65,-150.87"/>
<polygon fill="black" stroke="black" points="37.13,-151.32 35.75,-140.81 30.28,-149.89 37.13,-151.32"/>
<text text-anchor="middle" x="32.89" y="-316.15" font-family="Times,serif" font-size="14.00">10</text>
</g>
<!-- i13j13&#45;&gt;i13j5 -->
<g id="edge8" class="edge">
<title>i13j13&#45;&gt;i13j5</title>
<path fill="none" stroke="black" d="M93.43,-395.38C98.42,-384.67 104.37,-372.06 109.89,-360.74 111.26,-357.94 112.7,-355.03 114.15,-352.12"/>
<polygon fill="black" stroke="black" points="117.39,-353.47 118.77,-342.96 111.14,-350.32 117.39,-353.47"/>
<text text-anchor="middle" x="116.89" y="-364.94" font-family="Times,serif" font-size="14.00">12</text>
</g>
<!-- i13j13&#45;&gt;i19j13 -->
<g id="edge9" class="edge">
<title>i13j13&#45;&gt;i19j13</title>
<path fill="none" stroke="black" d="M81.64,-395.49C81.29,-360.18 80.64,-295.48 80.24,-255.35"/>
<polygon fill="black" stroke="black" points="83.74,-255.18 80.14,-245.22 76.74,-255.25 83.74,-255.18"/>
<text text-anchor="middle" x="88.89" y="-316.15" font-family="Times,serif" font-size="14.00">10</text>
</g>
<!-- i19j19&#45;&gt;E -->
<g id="edge12" class="edge">
<title>i19j19&#45;&gt;E</title>
<path fill="none" stroke="black" d="M41.89,-88.81C41.89,-75.75 41.89,-59.73 41.89,-46.33"/>
<polygon fill="black" stroke="black" points="45.39,-46.25 41.89,-36.25 38.39,-46.25 45.39,-46.25"/>
<text text-anchor="middle" x="45.39" y="-58.2" font-family="Times,serif" font-size="14.00">5</text>
</g>
<!-- i19j13&#45;&gt;i19j19 -->
<g id="edge11" class="edge">
<title>i19j13&#45;&gt;i19j19</title>
<path fill="none" stroke="black" d="M70.69,-193.44C65.87,-180.43 59.9,-164.3 54.64,-150.1"/>
<polygon fill="black" stroke="black" points="57.89,-148.81 51.14,-140.65 51.33,-151.24 57.89,-148.81"/>
<text text-anchor="middle" x="70.89" y="-162.78" font-family="Times,serif" font-size="14.00">10</text>
</g>
</g>
</svg>
