<?xml version="1.0" encoding="UTF-8" standalone="no"?>
<!DOCTYPE svg PUBLIC "-//W3C//DTD SVG 1.1//EN"
 "http://www.w3.org/Graphics/SVG/1.1/DTD/svg11.dtd">
<!-- Generated by graphviz version 2.48.0 (0)
 -->
<!-- Pages: 1 -->
<svg width="390pt" height="3698pt"
 viewBox="0.00 0.00 390.28 3697.76" xmlns="http://www.w3.org/2000/svg" xmlns:xlink="http://www.w3.org/1999/xlink">
<g id="graph0" class="graph" transform="scale(1 1) rotate(0) translate(4 3693.76)">
<polygon fill="white" stroke="transparent" points="-4,4 -4,-3693.76 386.28,-3693.76 386.28,4 -4,4"/>
<!-- S -->
<g id="node1" class="node">
<title>S</title>
<ellipse fill="none" stroke="green" cx="334.89" cy="-3671.76" rx="18" ry="18"/>
<text text-anchor="middle" x="334.89" y="-3667.56" font-family="Times,serif" font-size="14.00">S</text>
</g>
<!-- i13j5 -->
<g id="node2" class="node">
<title>i13j5</title>
<polygon fill="none" stroke="black" points="357.17,-3600.85 312.61,-3600.85 312.61,-3556.29 357.17,-3556.29 357.17,-3600.85"/>
<text text-anchor="middle" x="334.89" y="-3574.37" font-family="Times,serif" font-size="14.00">i13j5</text>
</g>
<!-- S&#45;&#45;i13j5 -->
<g id="edge1" class="edge">
<title>S&#45;&#45;i13j5</title>
<path fill="none" stroke="black" d="M334.89,-3653.61C334.89,-3638.75 334.89,-3617.18 334.89,-3601.15"/>
<text text-anchor="middle" x="341.89" y="-3623.16" font-family="Times,serif" font-size="14.00">81</text>
</g>
<!-- i11j37 -->
<g id="node5" class="node">
<title>i11j37</title>
<polygon fill="none" stroke="black" points="331.67,-3503.27 280.11,-3503.27 280.11,-3451.71 331.67,-3451.71 331.67,-3503.27"/>
<text text-anchor="middle" x="305.89" y="-3473.29" font-family="Times,serif" font-size="14.00">i11j37</text>
</g>
<!-- i13j5&#45;&#45;i11j37 -->
<g id="edge3" class="edge">
<title>i13j5&#45;&#45;i11j37</title>
<path fill="none" stroke="black" d="M328.6,-3556.07C324.07,-3540.59 317.94,-3519.66 313.19,-3503.44"/>
<text text-anchor="middle" x="333.39" y="-3525.58" font-family="Times,serif" font-size="14.00">258</text>
</g>
<!-- i33j5 -->
<g id="node6" class="node">
<title>i33j5</title>
<polygon fill="none" stroke="black" points="373.17,-2548.04 328.61,-2548.04 328.61,-2503.48 373.17,-2503.48 373.17,-2548.04"/>
<text text-anchor="middle" x="350.89" y="-2521.56" font-family="Times,serif" font-size="14.00">i33j5</text>
</g>
<!-- i13j5&#45;&#45;i33j5 -->
<g id="edge4" class="edge">
<title>i13j5&#45;&#45;i33j5</title>
<path fill="none" stroke="black" d="M344.68,-3556.03C352.76,-3536.28 362.89,-3506.02 362.89,-3478.49 362.89,-3478.49 362.89,-3478.49 362.89,-2625.84 362.89,-2598.98 358.49,-2568.32 355.02,-2548.31"/>
<text text-anchor="middle" x="369.89" y="-3051.46" font-family="Times,serif" font-size="14.00">88</text>
</g>
<!-- E -->
<g id="node3" class="node">
<title>E</title>
<ellipse fill="none" stroke="red" cx="101.89" cy="-604.8" rx="18" ry="18"/>
<text text-anchor="middle" x="101.89" y="-600.6" font-family="Times,serif" font-size="14.00">E</text>
</g>
<!-- i133j127 -->
<g id="node4" class="node">
<title>i133j127</title>
<polygon fill="none" stroke="black" points="119.67,-519 54.11,-519 54.11,-453.43 119.67,-453.43 119.67,-519"/>
<text text-anchor="middle" x="86.89" y="-482.02" font-family="Times,serif" font-size="14.00">i133j127</text>
</g>
<!-- E&#45;&#45;i133j127 -->
<g id="edge2" class="edge">
<title>E&#45;&#45;i133j127</title>
<path fill="none" stroke="black" d="M99.68,-586.59C97.4,-568.86 93.79,-540.8 90.98,-519.01"/>
<text text-anchor="middle" x="102.89" y="-541.31" font-family="Times,serif" font-size="14.00">75</text>
</g>
<!-- i127j103 -->
<g id="node36" class="node">
<title>i127j103</title>
<polygon fill="none" stroke="black" points="163.67,-400.42 98.11,-400.42 98.11,-334.85 163.67,-334.85 163.67,-400.42"/>
<text text-anchor="middle" x="130.89" y="-363.43" font-family="Times,serif" font-size="14.00">i127j103</text>
</g>
<!-- i133j127&#45;&#45;i127j103 -->
<g id="edge57" class="edge">
<title>i133j127&#45;&#45;i127j103</title>
<path fill="none" stroke="black" d="M98.91,-453.36C105.12,-436.91 112.68,-416.9 118.88,-400.45"/>
<text text-anchor="middle" x="122.39" y="-422.72" font-family="Times,serif" font-size="14.00">170</text>
</g>
<!-- i9j61 -->
<g id="node7" class="node">
<title>i9j61</title>
<polygon fill="none" stroke="black" points="271.17,-3398.69 226.61,-3398.69 226.61,-3354.13 271.17,-3354.13 271.17,-3398.69"/>
<text text-anchor="middle" x="248.89" y="-3372.21" font-family="Times,serif" font-size="14.00">i9j61</text>
</g>
<!-- i11j37&#45;&#45;i9j61 -->
<g id="edge5" class="edge">
<title>i11j37&#45;&#45;i9j61</title>
<path fill="none" stroke="black" d="M283.41,-3451.59C278.92,-3445.91 274.48,-3439.74 270.89,-3433.6 264.55,-3422.74 259.32,-3409.72 255.55,-3398.94"/>
<text text-anchor="middle" x="281.39" y="-3421" font-family="Times,serif" font-size="14.00">286</text>
</g>
<!-- i39j33 -->
<g id="node8" class="node">
<title>i39j33</title>
<polygon fill="none" stroke="black" points="324.67,-2652.62 273.11,-2652.62 273.11,-2601.06 324.67,-2601.06 324.67,-2652.62"/>
<text text-anchor="middle" x="298.89" y="-2622.64" font-family="Times,serif" font-size="14.00">i39j33</text>
</g>
<!-- i11j37&#45;&#45;i39j33 -->
<g id="edge6" class="edge">
<title>i11j37&#45;&#45;i39j33</title>
<path fill="none" stroke="black" d="M305.89,-3451.65C305.89,-3431.61 305.89,-3402.69 305.89,-3377.41 305.89,-3377.41 305.89,-3377.41 305.89,-2730.42 305.89,-2703.82 303.52,-2673.44 301.54,-2652.68"/>
<text text-anchor="middle" x="316.39" y="-3051.46" font-family="Times,serif" font-size="14.00">144</text>
</g>
<!-- i57j7 -->
<g id="node20" class="node">
<title>i57j7</title>
<polygon fill="none" stroke="black" points="373.17,-2450.46 328.61,-2450.46 328.61,-2405.9 373.17,-2405.9 373.17,-2450.46"/>
<text text-anchor="middle" x="350.89" y="-2423.98" font-family="Times,serif" font-size="14.00">i57j7</text>
</g>
<!-- i33j5&#45;&#45;i57j7 -->
<g id="edge23" class="edge">
<title>i33j5&#45;&#45;i57j7</title>
<path fill="none" stroke="black" d="M350.89,-2503.07C350.89,-2487.43 350.89,-2466.4 350.89,-2450.78"/>
<text text-anchor="middle" x="361.39" y="-2472.77" font-family="Times,serif" font-size="14.00">138</text>
</g>
<!-- i15j83 -->
<g id="node9" class="node">
<title>i15j83</title>
<polygon fill="none" stroke="black" points="220.67,-3301.11 169.11,-3301.11 169.11,-3249.54 220.67,-3249.54 220.67,-3301.11"/>
<text text-anchor="middle" x="194.89" y="-3271.13" font-family="Times,serif" font-size="14.00">i15j83</text>
</g>
<!-- i9j61&#45;&#45;i15j83 -->
<g id="edge7" class="edge">
<title>i9j61&#45;&#45;i15j83</title>
<path fill="none" stroke="black" d="M226.78,-3353.75C222.05,-3348.3 217.42,-3342.22 213.89,-3336.02 207.81,-3325.34 203.4,-3312.45 200.36,-3301.4"/>
<text text-anchor="middle" x="224.39" y="-3323.42" font-family="Times,serif" font-size="14.00">144</text>
</g>
<!-- i43j67 -->
<g id="node10" class="node">
<title>i43j67</title>
<polygon fill="none" stroke="black" points="270.67,-2757.2 219.11,-2757.2 219.11,-2705.64 270.67,-2705.64 270.67,-2757.2"/>
<text text-anchor="middle" x="244.89" y="-2727.22" font-family="Times,serif" font-size="14.00">i43j67</text>
</g>
<!-- i9j61&#45;&#45;i43j67 -->
<g id="edge8" class="edge">
<title>i9j61&#45;&#45;i43j67</title>
<path fill="none" stroke="black" d="M248.89,-3353.76C248.89,-3333.69 248.89,-3302.99 248.89,-3276.33 248.89,-3276.33 248.89,-3276.33 248.89,-2835 248.89,-2808.45 247.54,-2778.05 246.4,-2757.28"/>
<text text-anchor="middle" x="259.39" y="-3051.46" font-family="Times,serif" font-size="14.00">196</text>
</g>
<!-- i39j33&#45;&#45;i33j5 -->
<g id="edge21" class="edge">
<title>i39j33&#45;&#45;i33j5</title>
<path fill="none" stroke="black" d="M310.47,-2600.94C315.62,-2590.15 321.87,-2577.43 327.89,-2566.15 331.02,-2560.28 334.58,-2554.02 337.94,-2548.26"/>
<text text-anchor="middle" x="338.39" y="-2570.35" font-family="Times,serif" font-size="14.00">154</text>
</g>
<!-- i53j39 -->
<g id="node19" class="node">
<title>i53j39</title>
<polygon fill="none" stroke="black" points="325.67,-2352.88 274.11,-2352.88 274.11,-2301.31 325.67,-2301.31 325.67,-2352.88"/>
<text text-anchor="middle" x="299.89" y="-2322.9" font-family="Times,serif" font-size="14.00">i53j39</text>
</g>
<!-- i39j33&#45;&#45;i53j39 -->
<g id="edge22" class="edge">
<title>i39j33&#45;&#45;i53j39</title>
<path fill="none" stroke="black" d="M298.97,-2600.97C299.16,-2544.92 299.62,-2409.28 299.81,-2353.11"/>
<text text-anchor="middle" x="305.89" y="-2472.77" font-family="Times,serif" font-size="14.00">48</text>
</g>
<!-- i11j103 -->
<g id="node11" class="node">
<title>i11j103</title>
<polygon fill="none" stroke="black" points="168.17,-3196.53 109.61,-3196.53 109.61,-3137.96 168.17,-3137.96 168.17,-3196.53"/>
<text text-anchor="middle" x="138.89" y="-3163.05" font-family="Times,serif" font-size="14.00">i11j103</text>
</g>
<!-- i15j83&#45;&#45;i11j103 -->
<g id="edge9" class="edge">
<title>i15j83&#45;&#45;i11j103</title>
<path fill="none" stroke="black" d="M172.91,-3249.46C168.55,-3243.78 164.28,-3237.6 160.89,-3231.44 154.96,-3220.65 150.17,-3207.96 146.59,-3196.79"/>
<text text-anchor="middle" x="171.39" y="-3218.84" font-family="Times,serif" font-size="14.00">176</text>
</g>
<!-- i35j79 -->
<g id="node12" class="node">
<title>i35j79</title>
<polygon fill="none" stroke="black" points="216.67,-2861.78 165.11,-2861.78 165.11,-2810.22 216.67,-2810.22 216.67,-2861.78"/>
<text text-anchor="middle" x="190.89" y="-2831.8" font-family="Times,serif" font-size="14.00">i35j79</text>
</g>
<!-- i15j83&#45;&#45;i35j79 -->
<g id="edge10" class="edge">
<title>i15j83&#45;&#45;i35j79</title>
<path fill="none" stroke="black" d="M195.26,-3249.46C195.54,-3227.97 195.89,-3196.06 195.89,-3168.25 195.89,-3168.25 195.89,-3168.25 195.89,-2943.08 195.89,-2915.24 194.15,-2883.34 192.72,-2861.85"/>
<text text-anchor="middle" x="202.89" y="-3051.46" font-family="Times,serif" font-size="14.00">84</text>
</g>
<!-- i43j67&#45;&#45;i39j33 -->
<g id="edge19" class="edge">
<title>i43j67&#45;&#45;i39j33</title>
<path fill="none" stroke="black" d="M254.61,-2705.59C259.15,-2694.69 264.88,-2681.87 270.89,-2670.73 274.1,-2664.78 277.87,-2658.58 281.59,-2652.81"/>
<text text-anchor="middle" x="281.39" y="-2674.93" font-family="Times,serif" font-size="14.00">242</text>
</g>
<!-- i55j59 -->
<g id="node18" class="node">
<title>i55j59</title>
<polygon fill="none" stroke="black" points="270.67,-2248.3 219.11,-2248.3 219.11,-2196.73 270.67,-2196.73 270.67,-2248.3"/>
<text text-anchor="middle" x="244.89" y="-2218.31" font-family="Times,serif" font-size="14.00">i55j59</text>
</g>
<!-- i43j67&#45;&#45;i55j59 -->
<g id="edge20" class="edge">
<title>i43j67&#45;&#45;i55j59</title>
<path fill="none" stroke="black" d="M241.87,-2705.59C239.6,-2684.84 236.89,-2654.46 236.89,-2627.84 236.89,-2627.84 236.89,-2627.84 236.89,-2326.1 236.89,-2299.48 239.6,-2269.1 241.87,-2248.35"/>
<text text-anchor="middle" x="243.89" y="-2472.77" font-family="Times,serif" font-size="14.00">36</text>
</g>
<!-- i43j129 -->
<g id="node13" class="node">
<title>i43j129</title>
<polygon fill="none" stroke="black" points="103.17,-3084.95 44.61,-3084.95 44.61,-3026.38 103.17,-3026.38 103.17,-3084.95"/>
<text text-anchor="middle" x="73.89" y="-3051.46" font-family="Times,serif" font-size="14.00">i43j129</text>
</g>
<!-- i11j103&#45;&#45;i43j129 -->
<g id="edge11" class="edge">
<title>i11j103&#45;&#45;i43j129</title>
<path fill="none" stroke="black" d="M116.11,-3137.93C111.83,-3132.1 107.55,-3125.89 103.89,-3119.85 97.22,-3108.85 90.93,-3096.12 85.85,-3084.99"/>
<text text-anchor="middle" x="114.39" y="-3107.25" font-family="Times,serif" font-size="14.00">602</text>
</g>
<!-- i43j105 -->
<g id="node14" class="node">
<title>i43j105</title>
<polygon fill="none" stroke="black" points="162.17,-2973.36 103.61,-2973.36 103.61,-2914.8 162.17,-2914.8 162.17,-2973.36"/>
<text text-anchor="middle" x="132.89" y="-2939.88" font-family="Times,serif" font-size="14.00">i43j105</text>
</g>
<!-- i11j103&#45;&#45;i43j105 -->
<g id="edge12" class="edge">
<title>i11j103&#45;&#45;i43j105</title>
<path fill="none" stroke="black" d="M138.12,-3137.79C136.97,-3095.32 134.81,-3015.84 133.66,-2973.43"/>
<text text-anchor="middle" x="147.39" y="-3051.46" font-family="Times,serif" font-size="14.00">198</text>
</g>
<!-- i35j79&#45;&#45;i43j67 -->
<g id="edge17" class="edge">
<title>i35j79&#45;&#45;i43j67</title>
<path fill="none" stroke="black" d="M203.05,-2810.19C208.41,-2799.42 214.86,-2786.68 220.89,-2775.31 224.01,-2769.43 227.46,-2763.15 230.74,-2757.27"/>
<text text-anchor="middle" x="227.89" y="-2779.51" font-family="Times,serif" font-size="14.00">48</text>
</g>
<!-- i57j75 -->
<g id="node17" class="node">
<title>i57j75</title>
<polygon fill="none" stroke="black" points="216.67,-2143.72 165.11,-2143.72 165.11,-2092.15 216.67,-2092.15 216.67,-2143.72"/>
<text text-anchor="middle" x="190.89" y="-2113.73" font-family="Times,serif" font-size="14.00">i57j75</text>
</g>
<!-- i35j79&#45;&#45;i57j75 -->
<g id="edge18" class="edge">
<title>i35j79&#45;&#45;i57j75</title>
<path fill="none" stroke="black" d="M189.38,-2810.14C188.25,-2789.37 186.89,-2758.98 186.89,-2732.42 186.89,-2732.42 186.89,-2732.42 186.89,-2221.51 186.89,-2194.96 188.25,-2164.57 189.38,-2143.8"/>
<text text-anchor="middle" x="197.39" y="-2472.77" font-family="Times,serif" font-size="14.00">106</text>
</g>
<!-- i43j129&#45;&#45;i43j105 -->
<g id="edge13" class="edge">
<title>i43j129&#45;&#45;i43j105</title>
<path fill="none" stroke="black" d="M86.5,-3026.32C91.62,-3015.3 97.77,-3002.66 103.89,-2991.47 107.08,-2985.64 110.7,-2979.53 114.27,-2973.73"/>
<text text-anchor="middle" x="114.39" y="-2995.67" font-family="Times,serif" font-size="14.00">136</text>
</g>
<!-- i55j135 -->
<g id="node15" class="node">
<title>i55j135</title>
<polygon fill="none" stroke="black" points="102.17,-1927.55 43.61,-1927.55 43.61,-1868.99 102.17,-1868.99 102.17,-1927.55"/>
<text text-anchor="middle" x="72.89" y="-1894.07" font-family="Times,serif" font-size="14.00">i55j135</text>
</g>
<!-- i43j129&#45;&#45;i55j135 -->
<g id="edge14" class="edge">
<title>i43j129&#45;&#45;i55j135</title>
<path fill="none" stroke="black" d="M71.08,-3026.31C69.14,-3004.21 66.89,-2972.72 66.89,-2945.08 66.89,-2945.08 66.89,-2945.08 66.89,-2008.85 66.89,-1981.23 68.82,-1949.74 70.48,-1927.63"/>
<text text-anchor="middle" x="77.39" y="-2472.77" font-family="Times,serif" font-size="14.00">106</text>
</g>
<!-- i43j105&#45;&#45;i35j79 -->
<g id="edge15" class="edge">
<title>i43j105&#45;&#45;i35j79</title>
<path fill="none" stroke="black" d="M144.16,-2914.52C148.88,-2903.47 154.7,-2890.87 160.89,-2879.89 164.28,-2873.88 168.31,-2867.65 172.29,-2861.88"/>
<text text-anchor="middle" x="171.39" y="-2884.09" font-family="Times,serif" font-size="14.00">230</text>
</g>
<!-- i67j101 -->
<g id="node16" class="node">
<title>i67j101</title>
<polygon fill="none" stroke="black" points="159.17,-2039.13 100.61,-2039.13 100.61,-1980.57 159.17,-1980.57 159.17,-2039.13"/>
<text text-anchor="middle" x="129.89" y="-2005.65" font-family="Times,serif" font-size="14.00">i67j101</text>
</g>
<!-- i43j105&#45;&#45;i67j101 -->
<g id="edge16" class="edge">
<title>i43j105&#45;&#45;i67j101</title>
<path fill="none" stroke="black" d="M130.42,-2914.74C128.76,-2893.39 126.89,-2863.38 126.89,-2837 126.89,-2837 126.89,-2837 126.89,-2116.93 126.89,-2090.59 127.83,-2060.57 128.65,-2039.21"/>
<text text-anchor="middle" x="137.39" y="-2472.77" font-family="Times,serif" font-size="14.00">148</text>
</g>
<!-- i77j125 -->
<g id="node26" class="node">
<title>i77j125</title>
<polygon fill="none" stroke="black" points="102.17,-1815.97 43.61,-1815.97 43.61,-1757.41 102.17,-1757.41 102.17,-1815.97"/>
<text text-anchor="middle" x="72.89" y="-1782.49" font-family="Times,serif" font-size="14.00">i77j125</text>
</g>
<!-- i55j135&#45;&#45;i77j125 -->
<g id="edge34" class="edge">
<title>i55j135&#45;&#45;i77j125</title>
<path fill="none" stroke="black" d="M72.89,-1868.77C72.89,-1852.53 72.89,-1832.26 72.89,-1816.05"/>
<text text-anchor="middle" x="83.39" y="-1838.28" font-family="Times,serif" font-size="14.00">120</text>
</g>
<!-- i67j101&#45;&#45;i55j135 -->
<g id="edge32" class="edge">
<title>i67j101&#45;&#45;i55j135</title>
<path fill="none" stroke="black" d="M111.15,-1980.27C107.59,-1974.46 104.01,-1968.33 100.89,-1962.46 94.98,-1951.33 89.21,-1938.7 84.46,-1927.67"/>
<text text-anchor="middle" x="111.39" y="-1949.86" font-family="Times,serif" font-size="14.00">154</text>
</g>
<!-- i79j101 -->
<g id="node25" class="node">
<title>i79j101</title>
<polygon fill="none" stroke="black" points="165.17,-1704.39 106.61,-1704.39 106.61,-1645.83 165.17,-1645.83 165.17,-1704.39"/>
<text text-anchor="middle" x="135.89" y="-1670.91" font-family="Times,serif" font-size="14.00">i79j101</text>
</g>
<!-- i67j101&#45;&#45;i79j101 -->
<g id="edge33" class="edge">
<title>i67j101&#45;&#45;i79j101</title>
<path fill="none" stroke="black" d="M130.4,-1980.48C131.54,-1917.62 134.25,-1767.2 135.38,-1704.41"/>
<text text-anchor="middle" x="140.89" y="-1838.28" font-family="Times,serif" font-size="14.00">32</text>
</g>
<!-- i57j75&#45;&#45;i67j101 -->
<g id="edge31" class="edge">
<title>i57j75&#45;&#45;i67j101</title>
<path fill="none" stroke="black" d="M172.46,-2091.96C168.47,-2086.19 164.4,-2079.99 160.89,-2074.04 154.37,-2062.99 147.98,-2050.38 142.72,-2039.34"/>
<text text-anchor="middle" x="171.39" y="-2061.44" font-family="Times,serif" font-size="14.00">152</text>
</g>
<!-- i83j75 -->
<g id="node24" class="node">
<title>i83j75</title>
<polygon fill="none" stroke="black" points="216.67,-1592.81 165.11,-1592.81 165.11,-1541.25 216.67,-1541.25 216.67,-1592.81"/>
<text text-anchor="middle" x="190.89" y="-1562.83" font-family="Times,serif" font-size="14.00">i83j75</text>
</g>
<!-- i57j75&#45;&#45;i83j75 -->
<g id="edge30" class="edge">
<title>i57j75&#45;&#45;i83j75</title>
<path fill="none" stroke="black" d="M192.72,-2092.09C194.15,-2070.6 195.89,-2038.69 195.89,-2010.85 195.89,-2010.85 195.89,-2010.85 195.89,-1674.11 195.89,-1646.27 194.15,-1614.36 192.72,-1592.88"/>
<text text-anchor="middle" x="206.39" y="-1838.28" font-family="Times,serif" font-size="14.00">102</text>
</g>
<!-- i55j59&#45;&#45;i57j75 -->
<g id="edge28" class="edge">
<title>i55j59&#45;&#45;i57j75</title>
<path fill="none" stroke="black" d="M230.74,-2196.67C227.46,-2190.78 224.01,-2184.5 220.89,-2178.62 214.86,-2167.25 208.41,-2154.52 203.05,-2143.74"/>
<text text-anchor="middle" x="227.89" y="-2166.02" font-family="Times,serif" font-size="14.00">46</text>
</g>
<!-- i75j63 -->
<g id="node23" class="node">
<title>i75j63</title>
<polygon fill="none" stroke="black" points="270.67,-1488.23 219.11,-1488.23 219.11,-1436.66 270.67,-1436.66 270.67,-1488.23"/>
<text text-anchor="middle" x="244.89" y="-1458.25" font-family="Times,serif" font-size="14.00">i75j63</text>
</g>
<!-- i55j59&#45;&#45;i75j63 -->
<g id="edge29" class="edge">
<title>i55j59&#45;&#45;i75j63</title>
<path fill="none" stroke="black" d="M246.4,-2196.65C247.54,-2175.88 248.89,-2145.49 248.89,-2118.93 248.89,-2118.93 248.89,-2118.93 248.89,-1566.03 248.89,-1539.47 247.54,-1509.08 246.4,-1488.31"/>
<text text-anchor="middle" x="259.39" y="-1838.28" font-family="Times,serif" font-size="14.00">116</text>
</g>
<!-- i53j39&#45;&#45;i55j59 -->
<g id="edge26" class="edge">
<title>i53j39&#45;&#45;i55j59</title>
<path fill="none" stroke="black" d="M283.37,-2301C279.78,-2295.24 276.1,-2289.07 272.89,-2283.21 266.8,-2272.06 260.72,-2259.35 255.8,-2248.54"/>
<text text-anchor="middle" x="283.39" y="-2270.61" font-family="Times,serif" font-size="14.00">118</text>
</g>
<!-- i85j35 -->
<g id="node22" class="node">
<title>i85j35</title>
<polygon fill="none" stroke="black" points="325.67,-1383.65 274.11,-1383.65 274.11,-1332.08 325.67,-1332.08 325.67,-1383.65"/>
<text text-anchor="middle" x="299.89" y="-1353.67" font-family="Times,serif" font-size="14.00">i85j35</text>
</g>
<!-- i53j39&#45;&#45;i85j35 -->
<g id="edge27" class="edge">
<title>i53j39&#45;&#45;i85j35</title>
<path fill="none" stroke="black" d="M302.92,-2301.26C305.18,-2280.51 307.89,-2250.13 307.89,-2223.51 307.89,-2223.51 307.89,-2223.51 307.89,-1461.45 307.89,-1434.83 305.18,-1404.45 302.92,-1383.7"/>
<text text-anchor="middle" x="318.39" y="-1838.28" font-family="Times,serif" font-size="14.00">164</text>
</g>
<!-- i57j7&#45;&#45;i53j39 -->
<g id="edge24" class="edge">
<title>i57j7&#45;&#45;i53j39</title>
<path fill="none" stroke="black" d="M336.52,-2405.86C332.87,-2400.1 329.08,-2393.8 325.89,-2387.79 319.95,-2376.61 314.23,-2363.78 309.68,-2352.89"/>
<text text-anchor="middle" x="336.39" y="-2375.19" font-family="Times,serif" font-size="14.00">208</text>
</g>
<!-- i77j7 -->
<g id="node21" class="node">
<title>i77j7</title>
<polygon fill="none" stroke="black" points="375.17,-1279.07 330.61,-1279.07 330.61,-1234.5 375.17,-1234.5 375.17,-1279.07"/>
<text text-anchor="middle" x="352.89" y="-1252.58" font-family="Times,serif" font-size="14.00">i77j7</text>
</g>
<!-- i57j7&#45;&#45;i77j7 -->
<g id="edge25" class="edge">
<title>i57j7&#45;&#45;i77j7</title>
<path fill="none" stroke="black" d="M354.33,-2405.59C357.22,-2385.56 360.89,-2354.89 360.89,-2328.1 360.89,-2328.1 360.89,-2328.1 360.89,-1356.87 360.89,-1330.12 357.96,-1299.44 355.64,-1279.39"/>
<text text-anchor="middle" x="371.39" y="-1838.28" font-family="Times,serif" font-size="14.00">140</text>
</g>
<!-- i111j11 -->
<g id="node32" class="node">
<title>i111j11</title>
<polygon fill="none" stroke="black" points="382.17,-1181.48 323.61,-1181.48 323.61,-1122.92 382.17,-1122.92 382.17,-1181.48"/>
<text text-anchor="middle" x="352.89" y="-1148" font-family="Times,serif" font-size="14.00">i111j11</text>
</g>
<!-- i77j7&#45;&#45;i111j11 -->
<g id="edge45" class="edge">
<title>i77j7&#45;&#45;i111j11</title>
<path fill="none" stroke="black" d="M352.89,-1234.03C352.89,-1218.74 352.89,-1198.13 352.89,-1181.56"/>
<text text-anchor="middle" x="363.39" y="-1203.79" font-family="Times,serif" font-size="14.00">226</text>
</g>
<!-- i85j35&#45;&#45;i77j7 -->
<g id="edge43" class="edge">
<title>i85j35&#45;&#45;i77j7</title>
<path fill="none" stroke="black" d="M309.49,-1331.96C314.01,-1321.06 319.76,-1308.25 325.89,-1297.17 329.18,-1291.23 333.14,-1285.05 336.99,-1279.4"/>
<text text-anchor="middle" x="336.39" y="-1301.37" font-family="Times,serif" font-size="14.00">200</text>
</g>
<!-- i101j37 -->
<g id="node31" class="node">
<title>i101j37</title>
<polygon fill="none" stroke="black" points="329.17,-1069.9 270.61,-1069.9 270.61,-1011.34 329.17,-1011.34 329.17,-1069.9"/>
<text text-anchor="middle" x="299.89" y="-1036.42" font-family="Times,serif" font-size="14.00">i101j37</text>
</g>
<!-- i85j35&#45;&#45;i101j37 -->
<g id="edge44" class="edge">
<title>i85j35&#45;&#45;i101j37</title>
<path fill="none" stroke="black" d="M299.89,-1331.86C299.89,-1274.05 299.89,-1131.39 299.89,-1070.22"/>
<text text-anchor="middle" x="306.89" y="-1203.79" font-family="Times,serif" font-size="14.00">58</text>
</g>
<!-- i75j63&#45;&#45;i85j35 -->
<g id="edge42" class="edge">
<title>i75j63&#45;&#45;i85j35</title>
<path fill="none" stroke="black" d="M255.8,-1436.42C260.72,-1425.61 266.8,-1412.9 272.89,-1401.76 276.1,-1395.89 279.78,-1389.72 283.37,-1383.96"/>
<text text-anchor="middle" x="283.39" y="-1405.96" font-family="Times,serif" font-size="14.00">210</text>
</g>
<!-- i99j63 -->
<g id="node30" class="node">
<title>i99j63</title>
<polygon fill="none" stroke="black" points="273.67,-958.32 222.11,-958.32 222.11,-906.76 273.67,-906.76 273.67,-958.32"/>
<text text-anchor="middle" x="247.89" y="-928.34" font-family="Times,serif" font-size="14.00">i99j63</text>
</g>
<!-- i75j63&#45;&#45;i99j63 -->
<g id="edge41" class="edge">
<title>i75j63&#45;&#45;i99j63</title>
<path fill="none" stroke="black" d="M242.62,-1436.6C240.92,-1415.84 238.89,-1385.45 238.89,-1358.87 238.89,-1358.87 238.89,-1358.87 238.89,-1039.62 238.89,-1011.71 242.02,-979.82 244.59,-958.35"/>
<text text-anchor="middle" x="249.39" y="-1203.79" font-family="Times,serif" font-size="14.00">148</text>
</g>
<!-- i83j75&#45;&#45;i75j63 -->
<g id="edge39" class="edge">
<title>i83j75&#45;&#45;i75j63</title>
<path fill="none" stroke="black" d="M203.05,-1541.22C208.41,-1530.44 214.86,-1517.71 220.89,-1506.34 224.01,-1500.46 227.46,-1494.18 230.74,-1488.29"/>
<text text-anchor="middle" x="227.89" y="-1510.54" font-family="Times,serif" font-size="14.00">48</text>
</g>
<!-- i101j87 -->
<g id="node29" class="node">
<title>i101j87</title>
<polygon fill="none" stroke="black" points="219.17,-853.74 160.61,-853.74 160.61,-795.18 219.17,-795.18 219.17,-853.74"/>
<text text-anchor="middle" x="189.89" y="-820.26" font-family="Times,serif" font-size="14.00">i101j87</text>
</g>
<!-- i83j75&#45;&#45;i101j87 -->
<g id="edge40" class="edge">
<title>i83j75&#45;&#45;i101j87</title>
<path fill="none" stroke="black" d="M189.38,-1541.16C188.25,-1520.4 186.89,-1490 186.89,-1463.45 186.89,-1463.45 186.89,-1463.45 186.89,-931.54 186.89,-905.19 187.83,-875.18 188.65,-853.82"/>
<text text-anchor="middle" x="197.39" y="-1203.79" font-family="Times,serif" font-size="14.00">118</text>
</g>
<!-- i79j101&#45;&#45;i83j75 -->
<g id="edge37" class="edge">
<title>i79j101&#45;&#45;i83j75</title>
<path fill="none" stroke="black" d="M145.48,-1645.79C149.66,-1634.66 154.97,-1621.93 160.89,-1610.92 164.08,-1605 167.93,-1598.91 171.79,-1593.26"/>
<text text-anchor="middle" x="171.39" y="-1615.12" font-family="Times,serif" font-size="14.00">118</text>
</g>
<!-- i99j99 -->
<g id="node28" class="node">
<title>i99j99</title>
<polygon fill="none" stroke="black" points="158.67,-742.16 107.11,-742.16 107.11,-690.6 158.67,-690.6 158.67,-742.16"/>
<text text-anchor="middle" x="132.89" y="-712.18" font-family="Times,serif" font-size="14.00">i99j99</text>
</g>
<!-- i79j101&#45;&#45;i99j99 -->
<g id="edge38" class="edge">
<title>i79j101&#45;&#45;i99j99</title>
<path fill="none" stroke="black" d="M132.18,-1645.8C129.7,-1624.46 126.89,-1594.46 126.89,-1568.03 126.89,-1568.03 126.89,-1568.03 126.89,-823.46 126.89,-795.61 128.98,-763.7 130.69,-742.22"/>
<text text-anchor="middle" x="137.39" y="-1203.79" font-family="Times,serif" font-size="14.00">150</text>
</g>
<!-- i77j125&#45;&#45;i79j101 -->
<g id="edge35" class="edge">
<title>i77j125&#45;&#45;i79j101</title>
<path fill="none" stroke="black" d="M83.82,-1757.32C88.53,-1746.18 94.44,-1733.46 100.89,-1722.5 104.42,-1716.5 108.59,-1710.36 112.8,-1704.6"/>
<text text-anchor="middle" x="111.39" y="-1726.7" font-family="Times,serif" font-size="14.00">134</text>
</g>
<!-- i101j129 -->
<g id="node27" class="node">
<title>i101j129</title>
<polygon fill="none" stroke="black" points="65.67,-637.58 0.11,-637.58 0.11,-572.02 65.67,-572.02 65.67,-637.58"/>
<text text-anchor="middle" x="32.89" y="-600.6" font-family="Times,serif" font-size="14.00">i101j129</text>
</g>
<!-- i77j125&#45;&#45;i101j129 -->
<g id="edge36" class="edge">
<title>i77j125&#45;&#45;i101j129</title>
<path fill="none" stroke="black" d="M61.5,-1757.36C53.75,-1735.52 44.89,-1704.38 44.89,-1676.11 44.89,-1676.11 44.89,-1676.11 44.89,-715.38 44.89,-689.16 41.45,-659.62 38.26,-637.82"/>
<text text-anchor="middle" x="55.39" y="-1203.79" font-family="Times,serif" font-size="14.00">236</text>
</g>
<!-- i101j129&#45;&#45;i133j127 -->
<g id="edge56" class="edge">
<title>i101j129&#45;&#45;i133j127</title>
<path fill="none" stroke="black" d="M47.65,-571.94C55.27,-555.49 64.54,-535.48 72.15,-519.03"/>
<text text-anchor="middle" x="74.39" y="-541.31" font-family="Times,serif" font-size="14.00">286</text>
</g>
<!-- i99j99&#45;&#45;i101j129 -->
<g id="edge54" class="edge">
<title>i99j99&#45;&#45;i101j129</title>
<path fill="none" stroke="black" d="M110.2,-690.51C95.91,-674.85 77.32,-654.49 61.96,-637.65"/>
<text text-anchor="middle" x="102.39" y="-659.89" font-family="Times,serif" font-size="14.00">180</text>
</g>
<!-- i99j99&#45;&#45;i127j103 -->
<g id="edge55" class="edge">
<title>i99j99&#45;&#45;i127j103</title>
<path fill="none" stroke="black" d="M133.01,-690.27C133.24,-641.26 133.72,-529.41 133.89,-435.32 133.9,-427.86 134.11,-425.99 133.89,-418.52 133.72,-412.71 133.43,-406.53 133.1,-400.56"/>
<text text-anchor="middle" x="144.39" y="-541.31" font-family="Times,serif" font-size="14.00">184</text>
</g>
<!-- i101j87&#45;&#45;i99j99 -->
<g id="edge52" class="edge">
<title>i101j87&#45;&#45;i99j99</title>
<path fill="none" stroke="black" d="M173.8,-795.08C170.49,-789.15 167.05,-782.92 163.89,-777.07 157.79,-765.76 151.21,-753.15 145.69,-742.45"/>
<text text-anchor="middle" x="170.89" y="-764.47" font-family="Times,serif" font-size="14.00">50</text>
</g>
<!-- i125j89 -->
<g id="node35" class="node">
<title>i125j89</title>
<polygon fill="none" stroke="black" points="221.17,-281.83 162.61,-281.83 162.61,-223.27 221.17,-223.27 221.17,-281.83"/>
<text text-anchor="middle" x="191.89" y="-248.35" font-family="Times,serif" font-size="14.00">i125j89</text>
</g>
<!-- i101j87&#45;&#45;i125j89 -->
<g id="edge53" class="edge">
<title>i101j87&#45;&#45;i125j89</title>
<path fill="none" stroke="black" d="M190.72,-795.1C191.27,-773.73 191.89,-743.72 191.89,-717.38 191.89,-717.38 191.89,-717.38 191.89,-366.63 191.89,-337.77 191.89,-304.77 191.89,-281.9"/>
<text text-anchor="middle" x="202.39" y="-541.31" font-family="Times,serif" font-size="14.00">166</text>
</g>
<!-- i99j63&#45;&#45;i101j87 -->
<g id="edge50" class="edge">
<title>i99j63&#45;&#45;i101j87</title>
<path fill="none" stroke="black" d="M231.45,-906.41C227.85,-900.64 224.15,-894.49 220.89,-888.65 214.64,-877.45 208.3,-864.8 203,-853.78"/>
<text text-anchor="middle" x="227.89" y="-876.05" font-family="Times,serif" font-size="14.00">82</text>
</g>
<!-- i133j59 -->
<g id="node34" class="node">
<title>i133j59</title>
<polygon fill="none" stroke="black" points="276.17,-170.25 217.61,-170.25 217.61,-111.69 276.17,-111.69 276.17,-170.25"/>
<text text-anchor="middle" x="246.89" y="-136.77" font-family="Times,serif" font-size="14.00">i133j59</text>
</g>
<!-- i99j63&#45;&#45;i133j59 -->
<g id="edge51" class="edge">
<title>i99j63&#45;&#45;i133j59</title>
<path fill="none" stroke="black" d="M248.26,-906.68C248.54,-885.18 248.89,-853.27 248.89,-825.46 248.89,-825.46 248.89,-825.46 248.89,-251.55 248.89,-223.96 248.25,-192.47 247.69,-170.35"/>
<text text-anchor="middle" x="259.39" y="-541.31" font-family="Times,serif" font-size="14.00">278</text>
</g>
<!-- i101j37&#45;&#45;i99j63 -->
<g id="edge48" class="edge">
<title>i101j37&#45;&#45;i99j63</title>
<path fill="none" stroke="black" d="M284.99,-1011.25C281.94,-1005.32 278.78,-999.09 275.89,-993.23 270.27,-981.83 264.26,-969.1 259.26,-958.33"/>
<text text-anchor="middle" x="282.89" y="-980.63" font-family="Times,serif" font-size="14.00">96</text>
</g>
<!-- i127j39 -->
<g id="node33" class="node">
<title>i127j39</title>
<polygon fill="none" stroke="black" points="333.17,-58.67 274.61,-58.67 274.61,-0.11 333.17,-0.11 333.17,-58.67"/>
<text text-anchor="middle" x="303.89" y="-25.19" font-family="Times,serif" font-size="14.00">i127j39</text>
</g>
<!-- i101j37&#45;&#45;i127j39 -->
<g id="edge49" class="edge">
<title>i101j37&#45;&#45;i127j39</title>
<path fill="none" stroke="black" d="M301.54,-1011.27C302.64,-989.91 303.89,-959.9 303.89,-933.54 303.89,-933.54 303.89,-933.54 303.89,-139.97 303.89,-112.39 303.89,-80.89 303.89,-58.77"/>
<text text-anchor="middle" x="314.39" y="-541.31" font-family="Times,serif" font-size="14.00">156</text>
</g>
<!-- i111j11&#45;&#45;i101j37 -->
<g id="edge46" class="edge">
<title>i111j11&#45;&#45;i101j37</title>
<path fill="none" stroke="black" d="M333.89,-1122.75C330.36,-1116.93 326.85,-1110.77 323.89,-1104.81 318.41,-1093.78 313.39,-1081.16 309.37,-1070.12"/>
<text text-anchor="middle" x="334.39" y="-1092.21" font-family="Times,serif" font-size="14.00">184</text>
</g>
<!-- i111j11&#45;&#45;i127j39 -->
<g id="edge47" class="edge">
<title>i111j11&#45;&#45;i127j39</title>
<path fill="none" stroke="black" d="M355.3,-1122.84C356.97,-1100.73 358.89,-1069.25 358.89,-1041.62 358.89,-1041.62 358.89,-1041.62 358.89,-139.97 358.89,-109.96 342.21,-79.76 327.22,-58.69"/>
<text text-anchor="middle" x="369.39" y="-600.6" font-family="Times,serif" font-size="14.00">468</text>
</g>
<!-- i133j59&#45;&#45;i127j39 -->
<g id="edge60" class="edge">
<title>i133j59&#45;&#45;i127j39</title>
<path fill="none" stroke="black" d="M254.72,-111.5C258.32,-100.34 263.09,-87.64 268.89,-76.78 272.12,-70.73 276.11,-64.62 280.22,-58.91"/>
<text text-anchor="middle" x="279.39" y="-80.98" font-family="Times,serif" font-size="14.00">110</text>
</g>
<!-- i125j89&#45;&#45;i133j59 -->
<g id="edge59" class="edge">
<title>i125j89&#45;&#45;i133j59</title>
<path fill="none" stroke="black" d="M199.88,-223.16C203.5,-212.02 208.24,-199.3 213.89,-188.36 217.02,-182.3 220.86,-176.14 224.8,-170.37"/>
<text text-anchor="middle" x="224.39" y="-192.56" font-family="Times,serif" font-size="14.00">234</text>
</g>
<!-- i127j103&#45;&#45;i125j89 -->
<g id="edge58" class="edge">
<title>i127j103&#45;&#45;i125j89</title>
<path fill="none" stroke="black" d="M141.34,-334.61C145.54,-323.34 150.83,-310.8 156.89,-299.94 160.28,-293.86 164.39,-287.69 168.58,-281.92"/>
<text text-anchor="middle" x="167.39" y="-304.14" font-family="Times,serif" font-size="14.00">112</text>
</g>
</g>
</svg>
